<svg xmlns="http://www.w3.org/2000/svg" xmlns:xlink="http://www.w3.org/1999/xlink" width="500" zoomAndPan="magnify" viewBox="0 0 375 374.999991" height="500" preserveAspectRatio="xMidYMid meet" version="1.0"><defs><g/><clipPath id="c989e1b384"><path d="M 105 210 L 125 210 L 125 308.289062 L 105 308.289062 Z M 105 210 " clip-rule="nonzero"/></clipPath><clipPath id="0cceb1f6b7"><path d="M 105 78.039062 L 125 78.039062 L 125 177 L 105 177 Z M 105 78.039062 " clip-rule="nonzero"/></clipPath><clipPath id="e40d09114c"><path d="M 0.0703125 183 L 230.320312 183 L 230.320312 203 L 0.0703125 203 Z M 0.0703125 183 " clip-rule="nonzero"/></clipPath></defs><g clip-path="url(#c989e1b384)"><path fill="#00bf63" d="M 105.378906 298.089844 L 105.378906 219.851562 C 105.378906 214.472656 109.78125 210.070312 115.160156 210.070312 C 120.539062 210.070312 124.941406 214.472656 124.941406 219.851562 L 124.941406 298.582031 C 124.941406 303.960938 120.539062 308.359375 115.160156 308.359375 C 109.78125 308.359375 105.378906 303.472656 105.378906 298.089844 Z M 105.378906 298.089844 " fill-opacity="1" fill-rule="nonzero"/></g><path fill="#00bf63" d="M 75.550781 253.59375 C 75.550781 251.148438 76.527344 249.191406 77.996094 247.234375 L 107.824219 213.496094 C 109.78125 211.539062 112.226562 210.070312 115.160156 210.070312 C 118.09375 210.070312 120.539062 211.050781 122.496094 213.496094 L 152.324219 247.234375 C 155.746094 251.148438 155.746094 257.015625 151.347656 260.925781 C 147.433594 264.351562 141.566406 264.351562 137.652344 259.949219 L 115.160156 234.03125 L 92.175781 259.460938 C 88.753906 263.371094 82.398438 263.863281 78.484375 260.4375 C 76.527344 258.972656 75.550781 256.039062 75.550781 253.59375 Z M 75.550781 253.59375 " fill-opacity="1" fill-rule="nonzero"/><g clip-path="url(#0cceb1f6b7)"><path fill="#00bf63" d="M 105.378906 166.0625 L 105.378906 87.820312 C 105.378906 82.441406 109.78125 78.039062 115.160156 78.039062 C 120.539062 78.039062 124.941406 82.441406 124.941406 87.820312 L 124.941406 166.550781 C 124.941406 171.929688 120.539062 176.332031 115.160156 176.332031 C 109.78125 176.332031 105.378906 171.441406 105.378906 166.0625 Z M 105.378906 166.0625 " fill-opacity="1" fill-rule="nonzero"/></g><path fill="#00bf63" d="M 75.550781 132.320312 C 75.550781 129.875 76.527344 126.941406 78.972656 124.984375 C 82.886719 121.5625 88.753906 121.5625 92.667969 125.960938 L 115.648438 151.390625 L 138.632812 125.960938 C 142.054688 122.050781 148.414062 121.5625 152.324219 124.984375 C 156.238281 128.40625 156.726562 134.765625 153.300781 138.675781 L 123.472656 172.417969 C 121.515625 174.375 119.070312 175.839844 116.136719 175.839844 C 113.203125 175.839844 110.757812 174.863281 108.804688 172.417969 L 78.972656 138.675781 C 76.527344 137.210938 75.550781 134.765625 75.550781 132.320312 Z M 75.550781 132.320312 " fill-opacity="1" fill-rule="nonzero"/><g clip-path="url(#e40d09114c)"><path fill="#00bf63" d="M 0.246094 192.957031 C 0.246094 187.578125 4.644531 183.175781 10.023438 183.175781 L 220.296875 183.175781 C 225.675781 183.175781 230.074219 187.578125 230.074219 192.957031 C 230.074219 198.335938 225.675781 202.734375 220.296875 202.734375 L 9.535156 202.734375 C 4.644531 202.734375 0.246094 198.335938 0.246094 192.957031 Z M 0.246094 192.957031 " fill-opacity="1" fill-rule="nonzero"/></g><g fill="#00bf63" fill-opacity="1"><g transform="translate(207.400039, 302.99998)"><g><path d="M 166.015625 0 L 8.796875 0 L 8.796875 -37.359375 L 116.203125 -175.6875 L 115.171875 -178.765625 L 13.046875 -178.765625 L 13.046875 -214.234375 L 165 -214.234375 L 165 -176.859375 L 57.59375 -38.53125 L 58.609375 -35.453125 L 166.015625 -35.453125 Z M 166.015625 0 "/></g></g></g></svg>