<svg xmlns="http://www.w3.org/2000/svg" xmlns:xlink="http://www.w3.org/1999/xlink" width="500" zoomAndPan="magnify" viewBox="0 0 375 374.999991" height="500" preserveAspectRatio="xMidYMid meet" version="1.0"><defs><clipPath id="9e2e495123"><path d="M 221.609375 233.601562 L 232.308594 233.601562 L 232.308594 261.574219 L 221.609375 261.574219 Z M 221.609375 233.601562 " clip-rule="nonzero"/></clipPath><clipPath id="d21819d956"><path d="M 232.273438 234.601562 C 224.324219 254.25 224.398438 260.324219 223.199219 261.226562 C 222.824219 261.523438 221.925781 261.375 221.851562 261.148438 C 221.773438 261 222.601562 260.101562 222.75 260.175781 C 222.976562 260.25 223.125 261.449219 222.898438 261.523438 C 222.75 261.601562 222 261.300781 221.773438 260.773438 C 221.175781 259.273438 222.898438 253.726562 224.175781 249.824219 C 225.675781 244.949219 229.425781 235.351562 230.925781 234 C 231.226562 233.625 231.601562 233.550781 231.824219 233.699219 C 232.050781 233.773438 232.273438 234.601562 232.273438 234.601562 " clip-rule="nonzero"/></clipPath></defs><path fill="#00bf63" d="M 118.824219 288.96875 L 118.824219 283.078125 C 118.824219 268.59375 106.976562 256.714844 92.492188 256.714844 L 0.523438 256.714844 L 0.523438 334.957031 L 92.492188 334.957031 C 106.976562 334.957031 118.824219 323.105469 118.824219 308.625 L 118.824219 301.007812 L 120.832031 301.007812 C 120.832031 301.007812 132.554688 301.226562 144.5 295.582031 C 156.472656 289.972656 169.042969 277.308594 169.042969 254.988281 C 169.042969 232.703125 156.472656 220.007812 144.5 214.363281 C 132.585938 208.753906 120.925781 208.941406 120.894531 208.972656 L 66.726562 208.972656 C 55.441406 208.972656 44.628906 204.457031 36.632812 196.464844 C 28.671875 188.503906 24.1875 177.71875 24.1875 166.433594 L 24.1875 154.804688 C 24.1875 143.519531 28.671875 132.707031 36.632812 124.710938 C 44.628906 116.75 55.441406 112.234375 66.726562 112.234375 L 84.75 112.234375 L 84.75 172.421875 C 122.867188 172.421875 160.988281 172.421875 199.105469 172.421875 L 199.105469 160.386719 C 165 160.386719 130.894531 160.386719 96.789062 160.386719 L 96.789062 52.082031 L 361.636719 52.082031 L 361.636719 160.386719 C 358.753906 160.386719 355.902344 160.386719 353.019531 160.386719 L 353.019531 172.421875 C 359.914062 172.421875 366.777344 172.421875 373.675781 172.421875 L 373.675781 40.042969 L 84.75 40.042969 L 84.75 100.261719 L 66.726562 100.261719 C 52.246094 100.261719 38.390625 105.96875 28.171875 116.1875 C 17.917969 126.4375 12.152344 140.324219 12.152344 154.804688 L 12.152344 166.433594 C 12.152344 180.917969 17.917969 194.773438 28.171875 205.023438 C 38.390625 215.242188 52.246094 221.007812 66.726562 221.007812 L 120.957031 221.007812 C 120.957031 221.007812 130.296875 220.976562 139.421875 225.273438 C 148.511719 229.535156 157.003906 236.871094 157.003906 254.988281 C 157.003906 273.109375 148.511719 280.445312 139.421875 284.707031 C 130.296875 289 120.957031 288.96875 120.957031 288.96875 Z M 193.117188 64.117188 C 193.117188 76.15625 193.117188 88.191406 193.117188 100.261719 L 349.601562 100.261719 L 349.601562 64.117188 Z M 121.550781 91.828125 C 121.550781 106.375 133.464844 118.285156 147.976562 118.285156 C 162.492188 118.285156 174.402344 106.375 174.402344 91.828125 C 174.402344 77.316406 162.960938 65.402344 147.976562 65.402344 C 133.433594 65.78125 121.550781 77.535156 121.550781 91.828125 Z M 205.15625 76.15625 L 337.5625 76.15625 L 337.5625 88.191406 L 205.15625 88.191406 Z M 147.976562 77.441406 C 156.003906 77.441406 162.367188 83.835938 162.367188 91.828125 C 162.367188 99.855469 156.003906 106.25 147.976562 106.25 C 139.953125 106.25 133.589844 99.855469 133.589844 91.828125 C 133.589844 83.835938 139.953125 77.441406 147.976562 77.441406 Z M 211.171875 112.234375 C 211.171875 124.273438 211.171875 136.3125 211.171875 148.347656 L 331.546875 148.347656 L 331.546875 112.234375 Z M 223.210938 124.273438 L 319.507812 124.273438 L 319.507812 136.3125 L 223.210938 136.3125 Z M 114.875 130.324219 L 114.875 142.359375 C 136.945312 142.359375 159.011719 142.359375 181.082031 142.359375 L 181.082031 130.324219 C 159.011719 130.324219 136.945312 130.324219 114.875 130.324219 Z M 220.042969 160.386719 L 187.347656 207.59375 L 187.347656 292.792969 C 201.300781 292.792969 215.28125 292.792969 229.230469 292.792969 L 229.230469 304.832031 C 215.28125 304.832031 201.300781 304.832031 187.347656 304.832031 L 187.347656 334.957031 L 343.582031 334.957031 C 343.582031 276.777344 343.582031 218.597656 343.582031 160.386719 Z M 228.351562 181.542969 L 240.386719 181.542969 C 240.386719 189.476562 240.386719 197.40625 240.386719 205.367188 L 228.351562 205.367188 C 228.351562 197.40625 228.351562 189.476562 228.351562 181.542969 Z M 254.996094 181.542969 L 267.035156 181.542969 C 267.035156 189.476562 267.035156 197.40625 267.035156 205.367188 L 254.996094 205.367188 C 254.996094 197.40625 254.996094 189.476562 254.996094 181.542969 Z M 281.671875 181.542969 L 293.710938 181.542969 C 293.710938 189.476562 293.710938 197.40625 293.710938 205.367188 L 281.671875 205.367188 C 281.671875 197.40625 281.671875 189.476562 281.671875 181.542969 Z M 308.285156 181.542969 L 320.324219 181.542969 C 320.324219 189.476562 320.324219 197.40625 320.324219 205.367188 L 308.285156 205.367188 C 308.285156 197.40625 308.285156 189.476562 308.285156 181.542969 Z M 268.351562 238.625 L 331.546875 238.625 L 331.546875 292.792969 C 309.476562 292.792969 287.410156 292.792969 265.308594 292.792969 L 265.308594 304.832031 C 287.410156 304.832031 309.476562 304.832031 331.546875 304.832031 L 331.546875 322.917969 L 253.304688 322.917969 L 253.304688 258.71875 Z M 265.308594 250.664062 C 265.308594 256.589844 265.308594 262.511719 265.308594 268.4375 L 277.347656 268.4375 C 277.347656 262.511719 277.347656 256.589844 277.347656 250.664062 Z M 289.382812 250.664062 C 289.382812 256.589844 289.382812 262.511719 289.382812 268.4375 L 301.453125 268.4375 C 301.453125 262.511719 301.453125 256.589844 301.453125 250.664062 Z M 313.488281 250.664062 C 313.488281 256.589844 313.488281 262.511719 313.488281 268.4375 L 325.527344 268.4375 C 325.527344 262.511719 325.527344 256.589844 325.527344 250.664062 Z M 12.558594 268.75 L 42.652344 268.75 L 42.652344 322.917969 L 12.558594 322.917969 Z M 18.546875 274.769531 L 18.546875 286.808594 L 36.632812 286.808594 L 36.632812 274.769531 Z M 18.546875 304.832031 L 18.546875 316.867188 L 36.632812 316.867188 L 36.632812 304.832031 L 18.546875 304.832031 " fill-opacity="1" fill-rule="evenodd"/><g clip-path="url(#9e2e495123)"><g clip-path="url(#d21819d956)"><path fill="#00bf63" d="M 218.773438 230.699219 L 235.273438 230.699219 L 235.273438 264.601562 L 218.773438 264.601562 Z M 218.773438 230.699219 " fill-opacity="1" fill-rule="nonzero"/></g></g></svg>