<svg xmlns="http://www.w3.org/2000/svg" xmlns:xlink="http://www.w3.org/1999/xlink" width="500" zoomAndPan="magnify" viewBox="0 0 375 374.999991" height="500" preserveAspectRatio="xMidYMid meet" version="1.0"><path fill="#ff3131" d="M 124.789062 276.175781 C 122.757812 276.183594 120.929688 275.582031 119.300781 274.371094 C 93.640625 255.117188 67.894531 231.902344 71.527344 205.769531 C 73.476562 191.8125 85.175781 180.46875 96.480469 169.5 C 105.78125 160.519531 115.335938 151.230469 116.09375 143.066406 C 117.140625 131.898438 109.925781 104.75 75.148438 81.9375 C 74.691406 81.652344 74.265625 81.324219 73.878906 80.949219 C 73.488281 80.578125 73.140625 80.167969 72.835938 79.726562 C 72.53125 79.28125 72.277344 78.808594 72.070312 78.308594 C 71.863281 77.8125 71.710938 77.296875 71.613281 76.765625 C 71.515625 76.234375 71.472656 75.703125 71.488281 75.164062 C 71.5 74.625 71.570312 74.089844 71.695312 73.566406 C 71.816406 73.042969 71.996094 72.535156 72.226562 72.046875 C 72.457031 71.5625 72.734375 71.101562 73.058594 70.671875 C 73.414062 70.230469 73.800781 69.824219 74.230469 69.457031 C 74.65625 69.085938 75.113281 68.761719 75.601562 68.476562 C 76.089844 68.191406 76.597656 67.953125 77.132812 67.761719 C 77.664062 67.574219 78.207031 67.433594 78.765625 67.34375 C 79.324219 67.253906 79.882812 67.21875 80.449219 67.234375 C 81.011719 67.246094 81.570312 67.3125 82.125 67.433594 C 82.675781 67.550781 83.214844 67.71875 83.734375 67.9375 C 84.253906 68.152344 84.753906 68.417969 85.226562 68.726562 C 126.390625 95.738281 134.925781 129.070312 133.480469 144.503906 C 132.1875 158.351562 120.453125 169.742188 109.097656 180.746094 C 99.730469 189.828125 90.046875 199.210938 88.84375 207.882812 C 86.261719 226.378906 111.25 247.488281 130.246094 261.726562 C 130.695312 262.039062 131.101562 262.398438 131.472656 262.796875 C 131.839844 263.195312 132.164062 263.628906 132.445312 264.097656 C 132.722656 264.5625 132.949219 265.054688 133.125 265.570312 C 133.296875 266.085938 133.417969 266.613281 133.480469 267.15625 C 133.542969 267.695312 133.546875 268.238281 133.496094 268.78125 C 133.441406 269.320312 133.335938 269.851562 133.167969 270.371094 C 133.003906 270.890625 132.789062 271.386719 132.519531 271.859375 C 132.25 272.332031 131.933594 272.769531 131.570312 273.175781 C 130.710938 274.144531 129.6875 274.890625 128.503906 275.414062 C 127.320312 275.9375 126.082031 276.191406 124.789062 276.175781 Z M 124.789062 276.175781 " fill-opacity="1" fill-rule="nonzero"/><path fill="#ff3131" d="M 198.226562 276.175781 C 196.195312 276.183594 194.367188 275.582031 192.738281 274.371094 C 167.078125 255.117188 141.332031 231.902344 144.96875 205.769531 C 146.914062 191.8125 158.613281 180.46875 169.917969 169.5 C 179.222656 160.519531 188.773438 151.230469 189.53125 143.066406 C 190.578125 131.898438 183.363281 104.75 148.585938 81.9375 C 148.128906 81.652344 147.707031 81.324219 147.316406 80.949219 C 146.929688 80.578125 146.582031 80.167969 146.277344 79.722656 C 145.972656 79.277344 145.71875 78.804688 145.515625 78.304688 C 145.308594 77.808594 145.160156 77.292969 145.0625 76.761719 C 144.964844 76.234375 144.921875 75.699219 144.933594 75.160156 C 144.949219 74.621094 145.019531 74.089844 145.144531 73.566406 C 145.269531 73.039062 145.445312 72.535156 145.675781 72.046875 C 145.90625 71.558594 146.1875 71.101562 146.511719 70.671875 C 146.863281 70.230469 147.253906 69.824219 147.679688 69.457031 C 148.109375 69.085938 148.566406 68.761719 149.054688 68.476562 C 149.542969 68.191406 150.050781 67.953125 150.582031 67.761719 C 151.117188 67.574219 151.660156 67.433594 152.21875 67.34375 C 152.777344 67.253906 153.335938 67.21875 153.902344 67.234375 C 154.464844 67.246094 155.023438 67.3125 155.578125 67.433594 C 156.128906 67.550781 156.664062 67.71875 157.1875 67.9375 C 157.707031 68.152344 158.203125 68.417969 158.675781 68.726562 C 199.84375 95.738281 208.378906 129.070312 206.933594 144.503906 C 205.640625 158.351562 193.902344 169.742188 182.546875 180.746094 C 173.179688 189.828125 163.5 199.210938 162.296875 207.882812 C 159.722656 226.402344 184.710938 247.515625 203.730469 261.785156 C 204.167969 262.097656 204.570312 262.457031 204.9375 262.855469 C 205.300781 263.253906 205.621094 263.683594 205.894531 264.152344 C 206.167969 264.617188 206.390625 265.105469 206.5625 265.617188 C 206.734375 266.132812 206.851562 266.65625 206.914062 267.191406 C 206.972656 267.730469 206.976562 268.265625 206.925781 268.804688 C 206.875 269.34375 206.765625 269.871094 206.605469 270.386719 C 206.441406 270.902344 206.226562 271.394531 205.960938 271.863281 C 205.695312 272.335938 205.382812 272.773438 205.023438 273.175781 C 204.160156 274.144531 203.136719 274.890625 201.953125 275.414062 C 200.765625 275.9375 199.523438 276.191406 198.226562 276.175781 Z M 198.226562 276.175781 " fill-opacity="1" fill-rule="nonzero"/><path fill="#ff3131" d="M 271.691406 276.175781 C 269.664062 276.183594 267.835938 275.582031 266.203125 274.371094 C 240.542969 255.117188 214.796875 231.902344 218.433594 205.769531 C 220.378906 191.8125 232.078125 180.46875 243.386719 169.5 C 252.6875 160.519531 262.242188 151.230469 263 143.066406 C 264.042969 131.898438 256.832031 104.75 222.054688 81.9375 C 221.597656 81.652344 221.171875 81.324219 220.78125 80.949219 C 220.390625 80.578125 220.046875 80.167969 219.742188 79.726562 C 219.4375 79.28125 219.179688 78.808594 218.976562 78.308594 C 218.769531 77.8125 218.617188 77.296875 218.519531 76.765625 C 218.421875 76.234375 218.378906 75.703125 218.390625 75.164062 C 218.40625 74.625 218.472656 74.089844 218.597656 73.566406 C 218.722656 73.042969 218.902344 72.535156 219.128906 72.046875 C 219.359375 71.5625 219.640625 71.101562 219.964844 70.671875 C 220.316406 70.230469 220.707031 69.824219 221.132812 69.457031 C 221.5625 69.085938 222.019531 68.761719 222.507812 68.476562 C 222.996094 68.191406 223.503906 67.953125 224.035156 67.761719 C 224.566406 67.574219 225.113281 67.433594 225.671875 67.34375 C 226.226562 67.253906 226.789062 67.21875 227.355469 67.234375 C 227.917969 67.246094 228.476562 67.3125 229.027344 67.433594 C 229.582031 67.550781 230.117188 67.71875 230.640625 67.9375 C 231.160156 68.152344 231.65625 68.417969 232.128906 68.726562 C 273.296875 95.738281 281.832031 129.070312 280.386719 144.503906 C 279.09375 158.351562 267.355469 169.742188 256 180.746094 C 246.632812 189.828125 236.953125 199.210938 235.75 207.882812 C 233.175781 226.402344 258.160156 247.515625 277.179688 261.785156 C 277.621094 262.097656 278.023438 262.457031 278.390625 262.855469 C 278.753906 263.253906 279.074219 263.683594 279.347656 264.152344 C 279.621094 264.617188 279.84375 265.105469 280.015625 265.617188 C 280.1875 266.132812 280.304688 266.65625 280.363281 267.191406 C 280.425781 267.730469 280.429688 268.265625 280.378906 268.804688 C 280.328125 269.34375 280.21875 269.871094 280.058594 270.386719 C 279.894531 270.902344 279.679688 271.394531 279.414062 271.863281 C 279.148438 272.335938 278.835938 272.773438 278.476562 273.175781 C 277.617188 274.144531 276.59375 274.890625 275.410156 275.414062 C 274.226562 275.9375 272.988281 276.191406 271.691406 276.175781 Z M 271.691406 276.175781 " fill-opacity="1" fill-rule="nonzero"/><path fill="#ff3131" d="M 316.53125 267.136719 C 309.167969 267.136719 302.597656 277.011719 315.75 278.84375 C 336.367188 280.855469 350.933594 283.203125 358.546875 285.441406 C 339.722656 290.972656 278.625 297.207031 187.621094 297.207031 L 187.363281 297.207031 C 96.351562 297.207031 35.265625 290.972656 16.4375 285.441406 C 24.050781 283.203125 38.621094 280.855469 59.234375 278.84375 C 72.394531 277.011719 65.820312 267.109375 58.457031 267.136719 C 25.398438 270.550781 0.09375 276.167969 0.09375 285.441406 C 0.09375 306.566406 131.042969 308.847656 187.363281 308.847656 L 187.621094 308.847656 C 243.929688 308.847656 374.890625 306.574219 374.890625 285.441406 C 374.890625 276.167969 349.582031 270.550781 316.53125 267.136719 Z M 316.53125 267.136719 " fill-opacity="1" fill-rule="nonzero"/></svg>