<svg xmlns="http://www.w3.org/2000/svg" xmlns:xlink="http://www.w3.org/1999/xlink" width="500" zoomAndPan="magnify" viewBox="0 0 375 374.999991" height="500" preserveAspectRatio="xMidYMid meet" version="1.0"><defs><clipPath id="d80db3142c"><path d="M 89.039062 181.664062 L 112.523438 181.664062 L 112.523438 209.269531 L 89.039062 209.269531 Z M 89.039062 181.664062 " clip-rule="nonzero"/></clipPath><clipPath id="04d26e68d0"><path d="M 92.851562 182.398438 C 112.648438 207.300781 112.574219 207.75 112.351562 208.199219 C 112.199219 208.574219 111.898438 208.949219 111.449219 209.101562 C 110.925781 209.25 109.648438 208.949219 109.199219 208.574219 C 108.898438 208.273438 108.75 207.824219 108.75 207.449219 C 108.75 206.925781 109.125 206.101562 109.5 205.800781 C 109.949219 205.5 110.851562 205.425781 111.300781 205.5 C 111.675781 205.648438 112.050781 205.949219 112.273438 206.25 C 112.5 206.699219 112.574219 207.601562 112.425781 208.050781 C 112.351562 208.425781 112.050781 208.800781 111.675781 208.949219 C 111.226562 209.175781 110.476562 209.25 109.875 209.023438 C 109.050781 208.726562 108.523438 207.976562 107.398438 206.773438 C 104.101562 203.25 91.050781 187.726562 89.476562 184.726562 C 89.175781 184.050781 89.023438 183.75 89.175781 183.300781 C 89.25 182.773438 89.699219 181.949219 90.226562 181.800781 C 90.824219 181.5 92.851562 182.398438 92.851562 182.398438 " clip-rule="nonzero"/></clipPath></defs><path fill="#ff3131" d="M 165.34375 310.109375 C 165.34375 310.109375 167.804688 306.105469 172.105469 299.109375 C 174.246094 295.628906 176.726562 291.320312 179.582031 286.445312 C 182.402344 281.535156 185.453125 275.945312 188.601562 269.839844 C 191.789062 263.730469 194.753906 256.941406 197.523438 249.835938 C 198.128906 248.042969 198.839844 246.238281 199.386719 244.398438 C 199.871094 242.570312 200.371094 240.71875 200.871094 238.84375 C 201.164062 237 201.445312 235.152344 201.804688 233.296875 C 201.878906 231.71875 201.945312 230.121094 202.015625 228.511719 L 201.617188 225.242188 C 201.476562 224.167969 201.394531 222.914062 201.089844 222.292969 C 200.496094 220.707031 200.390625 219.347656 199.472656 217.4375 C 198.726562 215.636719 198.042969 213.820312 196.984375 212.003906 C 196.070312 210.183594 195.109375 208.347656 193.9375 206.503906 C 189.492188 199.171875 184.054688 191.757812 178.65625 183.988281 C 173.335938 176.160156 167.925781 167.945312 163.929688 158.714844 C 159.824219 149.632812 157.53125 139.035156 158.222656 129.074219 C 158.390625 126.878906 158.476562 124.820312 158.898438 122.285156 C 159.21875 119.855469 159.59375 117.476562 160.195312 115.296875 C 160.691406 113.054688 161.304688 110.886719 162.019531 108.785156 C 162.648438 106.648438 163.457031 104.652344 164.226562 102.660156 C 167.324219 94.726562 171.089844 88.078125 174.085938 81.917969 C 177.082031 75.753906 179.453125 70.035156 181.238281 64.765625 C 182.128906 62.136719 182.855469 59.632812 183.453125 57.289062 C 184.136719 54.957031 184.664062 52.78125 185.019531 50.789062 C 185.882812 46.820312 186.402344 43.648438 186.710938 41.46875 C 187.082031 39.289062 187.28125 38.121094 187.28125 38.121094 C 187.28125 38.121094 187.40625 39.292969 187.652344 41.488281 C 187.855469 43.691406 188.289062 46.933594 188.238281 51.097656 C 188.320312 53.183594 188.28125 55.496094 188.109375 58.019531 C 188.070312 60.558594 187.703125 63.269531 187.296875 66.183594 C 186.480469 71.988281 185.054688 78.578125 182.761719 85.390625 C 180.585938 92.246094 177.828125 99.332031 175.722656 106.59375 C 175.222656 108.417969 174.6875 110.261719 174.347656 112.128906 C 173.910156 113.988281 173.585938 115.875 173.375 117.792969 C 172.863281 121.738281 172.59375 124.933594 172.648438 129.625 L 172.648438 131.679688 L 172.644531 131.886719 C 172.648438 131.796875 172.640625 132.234375 172.648438 131.707031 L 172.660156 131.796875 L 172.75 132.496094 L 173.066406 135.285156 C 173.121094 137.15625 173.675781 139.027344 174.128906 140.90625 C 174.472656 142.792969 175.238281 144.664062 175.925781 146.546875 C 176.503906 148.445312 177.441406 150.316406 178.316406 152.203125 C 181.929688 159.730469 186.808594 167.207031 192.0625 174.757812 C 197.226562 182.375 202.84375 190.054688 207.609375 198.652344 C 208.839844 200.742188 209.960938 202.976562 210.996094 205.28125 C 212.109375 207.488281 212.953125 209.9375 213.785156 212.359375 C 214.707031 214.582031 215.234375 217.695312 215.8125 220.402344 C 216.167969 221.917969 216.125 222.898438 216.199219 224.019531 L 216.363281 227.308594 L 216.390625 228.335938 L 216.339844 228.816406 L 216.246094 229.78125 L 216.03125 231.707031 C 215.878906 232.976562 215.761719 234.261719 215.554688 235.488281 C 214.992188 237.839844 214.382812 240.160156 213.746094 242.417969 C 212.933594 244.546875 212.140625 246.652344 211.347656 248.746094 C 210.507812 250.773438 209.53125 252.683594 208.648438 254.617188 C 204.914062 262.1875 200.757812 268.832031 196.578125 274.640625 C 192.507812 280.539062 188.390625 285.613281 184.660156 290.007812 C 180.96875 294.445312 177.523438 298.097656 174.667969 301.078125 C 168.929688 307.03125 165.34375 310.109375 165.34375 310.109375 Z M 165.34375 310.109375 " fill-opacity="1" fill-rule="nonzero"/><path fill="#ff3131" d="M 85.863281 310.109375 C 85.863281 310.109375 87.769531 306.792969 91.109375 300.988281 C 94.378906 295.207031 99.097656 286.960938 103.996094 276.960938 C 106.492188 271.984375 108.789062 266.453125 110.890625 260.703125 C 111.339844 259.261719 111.898438 257.808594 112.328125 256.335938 C 112.707031 254.882812 113.085938 253.40625 113.472656 251.917969 C 113.707031 250.476562 113.933594 249.023438 114.164062 247.550781 C 114.203125 246.367188 114.242188 245.179688 114.28125 243.976562 L 113.9375 241.316406 C 113.816406 240.453125 113.742188 239.410156 113.488281 238.988281 C 113.011719 237.804688 112.953125 236.867188 112.214844 235.339844 C 111.621094 233.9375 111.074219 232.523438 110.226562 231.089844 C 109.5 229.664062 108.730469 228.199219 107.785156 226.738281 C 104.210938 220.902344 99.816406 214.898438 95.402344 208.578125 C 91.078125 202.199219 86.640625 195.460938 83.359375 187.8125 C 79.988281 180.296875 78.089844 171.394531 78.722656 163.078125 C 78.953125 159.847656 79.472656 155.242188 80.429688 151.707031 C 81.269531 148.007812 82.496094 144.523438 83.820312 141.300781 C 86.484375 134.8125 89.636719 129.457031 92.140625 124.515625 C 94.640625 119.570312 96.652344 115.011719 98.191406 110.789062 C 98.960938 108.683594 99.578125 106.671875 100.121094 104.785156 C 100.726562 102.90625 101.195312 101.152344 101.527344 99.546875 C 102.308594 96.347656 102.8125 93.773438 103.117188 92.011719 C 103.476562 90.242188 103.667969 89.300781 103.667969 89.300781 C 103.667969 89.300781 103.804688 90.25 104.058594 92.035156 C 104.269531 93.820312 104.707031 96.464844 104.75 99.859375 C 104.851562 101.566406 104.867188 103.453125 104.777344 105.519531 C 104.796875 107.601562 104.535156 109.820312 104.25 112.214844 C 103.675781 116.976562 102.609375 122.40625 100.804688 127.996094 C 99.117188 133.621094 96.972656 139.421875 95.402344 145.269531 C 94.660156 148.210938 93.925781 151.15625 93.625 154.207031 C 93.234375 157.375 93.074219 159.757812 93.136719 163.628906 C 93.242188 169.5625 94.847656 175.277344 97.726562 181.300781 C 100.621094 187.25 104.542969 193.253906 108.792969 199.355469 C 112.96875 205.523438 117.542969 211.789062 121.441406 218.882812 C 122.445312 220.609375 123.375 222.457031 124.226562 224.371094 C 125.128906 226.191406 125.832031 228.25 126.519531 230.269531 C 127.265625 232.105469 127.734375 234.804688 128.199219 237.101562 C 128.496094 238.40625 128.453125 239.183594 128.5 240.09375 L 128.609375 242.773438 L 128.636719 243.71875 L 128.59375 244.128906 L 128.503906 244.945312 L 128.320312 246.554688 C 128.183594 247.621094 128.078125 248.707031 127.898438 249.730469 C 127.414062 251.683594 126.894531 253.617188 126.363281 255.488281 C 125.691406 257.25 125.019531 258.988281 124.355469 260.710938 C 123.65625 262.390625 122.847656 263.953125 122.082031 265.523438 C 118.910156 271.695312 115.429688 277.066406 111.945312 281.765625 C 108.5625 286.527344 105.113281 290.597656 102 294.121094 C 98.921875 297.675781 96.03125 300.578125 93.648438 302.953125 C 88.875 307.691406 85.863281 310.109375 85.863281 310.109375 Z M 85.863281 310.109375 " fill-opacity="1" fill-rule="nonzero"/><path fill="#ff3131" d="M 257.46875 310.109375 C 257.46875 310.109375 259.378906 306.792969 262.714844 300.988281 C 265.980469 295.195312 270.703125 286.960938 275.605469 276.960938 C 278.101562 271.984375 280.402344 266.453125 282.503906 260.703125 C 282.953125 259.261719 283.511719 257.808594 283.9375 256.335938 C 284.320312 254.882812 284.699219 253.40625 285.085938 251.917969 C 285.316406 250.476562 285.546875 249.023438 285.773438 247.550781 C 285.816406 246.367188 285.855469 245.179688 285.890625 243.96875 L 285.546875 241.316406 C 285.425781 240.453125 285.347656 239.410156 285.097656 238.988281 C 284.625 237.804688 284.566406 236.867188 283.820312 235.339844 C 283.230469 233.9375 282.683594 232.523438 281.835938 231.089844 C 281.105469 229.664062 280.335938 228.199219 279.394531 226.738281 C 275.820312 220.902344 271.421875 214.898438 267.011719 208.578125 C 262.6875 202.199219 258.25 195.460938 254.96875 187.8125 C 251.589844 180.296875 249.699219 171.398438 250.332031 163.082031 C 250.5625 159.847656 251.078125 155.246094 252.039062 151.710938 C 252.878906 148.015625 254.105469 144.53125 255.429688 141.304688 C 258.097656 134.816406 261.246094 129.460938 263.746094 124.519531 C 266.25 119.574219 268.261719 115.019531 269.804688 110.792969 C 270.574219 108.6875 271.191406 106.675781 271.734375 104.789062 C 272.339844 102.914062 272.804688 101.15625 273.136719 99.550781 C 273.914062 96.351562 274.421875 93.777344 274.726562 92.015625 C 275.085938 90.246094 275.277344 89.304688 275.277344 89.304688 C 275.277344 89.304688 275.40625 90.253906 275.667969 92.039062 C 275.878906 93.828125 276.316406 96.46875 276.359375 99.867188 C 276.457031 101.574219 276.46875 103.457031 276.382812 105.523438 C 276.40625 107.609375 276.136719 109.824219 275.859375 112.21875 C 275.28125 116.980469 274.214844 122.414062 272.414062 128 C 270.722656 133.628906 268.578125 139.425781 267.011719 145.273438 C 266.273438 148.21875 265.539062 151.160156 265.238281 154.210938 C 264.847656 157.378906 264.6875 159.765625 264.75 163.632812 C 264.859375 169.5625 266.460938 175.28125 269.347656 181.300781 C 272.238281 187.25 276.15625 193.253906 280.414062 199.355469 C 284.585938 205.523438 289.15625 211.789062 293.054688 218.882812 C 294.0625 220.609375 294.992188 222.457031 295.832031 224.371094 C 296.742188 226.191406 297.445312 228.25 298.136719 230.269531 C 298.882812 232.097656 299.351562 234.804688 299.816406 237.101562 C 300.113281 238.40625 300.070312 239.183594 300.117188 240.09375 L 300.222656 242.773438 L 300.253906 243.71875 L 300.210938 244.128906 L 300.121094 244.945312 L 299.9375 246.554688 C 299.804688 247.621094 299.695312 248.707031 299.515625 249.730469 C 299.03125 251.683594 298.511719 253.617188 297.976562 255.488281 C 297.296875 257.25 296.628906 258.988281 295.972656 260.710938 C 295.273438 262.390625 294.460938 263.953125 293.699219 265.523438 C 290.527344 271.695312 287.046875 277.066406 283.554688 281.765625 C 280.171875 286.527344 276.730469 290.597656 273.605469 294.113281 C 270.53125 297.675781 267.644531 300.578125 265.253906 302.953125 C 260.480469 307.691406 257.46875 310.109375 257.46875 310.109375 Z M 257.46875 310.109375 " fill-opacity="1" fill-rule="nonzero"/><path fill="#ff3131" d="M 187.28125 374.695312 C 83.933594 374.695312 -0.144531 290.617188 -0.144531 187.277344 C -0.144531 83.933594 83.933594 -0.148438 187.28125 -0.148438 C 290.621094 -0.148438 374.699219 83.929688 374.699219 187.277344 C 374.699219 290.617188 290.621094 374.695312 187.28125 374.695312 Z M 187.28125 12.050781 C 90.664062 12.050781 12.054688 90.652344 12.054688 187.273438 C 12.054688 283.890625 90.664062 362.496094 187.28125 362.496094 C 283.894531 362.496094 362.496094 283.890625 362.496094 187.273438 C 362.496094 90.652344 283.894531 12.050781 187.28125 12.050781 Z M 187.28125 12.050781 " fill-opacity="1" fill-rule="nonzero"/><g clip-path="url(#d80db3142c)"><g clip-path="url(#04d26e68d0)"><path fill="#ff3131" d="M 86.175781 178.800781 L 115.5 178.800781 L 115.5 212.132812 L 86.175781 212.132812 Z M 86.175781 178.800781 " fill-opacity="1" fill-rule="nonzero"/></g></g></svg>