<svg xmlns="http://www.w3.org/2000/svg" xmlns:xlink="http://www.w3.org/1999/xlink" width="500" zoomAndPan="magnify" viewBox="0 0 375 374.999991" height="500" preserveAspectRatio="xMidYMid meet" version="1.0"><defs><clipPath id="af2e39d33e"><path d="M 187.5 248 L 324 248 L 324 374.933594 L 187.5 374.933594 Z M 187.5 248 " clip-rule="nonzero"/></clipPath><clipPath id="cf156c75e1"><path d="M 0 0 L 237.375 0 L 237.375 285 L 0 285 Z M 0 0 " clip-rule="nonzero"/></clipPath></defs><g clip-path="url(#af2e39d33e)"><path fill="#0cc0df" d="M 222.871094 248.65625 L 187.664062 287.792969 L 201.339844 286.726562 C 201.339844 286.726562 199.867188 309.40625 210.261719 328.648438 C 220.660156 347.890625 230.652344 353.949219 235.890625 358.289062 C 241.128906 362.628906 258.242188 372.863281 283.707031 373.925781 C 309.167969 374.992188 323.90625 364.835938 323.90625 364.835938 L 315.390625 348.21875 C 315.390625 348.21875 295.742188 358.941406 275.191406 355.09375 C 254.640625 351.246094 249.398438 344.941406 243.097656 340.847656 C 236.710938 336.753906 220.5 316.285156 219.433594 294.832031 L 225.984375 300.8125 Z M 222.871094 248.65625 " fill-opacity="1" fill-rule="nonzero"/></g><path fill="#0cc0df" d="M 339.628906 340.847656 L 374.835938 301.710938 L 361.160156 302.777344 C 361.160156 302.777344 362.632812 280.097656 352.238281 260.855469 C 341.839844 241.613281 331.929688 235.472656 326.691406 231.132812 C 321.449219 226.796875 304.339844 216.5625 278.875 215.496094 C 253.414062 214.433594 238.59375 224.585938 238.59375 224.585938 L 247.109375 241.285156 C 247.109375 241.285156 266.757812 230.5625 287.308594 234.410156 C 307.859375 238.257812 313.101562 244.480469 319.402344 248.65625 C 325.789062 252.75 342 273.21875 343.066406 294.671875 L 336.515625 288.691406 Z M 339.628906 340.847656 " fill-opacity="1" fill-rule="nonzero"/><g clip-path="url(#cf156c75e1)"><path fill="#0cc0df" d="M 16.640625 276.824219 L 16.640625 178.859375 C 37.402344 213.738281 75.507812 237.320312 118.695312 237.320312 C 183.789062 237.320312 237.355469 183.757812 237.355469 118.660156 C 237.355469 53.5625 183.789062 0 118.695312 0 C 53.597656 0 0.03125 53.5625 0.03125 118.660156 L 0.03125 276.824219 C 0.03125 281.378906 3.78125 285.128906 8.335938 285.128906 C 12.890625 285.128906 16.640625 281.378906 16.640625 276.824219 Z M 58.273438 179.082031 C 55.050781 175.859375 55.050781 170.558594 58.273438 167.339844 L 69.34375 156.269531 C 72.566406 153.046875 77.867188 153.046875 81.085938 156.269531 C 84.308594 159.488281 84.308594 164.789062 81.085938 168.011719 L 70.015625 179.082031 C 66.792969 182.304688 61.492188 182.304688 58.273438 179.082031 Z M 118.695312 204.109375 C 114.140625 204.109375 110.390625 200.359375 110.390625 195.804688 L 110.390625 180.148438 C 110.390625 175.59375 114.140625 171.84375 118.695312 171.84375 C 123.25 171.84375 126.996094 175.59375 126.996094 180.148438 L 126.996094 195.804688 C 126.996094 200.359375 123.25 204.109375 118.695312 204.109375 Z M 168.042969 156.269531 L 179.117188 167.339844 C 182.335938 170.558594 182.335938 175.859375 179.117188 179.082031 C 175.894531 182.304688 170.59375 182.304688 167.371094 179.082031 L 156.300781 168.011719 C 153.082031 164.789062 153.082031 159.488281 156.300781 156.269531 C 159.523438 153.046875 164.824219 153.046875 168.042969 156.269531 Z M 195.839844 110.355469 C 200.421875 110.355469 204.144531 114.078125 204.144531 118.660156 C 204.144531 123.25 200.421875 126.964844 195.839844 126.964844 L 180.183594 126.964844 C 175.59375 126.964844 171.882812 123.25 171.882812 118.660156 C 171.882812 114.078125 175.59375 110.355469 180.183594 110.355469 Z M 179.117188 58.238281 C 182.335938 61.460938 182.335938 66.761719 179.117188 69.980469 L 168.042969 81.054688 C 164.824219 84.273438 159.523438 84.273438 156.300781 81.054688 C 153.082031 77.832031 153.082031 72.53125 156.300781 69.3125 L 167.371094 58.238281 C 170.59375 55.019531 175.894531 55.019531 179.117188 58.238281 Z M 118.695312 33.210938 C 123.25 33.210938 126.996094 36.960938 126.996094 41.515625 L 126.996094 57.171875 C 126.996094 61.726562 123.25 65.476562 118.695312 65.476562 C 114.140625 65.476562 110.390625 61.726562 110.390625 57.171875 L 110.390625 41.515625 C 110.390625 36.960938 114.140625 33.210938 118.695312 33.210938 Z M 69.34375 81.054688 L 58.273438 69.980469 C 55.050781 66.761719 55.050781 61.460938 58.273438 58.238281 C 61.496094 55.019531 66.792969 55.019531 70.015625 58.238281 L 81.085938 69.3125 C 84.308594 72.53125 84.308594 77.832031 81.085938 81.054688 C 77.867188 84.273438 72.566406 84.273438 69.34375 81.054688 Z M 118.695312 82.214844 C 138.6875 82.214844 155.140625 98.667969 155.140625 118.660156 C 155.140625 138.65625 138.6875 155.105469 118.695312 155.105469 C 98.699219 155.105469 82.25 138.65625 82.25 118.660156 C 82.25 98.667969 98.699219 82.214844 118.695312 82.214844 Z M 41.550781 110.355469 L 57.203125 110.355469 C 61.761719 110.355469 65.507812 114.105469 65.507812 118.660156 C 65.507812 123.214844 61.761719 126.964844 57.203125 126.964844 L 41.550781 126.964844 C 36.996094 126.964844 33.246094 123.214844 33.246094 118.660156 C 33.246094 114.105469 36.996094 110.355469 41.550781 110.355469 Z M 41.550781 110.355469 " fill-opacity="1" fill-rule="nonzero"/></g></svg>