<svg xmlns="http://www.w3.org/2000/svg" xmlns:xlink="http://www.w3.org/1999/xlink" width="500" zoomAndPan="magnify" viewBox="0 0 375 374.999991" height="500" preserveAspectRatio="xMidYMid meet" version="1.0"><defs><clipPath id="48e53cb175"><path d="M 187.5 248 L 324 248 L 324 374.933594 L 187.5 374.933594 Z M 187.5 248 " clip-rule="nonzero"/></clipPath><clipPath id="e3184ff66e"><path d="M 0.0703125 0.0351562 L 228.070312 0.0351562 L 228.070312 259.535156 L 0.0703125 259.535156 Z M 0.0703125 0.0351562 " clip-rule="nonzero"/></clipPath></defs><g clip-path="url(#48e53cb175)"><path fill="#0cc0df" d="M 222.871094 248.65625 L 187.664062 287.792969 L 201.339844 286.726562 C 201.339844 286.726562 199.867188 309.40625 210.261719 328.648438 C 220.660156 347.890625 230.652344 353.949219 235.890625 358.289062 C 241.128906 362.628906 258.242188 372.863281 283.707031 373.925781 C 309.167969 374.992188 323.90625 364.835938 323.90625 364.835938 L 315.390625 348.21875 C 315.390625 348.21875 295.742188 358.941406 275.191406 355.09375 C 254.640625 351.246094 249.398438 344.941406 243.097656 340.847656 C 236.710938 336.753906 220.5 316.285156 219.433594 294.832031 L 225.984375 300.8125 Z M 222.871094 248.65625 " fill-opacity="1" fill-rule="nonzero"/></g><path fill="#0cc0df" d="M 339.628906 340.847656 L 374.835938 301.710938 L 361.160156 302.777344 C 361.160156 302.777344 362.632812 280.097656 352.238281 260.855469 C 341.839844 241.613281 331.929688 235.472656 326.691406 231.132812 C 321.449219 226.796875 304.339844 216.5625 278.875 215.496094 C 253.414062 214.433594 238.59375 224.585938 238.59375 224.585938 L 247.109375 241.285156 C 247.109375 241.285156 266.757812 230.5625 287.308594 234.410156 C 307.859375 238.257812 313.101562 244.480469 319.402344 248.65625 C 325.789062 252.75 342 273.21875 343.066406 294.671875 L 336.515625 288.691406 Z M 339.628906 340.847656 " fill-opacity="1" fill-rule="nonzero"/><path fill="#0cc0df" d="M 104.335938 222.835938 C 111.117188 226.226562 119.960938 228.089844 129.238281 228.089844 C 138.519531 228.089844 147.363281 226.226562 154.140625 222.835938 C 162.597656 218.609375 167.25 212.375 167.25 205.28125 C 167.25 198.195312 162.597656 191.960938 154.140625 187.734375 C 147.363281 184.34375 138.519531 182.476562 129.238281 182.476562 C 119.960938 182.476562 111.117188 184.34375 104.335938 187.734375 C 95.882812 191.960938 91.226562 198.195312 91.226562 205.28125 C 91.226562 212.375 95.882812 218.609375 104.335938 222.835938 Z M 111.136719 201.335938 C 115.777344 199.011719 122.375 197.679688 129.238281 197.679688 C 136.105469 197.679688 142.703125 199.011719 147.34375 201.335938 C 151.230469 203.273438 152.046875 205.023438 152.046875 205.28125 C 152.046875 205.546875 151.230469 207.292969 147.34375 209.234375 C 142.703125 211.558594 136.105469 212.882812 129.238281 212.882812 C 122.375 212.882812 115.777344 211.558594 111.136719 209.234375 C 107.25 207.292969 106.433594 205.546875 106.433594 205.28125 C 106.433594 205.023438 107.25 203.273438 111.136719 201.335938 Z M 111.136719 201.335938 " fill-opacity="1" fill-rule="nonzero"/><g clip-path="url(#e3184ff66e)"><path fill="#0cc0df" d="M 59.316406 45.632812 C 57.273438 46.722656 55.304688 47.855469 53.433594 49.042969 C 38.585938 58.476562 30.410156 70.761719 30.410156 83.644531 C 30.410156 94.4375 35.957031 104.625 46.488281 113.25 C 47.234375 116.121094 48.445312 118.933594 50.101562 121.632812 C 47.703125 125.515625 46.246094 129.628906 45.78125 133.886719 C 45.78125 133.917969 45.773438 133.949219 45.773438 133.976562 C 45.136719 139.980469 46.476562 145.859375 49.671875 151.34375 L 49.683594 151.335938 C 49.820312 151.570312 49.960938 151.804688 50.105469 152.039062 C 47.148438 156.820312 45.613281 161.945312 45.613281 167.269531 C 45.613281 170.015625 46.03125 172.722656 46.851562 175.375 C 36.144531 184 30.410156 194.292969 30.410156 205.28125 C 30.410156 220.519531 41.363281 234.554688 61.25 244.804688 C 79.660156 254.292969 103.804688 259.515625 129.238281 259.515625 C 154.675781 259.515625 178.824219 254.292969 197.230469 244.804688 C 217.117188 234.554688 228.070312 220.519531 228.070312 205.28125 C 228.070312 194.292969 222.332031 184 211.628906 175.375 C 212.449219 172.722656 212.863281 170.015625 212.863281 167.269531 C 212.863281 161.945312 211.328125 156.820312 208.375 152.039062 C 208.515625 151.804688 208.65625 151.570312 208.796875 151.335938 L 208.804688 151.339844 C 212.277344 145.386719 213.460938 139.105469 212.589844 132.984375 C 212.574219 132.890625 212.554688 132.792969 212.539062 132.699219 C 211.953125 128.863281 210.550781 125.15625 208.378906 121.632812 C 210.035156 118.933594 211.246094 116.121094 211.988281 113.25 C 222.519531 104.625 228.070312 94.4375 228.070312 83.644531 C 228.070312 69.984375 218.980469 57.136719 202.476562 47.476562 C 188.234375 39.140625 168.953125 33.453125 147.925781 31.351562 C 139.230469 12.523438 120.898438 0.0195312 99.816406 0.0195312 L 0 0.0195312 L 0 45.632812 Z M 48.816406 93.585938 C 46.902344 90.628906 45.613281 87.285156 45.613281 83.644531 C 45.613281 76.152344 51.289062 68.417969 61.585938 61.875 C 72.480469 54.953125 87.792969 49.839844 104.917969 47.355469 C 106.296875 48.503906 107.285156 50.152344 107.609375 52.074219 C 108.25 55.867188 108.996094 58.882812 109.992188 62.003906 C 79.882812 65.691406 56.941406 77.773438 48.816406 93.585938 Z M 197.183594 140.191406 C 194.027344 137.820312 190.429688 135.609375 186.398438 133.597656 C 171.003906 125.898438 150.703125 121.65625 129.238281 121.65625 C 107.777344 121.65625 87.476562 125.898438 72.082031 133.597656 C 68.050781 135.609375 64.449219 137.820312 61.296875 140.191406 C 60.917969 138.859375 60.761719 137.484375 60.839844 136.191406 C 60.839844 136.183594 60.839844 136.171875 60.84375 136.160156 C 61.738281 121.960938 89.574219 106.453125 129.238281 106.453125 C 141.320312 106.453125 152.296875 107.894531 161.757812 110.292969 C 162.15625 110.410156 162.550781 110.527344 162.949219 110.632812 C 174.417969 113.683594 191.113281 120.578125 196.273438 131.222656 C 197.703125 134.167969 198.054688 137.121094 197.183594 140.191406 Z M 197.628906 166.476562 C 197.46875 166.394531 197.3125 166.3125 197.148438 166.230469 C 178.882812 157.097656 154.765625 152.066406 129.238281 152.066406 C 103.714844 152.066406 79.597656 157.097656 61.332031 166.230469 C 61.167969 166.3125 61.011719 166.394531 60.851562 166.476562 C 61.859375 152.304688 89.660156 136.859375 129.238281 136.859375 C 168.820312 136.859375 196.621094 152.304688 197.628906 166.476562 Z M 72.082031 103.183594 C 68.050781 105.203125 64.449219 107.410156 61.296875 109.78125 C 60.980469 108.667969 60.816406 107.558594 60.816406 106.453125 C 60.816406 94.105469 82.039062 79.59375 116.636719 76.59375 C 119.773438 81.777344 123.617188 86.617188 128.109375 90.988281 C 128.203125 91.082031 128.300781 91.167969 128.398438 91.257812 C 107.246094 91.371094 87.277344 95.589844 72.082031 103.183594 Z M 212.863281 205.28125 C 212.863281 214.410156 204.628906 223.886719 190.265625 231.289062 C 173.96875 239.683594 152.296875 244.308594 129.238281 244.308594 C 106.183594 244.308594 84.507812 239.683594 68.214844 231.289062 C 53.851562 223.886719 45.613281 214.410156 45.613281 205.28125 C 45.613281 196.265625 53.820312 186.984375 68.132812 179.832031 C 84.328125 171.730469 106.027344 167.269531 129.238281 167.269531 C 152.449219 167.269531 174.152344 171.730469 190.347656 179.832031 C 204.660156 186.984375 212.863281 196.265625 212.863281 205.28125 Z M 212.863281 83.644531 C 212.863281 87.277344 211.589844 90.609375 209.683594 93.558594 C 203.703125 81.832031 189.535156 72.050781 169.320312 66.214844 C 157.234375 62.722656 153.976562 56.371094 152.636719 47.257812 C 152.636719 47.246094 152.632812 47.234375 152.628906 47.222656 C 187.042969 52.035156 212.863281 67.292969 212.863281 83.644531 Z M 15.203125 15.222656 L 99.816406 15.171875 C 118.785156 15.171875 134.671875 29.628906 137.59375 49.472656 C 140.046875 66.148438 148.789062 76.109375 165.101562 80.820312 C 184.882812 86.535156 197.660156 96.59375 197.660156 106.453125 C 197.660156 107.558594 197.503906 108.667969 197.183594 109.785156 C 188.460938 103.226562 177.394531 98.738281 166.847656 95.9375 C 145.203125 90.171875 126.601562 73.191406 122.601562 49.539062 C 120.726562 38.46875 111.308594 30.429688 100.207031 30.429688 L 15.203125 30.480469 Z M 15.203125 15.222656 " fill-opacity="1" fill-rule="nonzero"/></g></svg>