<svg xmlns="http://www.w3.org/2000/svg" xmlns:xlink="http://www.w3.org/1999/xlink" width="500" zoomAndPan="magnify" viewBox="0 0 375 374.999991" height="500" preserveAspectRatio="xMidYMid meet" version="1.0"><defs><filter x="0%" y="0%" width="100%" height="100%" id="3ec4c64d0e"><feColorMatrix values="0 0 0 0 1 0 0 0 0 1 0 0 0 0 1 0 0 0 1 0" color-interpolation-filters="sRGB"/></filter><clipPath id="d85f674d18"><path d="M 0 74.671875 L 375 74.671875 L 375 289.171875 L 0 289.171875 Z M 0 74.671875 " clip-rule="nonzero"/></clipPath><mask id="7024d02466"><g filter="url(#3ec4c64d0e)"><rect x="-37.5" width="450" fill="#000000" y="-37.499999" height="449.999989" fill-opacity="0.76"/></g></mask><clipPath id="06b5533bf8"><path d="M 0 0 L 375 0 L 375 375 L 0 375 Z M 0 0 " clip-rule="nonzero"/></clipPath><clipPath id="424ce85a54"><rect x="0" width="375" y="0" height="375"/></clipPath></defs><g clip-path="url(#d85f674d18)"><path fill="#00bf63" d="M 350.773438 127.226562 L 350.773438 86.054688 C 350.773438 79.902344 345.75 74.878906 339.601562 74.878906 L 305.023438 74.878906 C 298.875 74.878906 293.851562 79.902344 293.851562 86.054688 C 293.851562 87.402344 292.800781 88.453125 291.449219 88.453125 L 109.5 88.453125 C 108.148438 88.453125 107.101562 87.402344 107.101562 86.054688 C 107.101562 79.902344 102.074219 74.878906 95.925781 74.878906 L 61.273438 74.878906 C 55.125 74.878906 50.101562 79.902344 50.101562 86.054688 L 50.101562 168.628906 L 37.949219 168.628906 L 37.949219 161.878906 C 37.949219 159.476562 36 157.453125 33.523438 157.453125 L 4.425781 157.453125 C 2.023438 157.453125 0 159.402344 0 161.878906 L 0 202.152344 C 0 204.554688 1.949219 206.578125 4.425781 206.578125 L 33.523438 206.578125 C 35.925781 206.578125 37.949219 204.628906 37.949219 202.152344 L 37.949219 195.402344 L 50.175781 195.402344 L 50.175781 277.976562 C 50.175781 284.128906 55.199219 289.152344 61.351562 289.152344 L 95.925781 289.152344 C 102.074219 289.152344 107.101562 284.128906 107.101562 277.976562 C 107.101562 276.628906 108.148438 275.578125 109.5 275.578125 L 291.449219 275.578125 C 292.800781 275.578125 293.851562 276.628906 293.851562 277.976562 C 293.851562 284.128906 298.875 289.152344 305.023438 289.152344 L 339.601562 289.152344 C 345.75 289.152344 350.773438 284.128906 350.773438 277.976562 L 350.773438 236.804688 C 364.5 234.628906 375 222.777344 375 208.527344 L 375 155.503906 C 375 141.179688 364.5 129.328125 350.773438 127.226562 Z M 29.101562 197.726562 L 8.773438 197.726562 L 8.773438 166.226562 L 29.101562 166.226562 Z M 50.101562 186.554688 L 37.949219 186.554688 L 37.949219 177.402344 L 50.175781 177.402344 L 50.175781 186.554688 Z M 342 277.902344 C 342 279.253906 340.949219 280.304688 339.601562 280.304688 L 305.023438 280.304688 C 303.675781 280.304688 302.625 279.253906 302.625 277.902344 C 302.625 271.753906 297.601562 266.726562 291.449219 266.726562 L 109.5 266.726562 C 103.351562 266.726562 98.324219 271.753906 98.324219 277.902344 C 98.324219 279.253906 97.273438 280.304688 95.925781 280.304688 L 61.273438 280.304688 C 59.925781 280.304688 58.875 279.253906 58.875 277.902344 L 58.875 86.054688 C 58.875 84.703125 59.925781 83.652344 61.273438 83.652344 L 95.851562 83.652344 C 97.199219 83.652344 98.25 84.703125 98.25 86.054688 C 98.25 92.203125 103.273438 97.226562 109.425781 97.226562 L 291.375 97.226562 C 297.523438 97.226562 302.550781 92.203125 302.550781 86.054688 C 302.550781 84.703125 303.601562 83.652344 304.949219 83.652344 L 339.523438 83.652344 C 340.875 83.652344 341.925781 84.703125 341.925781 86.054688 L 341.925781 277.902344 Z M 366.226562 208.527344 C 366.226562 217.976562 359.625 225.851562 350.773438 227.804688 L 350.773438 136.152344 C 359.625 138.179688 366.226562 146.054688 366.226562 155.429688 Z M 178.648438 183.101562 C 178.050781 181.378906 178.574219 179.429688 180 178.226562 L 215.699219 148.828125 C 217.574219 147.253906 220.351562 147.554688 221.851562 149.429688 C 223.425781 151.304688 223.125 154.078125 221.25 155.578125 L 195 177.253906 L 218.476562 177.253906 C 220.351562 177.253906 222 178.378906 222.601562 180.101562 C 223.199219 181.828125 222.75 183.777344 221.324219 184.976562 L 185.625 215.128906 C 184.800781 215.804688 183.824219 216.179688 182.773438 216.179688 C 181.5 216.179688 180.300781 215.652344 179.398438 214.601562 C 177.824219 212.726562 178.050781 209.953125 179.925781 208.378906 L 206.476562 185.878906 L 182.773438 185.878906 C 180.898438 185.953125 179.25 184.828125 178.648438 183.101562 Z M 298.199219 109.679688 L 102.675781 109.679688 C 100.273438 109.679688 98.25 111.628906 98.25 114.101562 L 98.25 249.929688 C 98.25 252.328125 100.199219 254.351562 102.675781 254.351562 L 298.199219 254.351562 C 300.601562 254.351562 302.625 252.402344 302.625 249.929688 L 302.625 114.101562 C 302.625 111.628906 300.601562 109.679688 298.199219 109.679688 Z M 107.101562 145.601562 L 157.199219 145.601562 C 152.699219 151.003906 149.175781 157.226562 146.925781 163.976562 L 107.175781 163.976562 L 107.175781 145.601562 Z M 200.476562 134.203125 C 226.800781 134.203125 248.25 155.652344 248.25 181.976562 C 248.25 208.304688 226.800781 229.753906 200.476562 229.753906 C 174.148438 229.753906 152.699219 208.304688 152.699219 181.976562 C 152.699219 155.652344 174.074219 134.203125 200.476562 134.203125 Z M 107.101562 172.828125 L 144.675781 172.828125 C 144.148438 175.828125 143.851562 178.902344 143.851562 181.976562 C 143.851562 185.128906 144.148438 188.203125 144.675781 191.128906 L 107.101562 191.128906 Z M 107.101562 199.976562 L 146.851562 199.976562 C 149.101562 206.726562 152.625 212.953125 157.125 218.351562 L 107.023438 218.351562 L 107.023438 199.976562 Z M 293.851562 245.503906 L 107.101562 245.503906 L 107.101562 227.128906 L 166.5 227.128906 C 175.949219 234.253906 187.726562 238.601562 200.476562 238.601562 C 213.226562 238.601562 225 234.328125 234.449219 227.128906 L 293.851562 227.128906 Z M 293.851562 218.351562 L 243.75 218.351562 C 248.25 212.953125 251.773438 206.726562 254.023438 199.976562 L 293.773438 199.976562 L 293.773438 218.351562 Z M 293.851562 191.203125 L 256.273438 191.203125 C 256.800781 188.203125 257.101562 185.128906 257.101562 182.054688 C 257.101562 178.902344 256.800781 175.828125 256.273438 172.902344 L 293.851562 172.902344 Z M 293.851562 163.976562 L 254.101562 163.976562 C 251.851562 157.226562 248.324219 151.003906 243.824219 145.601562 L 293.925781 145.601562 L 293.925781 163.976562 Z M 293.851562 136.828125 L 234.449219 136.828125 C 225 129.703125 213.226562 125.351562 200.476562 125.351562 C 187.726562 125.351562 175.949219 129.628906 166.5 136.828125 L 107.101562 136.828125 L 107.101562 118.453125 L 293.851562 118.453125 Z M 293.851562 136.828125 " fill-opacity="1" fill-rule="nonzero"/></g><g mask="url(#7024d02466)"><g transform="matrix(1, 0, 0, 1, 0, 0)"><g clip-path="url(#424ce85a54)"><g clip-path="url(#06b5533bf8)"><path fill="#ff5757" d="M 187.503906 21.007812 C 95.699219 21.007812 21.011719 95.695312 21.011719 187.5 C 21.011719 279.304688 95.699219 353.992188 187.503906 353.992188 C 279.3125 353.992188 353.996094 279.304688 353.996094 187.5 C 353.996094 95.695312 279.3125 21.007812 187.503906 21.007812 Z M 187.503906 375.003906 C 162.195312 375.003906 137.640625 370.042969 114.515625 360.265625 C 92.1875 350.820312 72.136719 337.300781 54.917969 320.085938 C 37.703125 302.871094 24.183594 282.816406 14.738281 260.488281 C 4.957031 237.363281 0 212.808594 0 187.5 C 0 162.191406 4.957031 137.636719 14.738281 114.511719 C 24.183594 92.179688 37.703125 72.132812 54.917969 54.914062 C 72.136719 37.699219 92.1875 24.179688 114.515625 14.734375 C 137.640625 4.957031 162.195312 -0.00390625 187.503906 -0.00390625 C 212.8125 -0.00390625 237.367188 4.957031 260.496094 14.734375 C 282.820312 24.179688 302.875 37.699219 320.089844 54.914062 C 337.308594 72.132812 350.824219 92.179688 360.269531 114.511719 C 370.050781 137.636719 375.011719 162.191406 375.011719 187.5 C 375.011719 212.808594 370.050781 237.363281 360.269531 260.488281 C 350.824219 282.816406 337.308594 302.871094 320.089844 320.085938 C 302.875 337.300781 282.820312 350.820312 260.496094 360.265625 C 237.367188 370.042969 212.8125 375.003906 187.503906 375.003906 " fill-opacity="1" fill-rule="nonzero"/></g><path fill="#ff5757" d="M 279.324219 339.6875 L 76.472656 49.332031 L 93.695312 37.296875 L 296.546875 327.65625 L 279.324219 339.6875 " fill-opacity="1" fill-rule="nonzero"/></g></g></g></svg>