<svg xmlns="http://www.w3.org/2000/svg" xmlns:xlink="http://www.w3.org/1999/xlink" width="1024" zoomAndPan="magnify" viewBox="0 0 768 767.999994" height="1024" preserveAspectRatio="xMidYMid meet" version="1.0"><defs><clipPath id="678fdb88de"><path d="M 537.601562 374.121094 L 768 374.121094 L 768 768 L 537.601562 768 Z M 537.601562 374.121094 " clip-rule="nonzero"/></clipPath><clipPath id="f54dc1bbf0"><path d="M 652.800781 768 L 537.601562 652.800781 L 595.199219 652.800781 L 595.199219 374.121094 L 710.398438 374.121094 L 710.398438 652.800781 L 768 652.800781 Z M 652.800781 768 " clip-rule="nonzero"/></clipPath></defs><path fill="#ffbd59" d="M 682.398438 81.050781 L 682.398438 80.261719 C 670.59375 64.523438 656.429688 51.148438 639.90625 38.558594 L 639.90625 39.34375 C 626.527344 49.574219 613.152344 60.589844 600.5625 71.605469 C 595.054688 68.460938 590.332031 66.097656 585.609375 63.738281 C 579.316406 60.589844 573.019531 57.441406 565.9375 55.867188 C 563.578125 55.082031 561.21875 54.296875 558.855469 54.296875 C 557.28125 36.984375 555.710938 19.671875 553.347656 2.359375 C 545.480469 0.785156 537.609375 0.785156 528.953125 0 L 516.363281 0 C 508.496094 0.785156 501.414062 0.785156 494.332031 2.359375 C 491.972656 18.886719 490.398438 36.195312 489.609375 53.507812 C 486.464844 53.507812 484.101562 54.296875 480.953125 55.082031 C 480.167969 55.082031 479.382812 55.082031 478.59375 55.867188 C 472.300781 57.441406 466.003906 60.589844 459.710938 63.738281 C 454.199219 66.097656 449.480469 68.460938 444.757812 71.605469 C 431.382812 60.589844 418.792969 50.359375 405.414062 39.34375 L 404.628906 38.558594 C 401.480469 40.917969 398.332031 43.277344 395.972656 45.640625 C 390.464844 49.574219 385.742188 54.296875 381.808594 59.015625 C 374.726562 65.3125 369.21875 73.179688 362.921875 81.050781 L 363.710938 81.050781 C 373.9375 94.425781 384.953125 107.015625 395.972656 120.394531 C 392.824219 125.113281 389.675781 130.621094 387.316406 135.34375 C 384.167969 141.640625 381.808594 148.722656 380.234375 155.015625 C 378.660156 158.164062 377.875 161.3125 377.875 163.671875 C 360.5625 165.246094 343.25 166.820312 326.726562 169.179688 C 325.152344 177.050781 324.363281 184.917969 324.363281 193.574219 C 324.363281 205.378906 325.152344 217.179688 327.511719 228.195312 C 344.035156 229.769531 360.5625 231.34375 377.875 232.917969 C 377.875 236.066406 378.660156 239.214844 380.234375 241.574219 C 381.808594 248.65625 384.167969 254.949219 387.316406 262.03125 C 390.464844 267.539062 392.824219 273.050781 396.757812 277.769531 C 385.742188 291.148438 374.726562 303.738281 364.496094 317.113281 C 376.300781 333.640625 390.464844 347.804688 406.988281 359.605469 L 406.988281 358.820312 C 419.578125 348.589844 432.957031 337.574219 445.546875 326.558594 L 446.332031 326.558594 C 450.265625 328.917969 454.988281 331.277344 458.921875 333.640625 C 466.003906 336.785156 473.875 339.933594 480.957031 341.507812 C 484.101562 342.296875 486.464844 343.082031 488.824219 343.867188 C 490.398438 360.394531 491.972656 377.703125 494.332031 395.015625 C 501.414062 395.804688 508.496094 396.589844 516.363281 396.589844 L 528.167969 396.589844 C 536.824219 396.589844 545.480469 395.804688 554.136719 394.230469 C 555.710938 377.703125 557.28125 360.394531 558.855469 343.082031 C 561.21875 342.296875 563.578125 341.507812 565.9375 340.722656 C 573.019531 339.148438 579.316406 336.785156 585.609375 333.640625 C 591.117188 331.277344 596.628906 328.132812 602.136719 324.195312 C 602.136719 324.984375 602.136719 324.984375 602.921875 324.984375 C 615.511719 336 628.890625 347.015625 642.265625 357.246094 C 644.628906 355.671875 646.988281 354.097656 650.136719 351.738281 C 654.855469 347.804688 659.578125 343.082031 663.511719 338.359375 C 670.59375 331.277344 677.675781 323.410156 683.972656 314.753906 C 672.953125 301.378906 661.9375 288 650.921875 275.410156 L 650.921875 274.621094 C 653.28125 270.6875 655.644531 265.96875 658.003906 261.246094 C 660.363281 254.949219 663.511719 248.65625 665.085938 242.359375 C 665.085938 241.574219 665.085938 240.785156 665.875 240.785156 C 665.875 237.640625 666.660156 235.277344 667.445312 233.703125 C 684.757812 232.132812 702.070312 230.558594 718.59375 228.984375 C 720.167969 221.113281 720.167969 213.246094 720.953125 205.378906 L 720.953125 192 C 720.167969 184.132812 720.167969 176.261719 718.59375 168.394531 C 702.070312 166.820312 684.757812 165.246094 667.445312 163.671875 C 666.660156 161.3125 665.875 158.949219 665.875 156.589844 C 663.511719 149.507812 661.152344 142.425781 658.003906 135.34375 C 655.644531 130.621094 652.496094 125.113281 650.136719 120.394531 C 660.363281 107.804688 671.382812 94.425781 682.398438 81.050781 Z M 472.300781 146.359375 C 486.464844 131.410156 503.773438 124.328125 523.445312 125.113281 C 543.90625 124.328125 560.429688 131.410156 575.382812 146.359375 C 589.546875 160.523438 596.628906 177.835938 596.628906 197.507812 C 596.628906 217.96875 589.546875 234.492188 575.382812 249.441406 C 560.429688 263.605469 543.90625 270.6875 523.445312 270.6875 C 503.773438 270.6875 486.464844 263.605469 472.300781 249.441406 C 458.136719 234.492188 451.054688 217.96875 451.054688 197.507812 C 451.054688 177.835938 458.136719 160.523438 472.300781 146.359375 Z M 472.300781 146.359375 " fill-opacity="1" fill-rule="nonzero"/><path fill="#ffbd59" d="M 524.234375 135.34375 C 506.921875 135.34375 492.757812 141.640625 480.167969 153.441406 C 468.363281 166.03125 462.070312 180.195312 462.070312 197.507812 C 462.070312 214.820312 468.363281 228.984375 480.167969 241.574219 C 492.757812 254.164062 506.921875 260.460938 524.234375 260.460938 C 541.546875 260.460938 555.710938 254.164062 568.300781 241.574219 C 580.890625 228.984375 586.398438 214.820312 586.398438 197.507812 C 586.398438 180.195312 580.890625 166.03125 568.300781 153.441406 C 555.710938 141.640625 541.546875 135.34375 524.234375 135.34375 Z M 491.183594 164.460938 C 500.628906 155.804688 511.644531 151.082031 524.234375 151.082031 C 536.824219 151.082031 547.839844 155.804688 557.28125 164.460938 C 566.726562 173.902344 570.660156 184.132812 570.660156 197.507812 C 570.660156 210.886719 566.726562 221.902344 557.28125 230.558594 C 547.839844 240 536.824219 244.722656 524.234375 244.722656 C 511.644531 244.722656 500.628906 240 491.183594 230.558594 C 482.527344 221.902344 477.808594 210.886719 477.808594 197.507812 C 477.808594 184.917969 482.527344 173.902344 491.183594 164.460938 Z M 491.183594 164.460938 " fill-opacity="1" fill-rule="nonzero"/><path fill="#ffbd59" d="M 322.003906 264.394531 C 318.855469 262.820312 316.496094 262.03125 314.136719 262.03125 C 304.691406 259.671875 295.25 258.097656 285.808594 256.523438 C 277.152344 277.769531 270.070312 298.230469 262.988281 318.6875 L 248.824219 318.6875 C 239.382812 319.476562 230.726562 320.261719 222.070312 321.835938 C 214.988281 322.621094 207.90625 324.984375 200.824219 327.34375 C 188.234375 309.246094 174.855469 291.148438 162.265625 273.835938 L 161.480469 273.050781 C 156.757812 274.621094 152.035156 276.195312 148.101562 278.558594 C 140.234375 281.703125 133.152344 285.640625 126.070312 290.359375 C 115.054688 295.867188 104.824219 302.949219 95.382812 311.605469 L 95.382812 312.394531 C 104.824219 332.066406 113.480469 351.738281 122.921875 371.410156 C 117.414062 376.917969 112.691406 381.640625 107.972656 387.933594 C 101.675781 394.230469 96.167969 402.097656 91.445312 409.96875 C 89.085938 413.113281 87.511719 416.261719 85.9375 420.195312 C 63.90625 416.261719 41.875 412.328125 19.839844 409.179688 C 15.90625 418.621094 11.972656 428.066406 8.824219 438.296875 C 5.675781 454.03125 2.527344 468.984375 0.953125 483.933594 L 62.332031 507.539062 L 62.332031 518.558594 C 62.332031 527.214844 63.117188 536.65625 65.480469 546.097656 C 66.265625 553.96875 68.628906 561.835938 70.988281 569.703125 C 52.890625 582.296875 35.578125 594.886719 17.480469 608.261719 C 26.921875 631.867188 40.300781 653.902344 56.035156 674.359375 L 56.824219 674.359375 C 76.496094 664.917969 96.167969 656.261719 116.628906 646.820312 C 121.347656 651.539062 126.070312 655.476562 130.792969 660.195312 C 137.875 666.492188 146.527344 672 155.972656 677.507812 C 158.332031 679.082031 161.480469 680.65625 164.628906 683.015625 C 160.691406 704.261719 157.546875 726.296875 154.398438 748.328125 C 163.054688 752.261719 171.710938 755.410156 181.152344 757.769531 C 183.511719 758.558594 188.234375 760.132812 196.101562 761.703125 C 207.117188 764.851562 218.136719 766.425781 228.363281 768 C 237.019531 746.753906 244.890625 726.296875 251.972656 705.050781 L 262.199219 705.050781 C 271.644531 705.050781 280.300781 704.261719 288.953125 702.6875 C 296.824219 701.113281 304.691406 698.753906 312.5625 696.394531 C 312.5625 696.394531 312.5625 697.179688 313.347656 697.179688 C 325.9375 715.277344 339.316406 733.375 351.90625 751.476562 C 355.839844 749.113281 359.773438 747.539062 362.921875 745.96875 C 370.792969 742.820312 377.875 738.886719 384.953125 734.949219 C 396.757812 727.867188 407.773438 720 418.003906 711.34375 C 409.347656 690.886719 399.90625 671.214844 390.464844 650.753906 C 395.183594 646.03125 399.117188 641.3125 403.839844 636.589844 C 409.347656 629.507812 414.855469 621.640625 419.578125 614.558594 C 419.578125 613.769531 420.363281 612.984375 420.363281 612.195312 C 421.9375 609.835938 423.511719 606.6875 425.085938 604.328125 C 447.117188 608.261719 469.152344 611.410156 491.183594 615.34375 C 495.117188 605.902344 498.265625 596.457031 501.414062 586.230469 C 502.199219 583.867188 502.988281 581.507812 503.773438 578.359375 C 504.5625 576 504.5625 573.640625 506.136719 570.492188 C 507.710938 560.261719 510.070312 550.03125 510.855469 540.589844 C 490.398438 531.933594 469.152344 524.851562 448.691406 516.984375 L 448.691406 507.539062 C 448.691406 498.097656 447.90625 487.867188 445.546875 478.425781 C 444.757812 471.34375 442.398438 464.261719 440.824219 457.179688 C 458.921875 444.589844 477.019531 431.214844 494.332031 417.835938 L 495.117188 417.835938 C 485.675781 394.230469 473.085938 372.195312 455.773438 351.738281 C 435.316406 360.394531 415.644531 369.835938 395.972656 379.277344 C 390.464844 373.769531 384.953125 368.261719 379.445312 363.539062 C 372.363281 358.03125 365.28125 352.523438 357.414062 348.589844 C 355.054688 346.230469 351.90625 344.65625 349.546875 343.082031 C 352.691406 321.050781 356.628906 299.015625 359.773438 276.984375 C 350.332031 273.050781 340.101562 269.113281 329.875 265.96875 C 327.511719 265.179688 324.363281 264.394531 322.003906 264.394531 Z M 175.644531 558.6875 C 162.265625 535.867188 159.117188 512.261719 166.199219 487.082031 C 172.496094 461.902344 187.445312 443.015625 210.265625 429.640625 C 232.300781 417.050781 256.691406 413.902344 281.085938 420.195312 C 306.265625 427.277344 325.9375 441.441406 338.527344 464.261719 C 351.90625 487.082031 355.054688 510.6875 347.972656 535.867188 C 341.675781 561.050781 326.726562 579.933594 304.691406 592.523438 C 281.085938 605.902344 257.480469 609.050781 233.085938 601.96875 C 207.90625 595.671875 188.234375 580.722656 175.644531 558.6875 Z M 175.644531 558.6875 " fill-opacity="1" fill-rule="nonzero"/><path fill="#ffbd59" d="M 180.363281 491.015625 C 174.070312 512.261719 176.429688 532.722656 187.445312 551.605469 L 188.234375 551.605469 C 199.25 571.277344 215.773438 583.082031 237.019531 589.378906 C 258.265625 594.886719 278.726562 592.523438 298.398438 581.507812 C 318.070312 569.703125 329.875 553.96875 336.167969 532.722656 L 336.167969 531.933594 C 341.675781 510.6875 338.527344 490.230469 327.511719 471.34375 C 316.496094 451.671875 299.972656 439.082031 278.726562 433.574219 C 257.480469 427.277344 236.234375 430.425781 217.347656 441.441406 C 197.675781 452.460938 185.875 468.984375 180.363281 491.015625 Z M 227.578125 459.539062 C 242.527344 450.886719 257.480469 448.523438 273.21875 453.246094 C 288.953125 457.179688 301.546875 466.621094 310.199219 481.574219 C 318.855469 495.738281 320.429688 511.476562 316.496094 527.214844 C 311.773438 542.949219 302.332031 555.539062 288.167969 563.410156 L 288.167969 564.195312 C 273.21875 572.066406 258.265625 574.425781 242.527344 569.703125 C 226.003906 565.769531 214.199219 556.328125 205.546875 541.378906 C 197.675781 527.214844 195.316406 512.261719 199.25 495.738281 C 203.972656 480 213.414062 468.195312 227.578125 459.539062 Z M 227.578125 459.539062 " fill-opacity="1" fill-rule="nonzero"/><g clip-path="url(#678fdb88de)"><g clip-path="url(#f54dc1bbf0)"><path fill="#ffbd59" d="M 537.601562 374.121094 L 768 374.121094 L 768 768.320312 L 537.601562 768.320312 Z M 537.601562 374.121094 " fill-opacity="1" fill-rule="nonzero"/></g></g></svg>