<svg xmlns="http://www.w3.org/2000/svg" xmlns:xlink="http://www.w3.org/1999/xlink" width="500" zoomAndPan="magnify" viewBox="0 0 375 374.999991" height="500" preserveAspectRatio="xMidYMid meet" version="1.0"><defs><clipPath id="a5d3f53e18"><path d="M 49.5 166.046875 L 86.863281 166.046875 L 86.863281 188.292969 L 49.5 188.292969 Z M 49.5 166.046875 " clip-rule="nonzero"/></clipPath><clipPath id="df10a2b282"><path d="M 67.875 166.199219 C 80.851562 171.300781 84.148438 171.074219 85.5 172.351562 C 86.476562 173.324219 87.074219 175.050781 86.699219 176.175781 C 86.25 177.449219 84 178.050781 81.601562 179.175781 C 76.875 181.574219 61.800781 188.773438 59.023438 188.101562 C 58.273438 187.949219 57.898438 187.273438 57.824219 186.75 C 57.75 186.148438 57.976562 185.398438 58.648438 184.648438 C 60.675781 182.476562 72.601562 176.25 75.675781 176.25 C 76.800781 176.324219 77.625 176.851562 77.925781 177.449219 C 78.148438 177.976562 77.851562 178.949219 77.398438 179.550781 C 76.800781 180.449219 75.148438 181.125 73.800781 181.648438 C 72.449219 182.324219 71.324219 182.699219 69.449219 183.074219 C 66.523438 183.75 60.75 184.273438 57.75 184.351562 C 55.875 184.351562 54.523438 184.351562 53.175781 183.898438 C 51.824219 183.375 50.023438 182.476562 49.648438 181.574219 C 49.425781 180.898438 49.800781 180 50.398438 179.398438 C 51.148438 178.425781 52.800781 177.601562 54.824219 177 C 58.273438 176.023438 65.023438 175.800781 69.601562 175.800781 C 73.648438 175.800781 78.976562 176.023438 80.925781 176.699219 C 81.675781 177 82.125 177.300781 82.351562 177.75 C 82.5 178.199219 82.5 179.023438 82.273438 179.476562 C 81.976562 179.925781 81.300781 180.449219 80.773438 180.375 C 80.175781 180.375 78.824219 179.175781 78.75 178.574219 C 78.75 177.976562 80.101562 176.699219 80.699219 176.699219 C 81.300781 176.699219 82.351562 177.523438 82.425781 178.125 C 82.574219 178.726562 81.898438 179.925781 81 180.375 C 79.050781 181.273438 73.875 179.398438 69.75 179.324219 C 64.875 179.25 53.476562 180.226562 53.476562 180.375 C 53.476562 180.449219 60.449219 180.601562 63.148438 180.375 C 65.101562 180.226562 66.449219 180.074219 68.324219 179.550781 C 70.574219 178.875 73.949219 176.324219 75.675781 176.25 C 76.574219 176.25 77.324219 176.625 77.699219 177 C 78 177.375 78.148438 177.898438 78.074219 178.351562 C 77.925781 178.875 77.699219 179.25 77.023438 179.851562 C 74.851562 181.726562 62.851562 188.476562 59.925781 188.25 C 58.875 188.101562 57.976562 187.351562 57.824219 186.75 C 57.675781 186.074219 58.199219 185.25 59.101562 184.351562 C 62.175781 181.574219 82.273438 172.199219 84.226562 173.398438 C 84.75 173.773438 84.75 175.351562 84.226562 175.726562 C 82.726562 176.851562 68.699219 171.898438 66.375 169.875 C 65.476562 169.050781 65.101562 168.148438 65.25 167.476562 C 65.324219 166.949219 66 166.351562 66.523438 166.199219 C 66.976562 165.976562 67.875 166.199219 67.875 166.199219 " clip-rule="nonzero"/></clipPath></defs><path fill="#ff3131" d="M 196.632812 0.265625 C 143.09375 0.265625 123.058594 48.003906 136.539062 102.667969 L 243.4375 209.191406 C 259.722656 213.121094 277.320312 221.359375 286.121094 238.582031 C 308.210938 282.953125 375.046875 281.082031 375.046875 196.835938 C 375.046875 129.8125 300.535156 115.023438 231.269531 152.464844 C 225.277344 144.976562 217.414062 139.175781 208.429688 135.429688 C 211.984375 118.019531 220.222656 98.363281 238.757812 89.191406 C 282.9375 67.097656 280.878906 0.265625 196.632812 0.265625 Z M 24.027344 37.707031 L 0.0625 61.484375 L 46.304688 107.535156 C 22.902344 107.722656 0.0625 128.878906 0.0625 178.113281 C 0.0625 244.949219 74.199219 259.550781 143.277344 222.484375 C 149.269531 229.972656 157.320312 235.960938 166.492188 239.707031 C 162.75 256.929688 154.511719 276.398438 136.164062 285.574219 C 91.984375 307.664062 93.667969 374.683594 177.914062 374.683594 C 220.972656 374.683594 242.3125 343.980469 242.3125 303.730469 L 313.265625 374.683594 L 337.042969 350.722656 Z M 24.027344 37.707031 " fill-opacity="1" fill-rule="nonzero"/><g clip-path="url(#a5d3f53e18)"><g clip-path="url(#df10a2b282)"><path fill="#e7191f" d="M 46.648438 163.199219 L 89.710938 163.199219 L 89.710938 191.25 L 46.648438 191.25 Z M 46.648438 163.199219 " fill-opacity="1" fill-rule="nonzero"/></g></g></svg>