<svg xmlns="http://www.w3.org/2000/svg" xmlns:xlink="http://www.w3.org/1999/xlink" width="500" zoomAndPan="magnify" viewBox="0 0 375 374.999991" height="500" preserveAspectRatio="xMidYMid meet" version="1.0"><defs><clipPath id="b17ff79f6a"><path d="M 59.027344 171.210938 L 79.933594 171.210938 L 79.933594 195.757812 L 59.027344 195.757812 Z M 59.027344 171.210938 " clip-rule="nonzero"/></clipPath><clipPath id="e8b60b9a7b"><path d="M 72.601562 172.5 C 76.5 184.648438 76.875 185.699219 76.800781 186.898438 C 76.726562 188.023438 76.351562 189.148438 75.75 190.050781 C 75.148438 190.949219 74.476562 191.699219 73.351562 192.226562 C 71.550781 192.976562 67.648438 193.273438 65.550781 193.050781 C 63.976562 192.898438 62.699219 192.449219 61.648438 191.699219 C 60.675781 191.023438 59.625 190.050781 59.324219 189 C 58.875 187.949219 59.023438 186.375 59.476562 185.25 C 60 184.050781 61.273438 182.925781 62.476562 182.101562 C 63.824219 181.199219 65.476562 180.675781 67.351562 180.226562 C 69.675781 179.625 73.574219 179.023438 75.601562 179.476562 C 76.949219 179.699219 78.074219 180.300781 78.75 181.199219 C 79.5 182.25 79.949219 183.898438 79.875 185.324219 C 79.800781 186.675781 78.976562 188.324219 78.074219 189.601562 C 77.175781 190.875 75.898438 192 74.625 192.898438 C 73.351562 193.800781 71.699219 194.398438 70.199219 194.851562 C 68.851562 195.300781 67.425781 195.675781 66.148438 195.675781 C 65.023438 195.601562 63.375 195.601562 62.851562 194.773438 C 62.175781 193.875 62.550781 191.101562 63.449219 189.898438 C 64.425781 188.476562 67.726562 186.898438 69 187.050781 C 69.675781 187.125 70.273438 187.726562 70.5 188.25 C 70.726562 188.773438 70.648438 189.675781 70.351562 190.125 C 70.050781 190.648438 69.300781 191.101562 68.699219 191.101562 C 68.175781 191.101562 67.351562 190.726562 66.976562 190.273438 C 66.675781 189.824219 66.523438 188.925781 66.675781 188.398438 C 66.898438 187.875 67.574219 187.199219 68.101562 187.050781 C 68.773438 186.976562 70.050781 187.5 70.425781 188.023438 C 70.726562 188.550781 70.800781 189.375 70.5 189.976562 C 69.898438 190.875 65.398438 191.773438 65.476562 191.925781 C 65.550781 192.074219 67.648438 191.699219 68.773438 191.398438 C 69.898438 191.101562 71.023438 190.800781 72.074219 190.050781 C 73.5 189.074219 75.824219 186.824219 76.050781 185.476562 C 76.273438 184.648438 76.050781 183.601562 75.375 183.148438 C 74.25 182.476562 70.574219 183.375 68.699219 183.824219 C 67.273438 184.199219 66.074219 184.5 65.101562 185.25 C 64.273438 185.925781 63 187.5 63.226562 188.101562 C 63.375 188.699219 64.648438 188.925781 65.699219 189.148438 C 67.125 189.375 69.824219 189.449219 71.101562 188.925781 C 72 188.550781 72.824219 188.25 73.050781 187.273438 C 73.726562 184.949219 68.175781 176.175781 68.550781 173.550781 C 68.699219 172.425781 69.449219 171.449219 70.125 171.300781 C 70.800781 171.074219 72.601562 172.5 72.601562 172.5 " clip-rule="nonzero"/></clipPath></defs><path fill="#00bf63" d="M 233.433594 191.21875 C 233.433594 192.699219 233.359375 194.175781 233.214844 195.648438 C 233.070312 197.121094 232.855469 198.582031 232.566406 200.035156 C 232.277344 201.484375 231.917969 202.917969 231.488281 204.335938 C 231.058594 205.75 230.5625 207.144531 229.996094 208.507812 C 229.429688 209.875 228.796875 211.210938 228.097656 212.519531 C 227.402344 213.824219 226.640625 215.089844 225.820312 216.320312 C 224.996094 217.550781 224.117188 218.738281 223.179688 219.882812 C 222.238281 221.027344 221.246094 222.121094 220.199219 223.167969 C 219.152344 224.214844 218.058594 225.207031 216.914062 226.144531 C 215.773438 227.082031 214.585938 227.964844 213.355469 228.785156 C 212.125 229.609375 210.855469 230.367188 209.550781 231.066406 C 208.246094 231.761719 206.910156 232.394531 205.542969 232.960938 C 204.175781 233.527344 202.785156 234.027344 201.367188 234.457031 C 199.953125 234.882812 198.519531 235.242188 197.066406 235.53125 C 195.617188 235.820312 194.152344 236.039062 192.679688 236.183594 C 191.207031 236.328125 189.734375 236.402344 188.253906 236.402344 C 186.773438 236.402344 185.296875 236.328125 183.824219 236.183594 C 182.351562 236.039062 180.890625 235.820312 179.4375 235.53125 C 177.988281 235.242188 176.554688 234.882812 175.136719 234.457031 C 173.722656 234.027344 172.332031 233.527344 170.964844 232.960938 C 169.597656 232.394531 168.261719 231.761719 166.953125 231.066406 C 165.648438 230.367188 164.382812 229.609375 163.152344 228.785156 C 161.921875 227.964844 160.734375 227.082031 159.589844 226.144531 C 158.445312 225.207031 157.351562 224.214844 156.304688 223.167969 C 155.257812 222.121094 154.265625 221.027344 153.328125 219.882812 C 152.390625 218.738281 151.507812 217.550781 150.6875 216.320312 C 149.863281 215.089844 149.105469 213.824219 148.40625 212.519531 C 147.710938 211.214844 147.078125 209.875 146.511719 208.511719 C 145.945312 207.144531 145.449219 205.75 145.019531 204.335938 C 144.589844 202.917969 144.230469 201.484375 143.941406 200.035156 C 143.652344 198.582031 143.433594 197.121094 143.289062 195.648438 C 143.144531 194.175781 143.074219 192.699219 143.074219 191.21875 C 143.074219 189.738281 143.144531 188.265625 143.289062 186.792969 C 143.433594 185.320312 143.652344 183.855469 143.941406 182.40625 C 144.230469 180.953125 144.589844 179.519531 145.019531 178.105469 C 145.449219 176.6875 145.945312 175.296875 146.511719 173.929688 C 147.078125 172.5625 147.710938 171.226562 148.40625 169.921875 C 149.105469 168.617188 149.863281 167.347656 150.6875 166.117188 C 151.507812 164.886719 152.390625 163.703125 153.328125 162.558594 C 154.265625 161.414062 155.257812 160.320312 156.304688 159.273438 C 157.351562 158.226562 158.445312 157.234375 159.589844 156.292969 C 160.734375 155.355469 161.921875 154.476562 163.152344 153.652344 C 164.382812 152.832031 165.648438 152.070312 166.953125 151.375 C 168.261719 150.675781 169.597656 150.042969 170.964844 149.476562 C 172.332031 148.910156 173.722656 148.414062 175.136719 147.984375 C 176.554688 147.554688 177.988281 147.195312 179.4375 146.90625 C 180.890625 146.617188 182.351562 146.402344 183.824219 146.257812 C 185.296875 146.113281 186.773438 146.039062 188.253906 146.039062 C 189.734375 146.039062 191.207031 146.113281 192.679688 146.257812 C 194.152344 146.402344 195.617188 146.617188 197.066406 146.90625 C 198.519531 147.195312 199.953125 147.554688 201.367188 147.984375 C 202.785156 148.414062 204.175781 148.910156 205.542969 149.476562 C 206.910156 150.042969 208.246094 150.675781 209.550781 151.375 C 210.855469 152.070312 212.125 152.832031 213.355469 153.652344 C 214.585938 154.476562 215.773438 155.355469 216.914062 156.292969 C 218.058594 157.234375 219.152344 158.226562 220.199219 159.273438 C 221.246094 160.320312 222.238281 161.414062 223.179688 162.558594 C 224.117188 163.703125 224.996094 164.886719 225.820312 166.117188 C 226.640625 167.347656 227.402344 168.617188 228.097656 169.921875 C 228.796875 171.226562 229.429688 172.5625 229.996094 173.929688 C 230.5625 175.296875 231.058594 176.6875 231.488281 178.105469 C 231.917969 179.519531 232.277344 180.953125 232.566406 182.40625 C 232.855469 183.855469 233.070312 185.320312 233.214844 186.792969 C 233.359375 188.265625 233.433594 189.738281 233.433594 191.21875 Z M 233.433594 191.21875 " fill-opacity="1" fill-rule="nonzero"/><path fill="#00bf63" d="M 128.011719 191.21875 C 128.011719 182.5 129.953125 174.261719 133.3125 166.777344 C 97.785156 151.460938 85.136719 134.308594 75.574219 121.25 C 67.652344 110.421875 60.796875 101.070312 45.089844 101.070312 C 36.460938 101.070312 24.441406 104.488281 16.175781 120.769531 C 0.707031 151.234375 7.546875 211.097656 23.945312 233.523438 C 31.507812 243.871094 42.546875 249.804688 56.761719 251.175781 C 58.824219 251.371094 60.917969 251.476562 63.058594 251.476562 C 87.875 251.476562 116.898438 238.539062 138.207031 224.699219 C 131.777344 215.105469 128.011719 203.597656 128.011719 191.21875 Z M 128.011719 191.21875 " fill-opacity="1" fill-rule="nonzero"/><path fill="#00bf63" d="M 188.253906 130.980469 C 197.046875 130.980469 205.347656 132.980469 212.890625 136.386719 C 228.207031 100.859375 245.363281 88.207031 258.433594 78.644531 C 269.261719 70.707031 278.613281 63.871094 278.613281 48.148438 C 278.613281 39.519531 275.195312 27.5 258.914062 19.230469 C 228.402344 3.75 168.585938 10.601562 146.160156 27.003906 C 135.828125 34.546875 129.894531 45.574219 128.523438 59.773438 C 126.007812 85.753906 139.894531 117.996094 154.863281 141.128906 C 164.441406 134.742188 175.902344 130.980469 188.253906 130.980469 Z M 188.253906 130.980469 " fill-opacity="1" fill-rule="nonzero"/><path fill="#00bf63" d="M 352.546875 149.125 C 345 138.78125 333.960938 132.847656 319.742188 131.492188 C 293.960938 129.050781 261.582031 142.921875 238.375 157.90625 C 244.742188 167.453125 248.492188 178.902344 248.492188 191.21875 C 248.492188 200 246.507812 208.296875 243.117188 215.828125 C 278.691406 231.144531 291.371094 248.328125 300.933594 261.402344 C 308.871094 272.230469 315.707031 281.582031 331.414062 281.582031 C 340.046875 281.582031 352.078125 278.164062 360.347656 261.867188 C 375.796875 231.402344 368.960938 171.550781 352.546875 149.125 Z M 352.546875 149.125 " fill-opacity="1" fill-rule="nonzero"/><path fill="#00bf63" d="M 188.253906 251.460938 C 179.472656 251.460938 171.175781 249.472656 163.644531 246.085938 C 148.328125 281.65625 131.144531 294.335938 118.074219 303.902344 C 107.242188 311.835938 97.890625 318.675781 97.890625 334.382812 C 97.890625 343.011719 101.308594 355.03125 117.589844 363.296875 C 129.488281 369.335938 145.828125 371.972656 162.695312 371.972656 C 189.050781 371.972656 216.65625 365.527344 230.347656 355.511719 C 240.691406 347.96875 246.625 336.925781 247.980469 322.710938 C 250.480469 296.703125 236.597656 264.441406 221.597656 241.324219 C 212.046875 247.710938 200.585938 251.460938 188.253906 251.460938 Z M 188.253906 251.460938 " fill-opacity="1" fill-rule="nonzero"/><g clip-path="url(#b17ff79f6a)"><g clip-path="url(#e8b60b9a7b)"><path fill="#00bf63" d="M 56.324219 168.300781 L 82.949219 168.300781 L 82.949219 198.667969 L 56.324219 198.667969 Z M 56.324219 168.300781 " fill-opacity="1" fill-rule="nonzero"/></g></g></svg>