<svg xmlns="http://www.w3.org/2000/svg" xmlns:xlink="http://www.w3.org/1999/xlink" width="500" zoomAndPan="magnify" viewBox="0 0 375 374.999991" height="500" preserveAspectRatio="xMidYMid meet" version="1.0"><defs><clipPath id="0a55fcdff6"><path d="M 26.375 370.578125 L 27.851562 370.578125 L 27.851562 371.800781 L 26.375 371.800781 Z M 26.375 370.578125 " clip-rule="nonzero"/></clipPath><clipPath id="bd2f67df3a"><path d="M 27.824219 371.023438 C 27.148438 372 26.550781 371.851562 26.476562 371.625 C 26.324219 371.398438 26.398438 370.800781 26.625 370.648438 C 26.851562 370.5 27.601562 370.726562 27.601562 370.726562 " clip-rule="nonzero"/></clipPath></defs><path fill="#ff3131" d="M 196.632812 0.265625 C 143.09375 0.265625 123.058594 48.003906 136.539062 102.667969 L 243.4375 209.191406 C 259.722656 213.121094 277.320312 221.359375 286.121094 238.582031 C 308.210938 282.953125 375.046875 281.082031 375.046875 196.835938 C 375.046875 129.8125 300.535156 115.023438 231.269531 152.464844 C 225.277344 144.976562 217.414062 139.175781 208.429688 135.429688 C 211.984375 118.019531 220.222656 98.363281 238.757812 89.191406 C 282.9375 67.097656 280.878906 0.265625 196.632812 0.265625 Z M 24.027344 37.707031 L 0.0625 61.484375 L 46.304688 107.535156 C 22.902344 107.722656 0.0625 128.878906 0.0625 178.113281 C 0.0625 244.949219 74.199219 259.550781 143.277344 222.484375 C 149.269531 229.972656 157.320312 235.960938 166.492188 239.707031 C 162.75 256.929688 154.511719 276.398438 136.164062 285.574219 C 91.984375 307.664062 93.667969 374.683594 177.914062 374.683594 C 220.972656 374.683594 242.3125 343.980469 242.3125 303.730469 L 313.265625 374.683594 L 337.042969 350.722656 Z M 24.027344 37.707031 " fill-opacity="1" fill-rule="nonzero"/><g clip-path="url(#0a55fcdff6)"><g clip-path="url(#bd2f67df3a)"><path fill="#0571d3" d="M 23.476562 367.648438 L 30.890625 367.648438 L 30.890625 374.925781 L 23.476562 374.925781 Z M 23.476562 367.648438 " fill-opacity="1" fill-rule="nonzero"/></g></g></svg>