<svg xmlns="http://www.w3.org/2000/svg" xmlns:xlink="http://www.w3.org/1999/xlink" width="500" zoomAndPan="magnify" viewBox="0 0 375 374.999991" height="500" preserveAspectRatio="xMidYMid meet" version="1.0"><defs><clipPath id="7ffa74a028"><path d="M 143.558594 146.40625 L 159 146.40625 L 159 169.449219 L 143.558594 169.449219 Z M 143.558594 146.40625 " clip-rule="nonzero"/></clipPath><clipPath id="fe6eb32f40"><path d="M 159 149.476562 C 145.949219 169.574219 145.199219 169.574219 144.601562 169.351562 C 144.148438 169.125 143.699219 168.601562 143.625 167.925781 C 143.324219 166.574219 144.148438 163.875 145.199219 161.625 C 146.699219 158.476562 150.074219 153.074219 152.625 151.125 C 154.273438 149.851562 157.050781 148.726562 157.648438 149.25 C 158.175781 149.699219 157.5 151.949219 157.050781 152.925781 C 156.75 153.824219 156.375 154.273438 155.699219 155.101562 C 154.351562 156.824219 151.199219 160.949219 149.398438 161.773438 C 148.5 162.300781 147.449219 162.375 146.851562 162.074219 C 146.324219 161.851562 145.875 161.023438 145.875 160.425781 C 145.875 159.75 146.699219 158.550781 147.300781 158.324219 C 147.824219 158.023438 148.800781 158.25 149.25 158.625 C 149.699219 159 150.148438 159.824219 150.074219 160.425781 C 150 161.023438 149.023438 162.148438 148.425781 162.375 C 147.824219 162.523438 146.925781 162.226562 146.550781 161.773438 C 146.101562 161.324219 145.800781 160.273438 146.101562 159.300781 C 146.773438 157.125 153.226562 150 154.574219 150.300781 C 155.25 150.523438 155.625 152.476562 155.324219 153.675781 C 154.949219 155.398438 152.101562 157.199219 150.824219 159.523438 C 149.175781 162.226562 148.351562 168 146.773438 169.050781 C 146.023438 169.574219 144.75 169.5 144.226562 169.125 C 143.773438 168.75 143.550781 168 143.699219 166.949219 C 144.148438 163.726562 153.074219 149.925781 155.398438 147.523438 C 156.074219 146.851562 156.449219 146.550781 156.976562 146.476562 C 157.5 146.398438 158.101562 146.476562 158.398438 146.851562 C 158.851562 147.300781 159 149.476562 159 149.476562 " clip-rule="nonzero"/></clipPath></defs><path stroke-linecap="butt" transform="matrix(0.749731, 0, 0, 0.75, -57.065932, -57.210579)" fill="none" stroke-linejoin="miter" d="M 404.670729 557.942232 C 410.735406 551.062024 416.742772 544.343273 422.698036 537.780773 C 430.607126 529.025565 436.260198 521.645357 439.652041 515.63494 C 447.915425 500.97869 454.803315 482.119315 452.979743 465.22869 C 450.801878 445.280773 444.7372 426.874523 434.780499 410.00994 C 431.409497 404.312023 430.45082 404.687023 431.909677 411.140148 C 434.28553 421.593273 432.717259 431.869315 427.204862 441.973482 C 427.043346 442.280773 426.814097 442.515148 426.506695 442.681815 C 426.204503 442.848482 425.87626 442.91619 425.527177 442.88494 C 425.183303 442.85369 424.870691 442.733898 424.58934 442.515148 C 424.313199 442.301607 424.115211 442.025565 424.000587 441.69744 C 417.623297 423.650565 408.854523 410.046398 397.704685 400.88494 C 384.845901 390.29119 371.075331 384.54119 365.95891 367.47869 C 363.562216 359.57244 362.494124 350.54119 362.754635 340.38494 C 363.749784 302.280773 359.211696 264.535981 323.157082 243.687023 C 322.787157 243.483898 322.401602 243.437023 321.995206 243.551606 C 320.942745 243.843273 320.83333 244.35369 321.661753 245.07244 C 332.483347 254.437023 337.459092 266.077648 336.594199 279.994315 C 334.577849 312.483898 293.761109 330.483898 273.274585 350.19744 C 243.612892 378.770357 232.275487 415.593273 239.262371 460.66619 C 239.319683 461.051607 239.179008 461.35369 238.845555 461.562023 C 238.512102 461.770357 238.178649 461.765148 237.855616 461.551607 C 219.85436 449.494315 213.21656 432.624523 207.131041 413.051607 C 205.953535 409.270357 205.172004 409.343273 204.781239 413.270357 C 201.686377 443.723482 205.05738 472.681815 214.904666 500.150565 C 218.551809 510.327648 224.44455 520.463065 232.572469 530.567232 C 241.492339 541.608898 251.620976 551.97869 262.958381 561.671399 " stroke="#f57621" stroke-width="2" stroke-opacity="1" stroke-miterlimit="4"/><path stroke-linecap="butt" transform="matrix(0.749731, 0, 0, 0.75, -57.065932, -57.210579)" fill="none" stroke-linejoin="miter" d="M 371.82039 568.890149 C 393.093654 555.140149 405.999331 537.176607 410.532208 514.999523 C 413.408241 500.968273 413.861529 487.171398 411.886862 473.60369 C 410.782298 465.973482 409.453696 465.937023 407.906265 473.494315 C 406.046222 482.489107 401.695702 490.546398 394.854704 497.660982 C 392.405908 500.223482 391.296134 499.733898 391.535803 496.19744 C 393.270801 469.85369 384.580181 448.343273 365.463941 431.660982 C 349.312307 417.556815 323.902141 411.66619 320.499877 386.973482 C 319.697506 381.306815 321.969155 375.640148 325.121329 371.077648 C 328.4767 366.265148 327.794163 365.593273 323.073718 369.056815 C 311.017305 377.905773 306.510479 396.681815 307.203436 410.94744 C 307.719246 421.530773 307.875552 431.733898 307.672354 441.556815 C 307.31285 458.838065 291.083064 463.348482 282.897833 476.067232 C 279.412206 481.483898 276.739371 487.145357 274.879328 493.04119 C 273.238114 498.317232 271.492695 498.35369 269.653493 493.155773 C 267.809081 488.030773 266.839983 482.801607 266.746199 477.473482 C 266.709728 475.280773 266.240809 475.192232 265.339444 477.19744 C 256.075701 497.744315 252.949578 520.19744 265.667687 540.35369 C 272.857769 551.744315 284.997545 562.577649 302.087015 572.843274 " stroke="#fcc021" stroke-width="2" stroke-opacity="1" stroke-miterlimit="4"/><path fill="#ef5922" d="M 246.328125 361.246094 C 250.875 356.085938 255.378906 351.046875 259.84375 346.125 C 265.773438 339.558594 270.011719 334.023438 272.554688 329.515625 C 278.75 318.523438 283.914062 304.378906 282.546875 291.710938 C 280.914062 276.75 276.367188 262.945312 268.902344 250.296875 C 266.375 246.023438 265.65625 246.304688 266.75 251.144531 C 268.53125 258.984375 267.355469 266.691406 263.222656 274.269531 C 263.101562 274.5 262.929688 274.675781 262.699219 274.800781 C 262.472656 274.925781 262.226562 274.976562 261.964844 274.953125 C 261.707031 274.929688 261.46875 274.839844 261.261719 274.675781 C 261.054688 274.515625 260.90625 274.308594 260.820312 274.0625 C 256.039062 260.527344 249.464844 250.324219 241.105469 243.453125 C 231.464844 235.507812 221.140625 231.195312 217.304688 218.398438 C 215.507812 212.46875 214.707031 205.695312 214.902344 198.078125 C 215.648438 169.5 212.246094 141.191406 185.214844 125.554688 C 184.9375 125.402344 184.648438 125.367188 184.34375 125.453125 C 183.554688 125.671875 183.472656 126.054688 184.09375 126.59375 C 192.207031 133.617188 195.9375 142.347656 195.289062 152.785156 C 193.777344 177.152344 163.175781 190.652344 147.816406 205.4375 C 125.578125 226.867188 117.078125 254.484375 122.316406 288.289062 C 122.359375 288.578125 122.253906 288.804688 122.003906 288.960938 C 121.753906 289.117188 121.503906 289.113281 121.261719 288.953125 C 107.765625 279.910156 102.789062 267.257812 98.226562 252.578125 C 97.34375 249.742188 96.757812 249.796875 96.464844 252.742188 C 94.144531 275.582031 96.671875 297.300781 104.054688 317.902344 C 106.789062 325.535156 111.207031 333.136719 117.300781 340.714844 C 123.988281 348.996094 131.582031 356.773438 140.082031 364.042969 C 131.445312 360.933594 123.691406 356.953125 116.824219 352.097656 C 92.871094 335.230469 76.351562 313.492188 67.257812 286.878906 C 63.371094 275.511719 60.816406 261.972656 59.585938 246.25 C 57.761719 223.078125 59.027344 200.117188 63.378906 177.359375 C 64.085938 173.625 64.746094 173.640625 65.371094 177.402344 C 66.019531 181.410156 66.691406 185.523438 67.378906 189.738281 C 69.972656 205.75 78.015625 226.28125 91.800781 236.277344 C 92.015625 236.433594 92.257812 236.523438 92.523438 236.546875 C 92.785156 236.570312 93.039062 236.527344 93.277344 236.410156 C 93.519531 236.296875 93.710938 236.128906 93.859375 235.90625 C 94.007812 235.6875 94.089844 235.441406 94.101562 235.175781 C 94.363281 229.050781 94.515625 222.78125 94.558594 216.367188 C 94.828125 170.140625 120.78125 126.054688 162.078125 102.285156 C 180.945312 91.421875 200.367188 79.621094 212.019531 61.390625 C 224.625 41.667969 220.269531 21.574219 207.210938 3.738281 C 205.425781 1.320312 205.808594 0.917969 208.351562 2.535156 C 222.238281 11.390625 231.984375 29.597656 235.714844 44.59375 C 240.179688 62.59375 241.042969 81.238281 238.304688 100.523438 C 236.234375 115.125 235.09375 129.746094 236.253906 143.867188 C 237.019531 153.03125 241 162.074219 247.59375 168.730469 C 259.078125 180.304688 271.246094 189.46875 278.503906 204.710938 C 282.996094 214.128906 286.710938 225.113281 289.65625 237.664062 C 289.691406 237.816406 289.742188 237.960938 289.808594 238.101562 C 289.875 238.238281 289.957031 238.367188 290.054688 238.488281 C 290.152344 238.605469 290.261719 238.714844 290.386719 238.808594 C 290.507812 238.902344 290.640625 238.980469 290.78125 239.042969 C 290.921875 239.109375 291.066406 239.152344 291.21875 239.183594 C 291.371094 239.210938 291.523438 239.222656 291.679688 239.21875 C 291.832031 239.210938 291.984375 239.1875 292.132812 239.144531 C 292.28125 239.105469 292.421875 239.046875 292.558594 238.972656 C 292.902344 238.792969 293.171875 238.542969 293.367188 238.226562 C 301.546875 225.257812 304.574219 211.722656 302.445312 197.621094 C 302.003906 194.757812 302.34375 194.660156 303.460938 197.328125 C 313.121094 220.472656 317.324219 244.710938 316.066406 270.039062 C 315.84375 274.515625 315.042969 278.933594 313.660156 283.289062 C 302.382812 318.835938 279.941406 344.820312 246.328125 361.246094 Z M 246.328125 361.246094 " fill-opacity="1" fill-rule="nonzero"/><path fill="#fa921f" d="M 246.328125 361.246094 C 239.347656 365.183594 231.140625 367.921875 221.699219 369.457031 C 237.648438 359.144531 247.324219 345.671875 250.722656 329.039062 C 252.878906 318.515625 253.21875 308.167969 251.738281 297.992188 C 250.910156 292.269531 249.914062 292.242188 248.753906 297.910156 C 247.359375 304.65625 244.097656 310.699219 238.96875 316.035156 C 237.132812 317.957031 236.300781 317.589844 236.480469 314.9375 C 237.78125 295.179688 231.265625 279.046875 216.933594 266.535156 C 204.824219 255.957031 185.773438 251.539062 183.222656 233.019531 C 182.621094 228.769531 184.324219 224.519531 186.6875 221.097656 C 189.203125 217.488281 188.691406 216.984375 185.152344 219.582031 C 176.113281 226.21875 172.734375 240.300781 173.253906 251 C 173.640625 258.9375 173.757812 266.589844 173.605469 273.957031 C 173.335938 286.917969 161.167969 290.300781 155.03125 299.839844 C 152.417969 303.902344 150.414062 308.148438 149.019531 312.570312 C 147.789062 316.527344 146.480469 316.554688 145.101562 312.65625 C 143.71875 308.8125 142.992188 304.890625 142.921875 300.894531 C 142.894531 299.25 142.542969 299.183594 141.867188 300.6875 C 134.921875 316.097656 132.578125 332.9375 142.113281 348.054688 C 147.503906 356.597656 156.605469 364.722656 169.417969 372.421875 C 158.042969 370.902344 148.265625 368.109375 140.082031 364.042969 C 131.582031 356.773438 123.988281 348.996094 117.300781 340.714844 C 111.207031 333.136719 106.789062 325.535156 104.054688 317.902344 C 96.671875 297.300781 94.144531 275.582031 96.464844 252.742188 C 96.757812 249.796875 97.34375 249.742188 98.226562 252.578125 C 102.789062 267.257812 107.765625 279.910156 121.261719 288.953125 C 121.503906 289.113281 121.753906 289.117188 122.003906 288.960938 C 122.253906 288.804688 122.359375 288.578125 122.316406 288.289062 C 117.078125 254.484375 125.578125 226.867188 147.816406 205.4375 C 163.175781 190.652344 193.777344 177.152344 195.289062 152.785156 C 195.9375 142.347656 192.207031 133.617188 184.09375 126.59375 C 183.472656 126.054688 183.554688 125.671875 184.34375 125.453125 C 184.648438 125.367188 184.9375 125.402344 185.214844 125.554688 C 212.246094 141.191406 215.648438 169.5 214.902344 198.078125 C 214.707031 205.695312 215.507812 212.46875 217.304688 218.398438 C 221.140625 231.195312 231.464844 235.507812 241.105469 243.453125 C 249.464844 250.324219 256.039062 260.527344 260.820312 274.0625 C 260.90625 274.308594 261.054688 274.515625 261.261719 274.675781 C 261.46875 274.839844 261.707031 274.929688 261.964844 274.953125 C 262.226562 274.976562 262.472656 274.925781 262.699219 274.800781 C 262.929688 274.675781 263.101562 274.5 263.222656 274.269531 C 267.355469 266.691406 268.53125 258.984375 266.75 251.144531 C 265.65625 246.304688 266.375 246.023438 268.902344 250.296875 C 276.367188 262.945312 280.914062 276.75 282.546875 291.710938 C 283.914062 304.378906 278.75 318.523438 272.554688 329.515625 C 270.011719 334.023438 265.773438 339.558594 259.84375 346.125 C 255.378906 351.046875 250.875 356.085938 246.328125 361.246094 Z M 246.328125 361.246094 " fill-opacity="1" fill-rule="nonzero"/><path fill="#fdee23" d="M 221.699219 369.457031 C 217.097656 371.65625 210.726562 373.058594 202.585938 373.667969 C 189.734375 374.621094 178.675781 374.207031 169.417969 372.421875 C 156.605469 364.722656 147.503906 356.597656 142.113281 348.054688 C 132.578125 332.9375 134.921875 316.097656 141.867188 300.6875 C 142.542969 299.183594 142.894531 299.25 142.921875 300.894531 C 142.992188 304.890625 143.71875 308.8125 145.101562 312.65625 C 146.480469 316.554688 147.789062 316.527344 149.019531 312.570312 C 150.414062 308.148438 152.417969 303.902344 155.03125 299.839844 C 161.167969 290.300781 173.335938 286.917969 173.605469 273.957031 C 173.757812 266.589844 173.640625 258.9375 173.253906 251 C 172.734375 240.300781 176.113281 226.21875 185.152344 219.582031 C 188.691406 216.984375 189.203125 217.488281 186.6875 221.097656 C 184.324219 224.519531 182.621094 228.769531 183.222656 233.019531 C 185.773438 251.539062 204.824219 255.957031 216.933594 266.535156 C 231.265625 279.046875 237.78125 295.179688 236.480469 314.9375 C 236.300781 317.589844 237.132812 317.957031 238.96875 316.035156 C 244.097656 310.699219 247.359375 304.65625 248.753906 297.910156 C 249.914062 292.242188 250.910156 292.269531 251.738281 297.992188 C 253.21875 308.167969 252.878906 318.515625 250.722656 329.039062 C 247.324219 345.671875 237.648438 359.144531 221.699219 369.457031 Z M 221.699219 369.457031 " fill-opacity="1" fill-rule="nonzero"/><g clip-path="url(#7ffa74a028)"><g clip-path="url(#fe6eb32f40)"><path fill="#ef5922" d="M 140.625 143.476562 L 162.074219 143.476562 L 162.074219 172.382812 L 140.625 172.382812 Z M 140.625 143.476562 " fill-opacity="1" fill-rule="nonzero"/></g></g></svg>