<svg xmlns="http://www.w3.org/2000/svg" xmlns:xlink="http://www.w3.org/1999/xlink" width="500" zoomAndPan="magnify" viewBox="0 0 375 374.999991" height="500" preserveAspectRatio="xMidYMid meet" version="1.0"><defs><clipPath id="fa5310fae4"><path d="M 26.71875 0 L 303 0 L 303 370 L 26.71875 370 Z M 26.71875 0 " clip-rule="nonzero"/></clipPath></defs><g clip-path="url(#fa5310fae4)"><path fill="#f1473a" d="M 167.394531 369.765625 C 129.273438 369.765625 35.054688 363.8125 26.707031 255.375 C 26.707031 255.375 51.113281 298.585938 51.152344 293.507812 C 51.265625 277.011719 26.707031 216.648438 88.105469 175.539062 C 163.242188 125.234375 140.570312 63.527344 122.683594 62.335938 C 122.683594 62.335938 170.769531 57.472656 175.148438 121.203125 C 177.527344 155.878906 206.746094 55.78125 189.457031 0.375 C 189.457031 0.375 277.238281 46.847656 266.355469 161.238281 C 266.355469 161.238281 279.917969 135.324219 302.722656 149.171875 C 302.722656 149.171875 288.410156 154.089844 293.1875 192.222656 C 297.953125 230.351562 318.8125 369.765625 167.394531 369.765625 " fill-opacity="1" fill-rule="nonzero"/></g><path fill="#f79326" d="M 156.070312 365.808594 C 131.429688 364.6875 84.53125 359.257812 84.53125 297.890625 C 84.53125 236.523438 145.9375 228.179688 145.9375 171.582031 C 145.9375 171.582031 175.144531 181.707031 172.167969 209.714844 C 172.167969 209.714844 229.394531 173.964844 224.625 131.664062 C 224.625 131.664062 348.425781 374.605469 156.070312 365.808594 " fill-opacity="1" fill-rule="nonzero"/><path fill="#f79326" d="M 156.070312 365.808594 C 131.429688 364.6875 84.53125 359.257812 84.53125 297.890625 C 84.53125 236.523438 145.9375 228.179688 145.9375 171.582031 C 145.9375 171.582031 175.144531 181.707031 172.167969 209.714844 C 172.167969 209.714844 229.394531 173.964844 224.625 131.664062 C 224.625 131.664062 348.425781 374.605469 156.070312 365.808594 " fill-opacity="1" fill-rule="nonzero"/><path fill="#fff533" d="M 167.992188 260.109375 C 167.992188 260.109375 182.894531 303.78125 158.453125 303.78125 C 141.464844 303.78125 143.546875 285.316406 143.546875 285.316406 C 143.546875 285.316406 96.152344 362.171875 167.992188 362.171875 C 182.542969 362.171875 207.9375 359.191406 207.9375 319.871094 C 207.9375 280.550781 185.875 264.691406 167.992188 260.109375 " fill-opacity="1" fill-rule="nonzero"/></svg>