<svg xmlns="http://www.w3.org/2000/svg" xmlns:xlink="http://www.w3.org/1999/xlink" width="500" zoomAndPan="magnify" viewBox="0 0 375 374.999991" height="500" preserveAspectRatio="xMidYMid meet" version="1.0"><defs><clipPath id="897561430e"><path d="M 80.15625 75 L 294.65625 75 L 294.65625 190 L 80.15625 190 Z M 80.15625 75 " clip-rule="nonzero"/></clipPath><clipPath id="1af9a63678"><path d="M 80.15625 202 L 294.65625 202 L 294.65625 215 L 80.15625 215 Z M 80.15625 202 " clip-rule="nonzero"/></clipPath><clipPath id="d067ade7ff"><path d="M 177.886719 247.5625 L 218.644531 247.5625 L 218.644531 281.117188 L 177.886719 281.117188 Z M 177.886719 247.5625 " clip-rule="nonzero"/></clipPath><clipPath id="f97f44d393"><path d="M 180.898438 247.648438 C 213.601562 252.523438 215.773438 253.050781 217.050781 254.25 C 217.949219 255 218.324219 256.050781 218.476562 257.023438 C 218.625 258.074219 218.324219 259.351562 217.875 260.476562 C 217.425781 261.675781 216.75 262.726562 215.550781 263.925781 C 213.601562 265.800781 209.625 268.199219 206.25 269.773438 C 202.800781 271.425781 198.449219 272.625 195.148438 273.449219 C 192.75 274.050781 190.125 274.875 188.550781 274.574219 C 187.648438 274.425781 186.675781 273.898438 186.449219 273.300781 C 186.226562 272.773438 186.601562 272.023438 187.050781 271.273438 C 187.949219 269.925781 190.199219 267.824219 192.300781 266.550781 C 194.773438 265.050781 198.976562 263.625 201.300781 263.25 C 202.726562 263.101562 203.773438 263.023438 204.675781 263.550781 C 205.648438 264.074219 206.550781 265.273438 206.925781 266.476562 C 207.375 267.75 207.226562 269.550781 206.851562 270.976562 C 206.476562 272.550781 205.425781 274.199219 204.449219 275.476562 C 203.550781 276.824219 202.425781 278.023438 201.226562 278.925781 C 200.023438 279.824219 198.675781 280.5 197.324219 280.800781 C 195.898438 281.101562 194.324219 281.175781 192.824219 280.800781 C 191.324219 280.5 189.675781 279.675781 188.25 278.699219 C 186.75 277.648438 185.398438 276.148438 184.199219 274.648438 C 182.925781 273.074219 181.875 271.5 180.976562 269.398438 C 179.699219 266.699219 177.824219 261.675781 177.976562 259.425781 C 178.125 258.148438 178.648438 257.25 179.398438 256.574219 C 180.148438 255.898438 181.5 255.523438 182.699219 255.449219 C 183.976562 255.375 185.550781 255.824219 186.824219 256.351562 C 188.25 257.023438 189.449219 257.773438 190.726562 259.125 C 192.601562 261.226562 195.523438 266.550781 196.050781 268.574219 C 196.199219 269.324219 196.199219 269.925781 195.976562 270.375 C 195.75 270.75 195.449219 271.050781 195 271.199219 C 194.550781 271.351562 193.574219 271.351562 193.199219 271.050781 C 192.675781 270.675781 192.226562 269.398438 192.375 268.800781 C 192.601562 268.199219 193.726562 267.449219 194.324219 267.449219 C 194.851562 267.375 195.675781 267.898438 195.898438 268.351562 C 196.199219 268.875 196.050781 270.226562 195.675781 270.75 C 195.449219 271.050781 195 271.273438 194.625 271.351562 C 194.101562 271.351562 193.425781 271.273438 192.824219 270.75 C 191.476562 269.625 189.976562 263.925781 188.476562 262.125 C 187.574219 261 186.824219 260.476562 185.773438 260.023438 C 184.5 259.5 181.949219 258.824219 181.425781 259.351562 C 180.898438 259.800781 181.5 261.226562 181.949219 262.5 C 182.699219 264.824219 185.101562 269.851562 186.75 272.101562 C 187.800781 273.601562 188.773438 274.574219 189.976562 275.476562 C 190.949219 276.226562 192.074219 276.824219 193.125 277.125 C 194.023438 277.425781 195.074219 277.5 195.976562 277.351562 C 196.875 277.273438 197.773438 277.050781 198.675781 276.375 C 200.101562 275.25 202.726562 272.324219 203.101562 270.523438 C 203.324219 269.25 203.023438 267.300781 202.125 266.773438 C 200.851562 266.101562 196.875 268.125 194.550781 269.398438 C 192.300781 270.675781 190.050781 274.351562 188.550781 274.574219 C 187.800781 274.726562 186.898438 274.199219 186.601562 273.75 C 186.300781 273.226562 186.226562 272.25 186.75 271.574219 C 188.023438 270.074219 195.523438 269.851562 199.351562 268.5 C 202.875 267.300781 206.550781 265.800781 209.175781 264.074219 C 211.273438 262.648438 213.675781 260.851562 214.199219 259.273438 C 214.574219 258.300781 214.574219 257.175781 213.675781 256.273438 C 210.675781 253.351562 183.976562 253.949219 180.074219 251.550781 C 178.949219 250.949219 178.574219 250.050781 178.5 249.449219 C 178.425781 249 178.800781 248.476562 179.101562 248.175781 C 179.550781 247.800781 180.898438 247.648438 180.898438 247.648438 " clip-rule="nonzero"/></clipPath></defs><path fill="#ff3131" d="M 253.332031 44.398438 L 121.589844 44.398438 L 110.226562 63.335938 L 264.695312 63.335938 Z M 253.332031 44.398438 " fill-opacity="1" fill-rule="nonzero"/><g clip-path="url(#897561430e)"><path fill="#ff3131" d="M 80.136719 75.964844 L 80.136719 189.601562 L 294.785156 189.601562 L 294.785156 75.964844 Z M 275.847656 170.664062 L 99.074219 170.664062 L 99.074219 94.902344 L 275.847656 94.902344 Z M 275.847656 170.664062 " fill-opacity="1" fill-rule="nonzero"/></g><g clip-path="url(#1af9a63678)"><path fill="#ff3131" d="M 80.136719 202.230469 L 294.785156 202.230469 L 294.785156 214.855469 L 80.136719 214.855469 Z M 80.136719 202.230469 " fill-opacity="1" fill-rule="nonzero"/></g><path fill="#ff3131" d="M 159.390625 315.871094 L 215.53125 315.871094 L 270.773438 227.484375 L 104.148438 227.484375 Z M 159.390625 315.871094 " fill-opacity="1" fill-rule="nonzero"/><path fill="#ff3131" d="M 174.835938 357.953125 L 187.460938 374.796875 L 200.085938 357.953125 L 200.085938 328.496094 L 174.835938 328.496094 Z M 174.835938 357.953125 " fill-opacity="1" fill-rule="nonzero"/><path fill="#ff3131" d="M 136.953125 0.203125 L 237.964844 0.203125 L 237.964844 31.769531 L 136.953125 31.769531 Z M 136.953125 0.203125 " fill-opacity="1" fill-rule="nonzero"/><g clip-path="url(#d067ade7ff)"><g clip-path="url(#f97f44d393)"><path fill="#ff3131" d="M 174.976562 244.648438 L 221.402344 244.648438 L 221.402344 283.875 L 174.976562 283.875 Z M 174.976562 244.648438 " fill-opacity="1" fill-rule="nonzero"/></g></g></svg>