<svg xmlns="http://www.w3.org/2000/svg" xmlns:xlink="http://www.w3.org/1999/xlink" width="500" zoomAndPan="magnify" viewBox="0 0 375 374.999991" height="500" preserveAspectRatio="xMidYMid meet" version="1.0"><defs><clipPath id="62163f2584"><path d="M 80.15625 75 L 294.65625 75 L 294.65625 190 L 80.15625 190 Z M 80.15625 75 " clip-rule="nonzero"/></clipPath><clipPath id="5ef04a04d0"><path d="M 80.15625 202 L 294.65625 202 L 294.65625 215 L 80.15625 215 Z M 80.15625 202 " clip-rule="nonzero"/></clipPath><clipPath id="3f5811bee7"><path d="M 157.691406 258.339844 L 216.015625 258.339844 L 216.015625 266.371094 L 157.691406 266.371094 Z M 157.691406 258.339844 " clip-rule="nonzero"/></clipPath><clipPath id="da100b47ef"><path d="M 158.476562 258.375 C 202.050781 263.699219 213.226562 263.324219 215.324219 264.675781 C 215.851562 264.976562 216.074219 265.5 215.925781 265.726562 C 215.851562 265.949219 214.875 266.101562 214.726562 265.875 C 214.574219 265.726562 214.800781 264.75 215.023438 264.675781 C 215.25 264.601562 216 265.125 216 265.425781 C 216.074219 265.648438 215.773438 265.949219 215.25 266.175781 C 212.925781 266.925781 201.824219 265.199219 193.800781 264.375 C 183.449219 263.324219 160.949219 261.449219 158.324219 259.875 C 157.875 259.574219 157.726562 259.273438 157.726562 259.050781 C 157.726562 258.824219 158.476562 258.375 158.476562 258.375 " clip-rule="nonzero"/></clipPath></defs><path fill="#0097b2" d="M 253.332031 44.398438 L 121.589844 44.398438 L 110.226562 63.335938 L 264.695312 63.335938 Z M 253.332031 44.398438 " fill-opacity="1" fill-rule="nonzero"/><g clip-path="url(#62163f2584)"><path fill="#0097b2" d="M 80.136719 75.964844 L 80.136719 189.601562 L 294.785156 189.601562 L 294.785156 75.964844 Z M 275.847656 170.664062 L 99.074219 170.664062 L 99.074219 94.902344 L 275.847656 94.902344 Z M 275.847656 170.664062 " fill-opacity="1" fill-rule="nonzero"/></g><g clip-path="url(#5ef04a04d0)"><path fill="#0097b2" d="M 80.136719 202.230469 L 294.785156 202.230469 L 294.785156 214.855469 L 80.136719 214.855469 Z M 80.136719 202.230469 " fill-opacity="1" fill-rule="nonzero"/></g><path fill="#0097b2" d="M 159.390625 315.871094 L 215.53125 315.871094 L 270.773438 227.484375 L 104.148438 227.484375 Z M 159.390625 315.871094 " fill-opacity="1" fill-rule="nonzero"/><path fill="#0097b2" d="M 174.835938 357.953125 L 187.460938 374.796875 L 200.085938 357.953125 L 200.085938 328.496094 L 174.835938 328.496094 Z M 174.835938 357.953125 " fill-opacity="1" fill-rule="nonzero"/><path fill="#0097b2" d="M 136.953125 0.203125 L 237.964844 0.203125 L 237.964844 31.769531 L 136.953125 31.769531 Z M 136.953125 0.203125 " fill-opacity="1" fill-rule="nonzero"/><g clip-path="url(#3f5811bee7)"><g clip-path="url(#da100b47ef)"><path fill="#0097b2" d="M 154.726562 255.375 L 219.089844 255.375 L 219.089844 269.175781 L 154.726562 269.175781 Z M 154.726562 255.375 " fill-opacity="1" fill-rule="nonzero"/></g></g></svg>