<svg xmlns="http://www.w3.org/2000/svg" xmlns:xlink="http://www.w3.org/1999/xlink" width="500" zoomAndPan="magnify" viewBox="0 0 375 374.999991" height="500" preserveAspectRatio="xMidYMid meet" version="1.0"><defs><clipPath id="6d1da27a25"><path d="M 0 0 L 112.5 0 L 112.5 375 L 0 375 Z M 0 0 " clip-rule="nonzero"/></clipPath><clipPath id="a17bcffee2"><path d="M 56.25 375 L 112.5 318.75 L 84.375 318.75 L 84.375 0 L 28.125 0 L 28.125 318.75 L 0 318.75 Z M 56.25 375 " clip-rule="nonzero"/></clipPath><clipPath id="e8fa454d84"><path d="M 112.570312 48.832031 L 340.570312 48.832031 L 340.570312 308.332031 L 112.570312 308.332031 Z M 112.570312 48.832031 " clip-rule="nonzero"/></clipPath></defs><g clip-path="url(#6d1da27a25)"><g clip-path="url(#a17bcffee2)"><path fill="#00bf63" d="M 112.5 375 L 0 375 L 0 0.144531 L 112.5 0.144531 Z M 112.5 375 " fill-opacity="1" fill-rule="nonzero"/></g></g><path fill="#00bf63" d="M 216.835938 271.632812 C 223.617188 275.023438 232.460938 276.886719 241.738281 276.886719 C 251.019531 276.886719 259.863281 275.023438 266.640625 271.632812 C 275.097656 267.410156 279.75 261.175781 279.75 254.082031 C 279.75 246.992188 275.097656 240.757812 266.640625 236.53125 C 259.863281 233.144531 251.019531 231.273438 241.738281 231.273438 C 232.460938 231.273438 223.617188 233.144531 216.835938 236.53125 C 208.382812 240.757812 203.726562 246.992188 203.726562 254.082031 C 203.726562 261.175781 208.382812 267.410156 216.835938 271.632812 Z M 223.636719 250.132812 C 228.277344 247.8125 234.875 246.476562 241.738281 246.476562 C 248.605469 246.476562 255.203125 247.8125 259.84375 250.132812 C 263.730469 252.074219 264.546875 253.820312 264.546875 254.082031 C 264.546875 254.34375 263.730469 256.09375 259.84375 258.035156 C 255.203125 260.355469 248.605469 261.683594 241.738281 261.683594 C 234.875 261.683594 228.277344 260.355469 223.636719 258.035156 C 219.75 256.09375 218.933594 254.34375 218.933594 254.082031 C 218.933594 253.820312 219.75 252.074219 223.636719 250.132812 Z M 223.636719 250.132812 " fill-opacity="1" fill-rule="nonzero"/><g clip-path="url(#e8fa454d84)"><path fill="#00bf63" d="M 171.816406 94.429688 C 169.773438 95.519531 167.804688 96.652344 165.933594 97.839844 C 151.085938 107.273438 142.910156 119.5625 142.910156 132.441406 C 142.910156 143.238281 148.457031 153.421875 158.988281 162.050781 C 159.734375 164.921875 160.945312 167.734375 162.601562 170.433594 C 160.203125 174.316406 158.746094 178.425781 158.28125 182.6875 C 158.28125 182.71875 158.273438 182.746094 158.273438 182.773438 C 157.636719 188.78125 158.976562 194.65625 162.171875 200.140625 L 162.183594 200.132812 C 162.320312 200.371094 162.460938 200.605469 162.605469 200.835938 C 159.648438 205.621094 158.113281 210.746094 158.113281 216.070312 C 158.113281 218.8125 158.53125 221.523438 159.351562 224.171875 C 148.644531 232.800781 142.910156 243.089844 142.910156 254.082031 C 142.910156 269.320312 153.863281 283.355469 173.75 293.601562 C 192.160156 303.089844 216.304688 308.3125 241.738281 308.3125 C 267.175781 308.3125 291.324219 303.089844 309.730469 293.601562 C 329.617188 283.355469 340.570312 269.320312 340.570312 254.082031 C 340.570312 243.089844 334.832031 232.800781 324.128906 224.171875 C 324.949219 221.523438 325.363281 218.8125 325.363281 216.070312 C 325.363281 210.746094 323.828125 205.621094 320.875 200.835938 C 321.015625 200.605469 321.15625 200.371094 321.296875 200.132812 L 321.304688 200.140625 C 324.777344 194.183594 325.960938 187.902344 325.089844 181.785156 C 325.074219 181.6875 325.054688 181.59375 325.039062 181.496094 C 324.453125 177.660156 323.050781 173.953125 320.878906 170.433594 C 322.535156 167.734375 323.746094 164.917969 324.488281 162.050781 C 335.023438 153.421875 340.570312 143.238281 340.570312 132.441406 C 340.570312 118.78125 331.480469 105.9375 314.976562 96.273438 C 300.734375 87.9375 281.453125 82.253906 260.425781 80.152344 C 251.730469 61.320312 233.398438 48.820312 212.316406 48.820312 L 112.5 48.820312 L 112.5 94.429688 Z M 161.316406 142.386719 C 159.402344 139.429688 158.113281 136.085938 158.113281 132.441406 C 158.113281 124.953125 163.789062 117.21875 174.089844 110.675781 C 184.980469 103.753906 200.292969 98.636719 217.417969 96.15625 C 218.796875 97.304688 219.785156 98.953125 220.109375 100.871094 C 220.75 104.667969 221.496094 107.683594 222.492188 110.800781 C 192.382812 114.492188 169.441406 126.570312 161.316406 142.386719 Z M 309.683594 188.992188 C 306.527344 186.621094 302.929688 184.410156 298.898438 182.394531 C 283.503906 174.695312 263.203125 170.453125 241.738281 170.453125 C 220.277344 170.453125 199.976562 174.695312 184.582031 182.394531 C 180.550781 184.410156 176.949219 186.621094 173.796875 188.992188 C 173.417969 187.65625 173.261719 186.28125 173.339844 184.992188 C 173.339844 184.980469 173.339844 184.96875 173.34375 184.960938 C 174.238281 170.761719 202.074219 155.25 241.738281 155.25 C 253.820312 155.25 264.796875 156.691406 274.257812 159.09375 C 274.65625 159.207031 275.050781 159.324219 275.449219 159.433594 C 286.917969 162.484375 303.613281 169.378906 308.773438 180.023438 C 310.203125 182.96875 310.554688 185.921875 309.683594 188.992188 Z M 310.128906 215.277344 C 309.96875 215.195312 309.8125 215.109375 309.648438 215.03125 C 291.382812 205.898438 267.265625 200.863281 241.738281 200.863281 C 216.214844 200.863281 192.097656 205.898438 173.832031 215.03125 C 173.667969 215.109375 173.511719 215.195312 173.351562 215.277344 C 174.359375 201.101562 202.160156 185.660156 241.738281 185.660156 C 281.320312 185.660156 309.121094 201.101562 310.128906 215.277344 Z M 184.582031 151.984375 C 180.550781 154 176.949219 156.210938 173.796875 158.582031 C 173.480469 157.46875 173.316406 156.359375 173.316406 155.25 C 173.316406 142.902344 194.539062 128.394531 229.136719 125.390625 C 232.273438 130.574219 236.117188 135.414062 240.609375 139.789062 C 240.703125 139.878906 240.800781 139.964844 240.898438 140.058594 C 219.746094 140.167969 199.777344 144.386719 184.582031 151.984375 Z M 325.363281 254.082031 C 325.363281 263.207031 317.128906 272.683594 302.765625 280.085938 C 286.46875 288.484375 264.796875 293.109375 241.738281 293.109375 C 218.683594 293.109375 197.007812 288.484375 180.714844 280.085938 C 166.351562 272.683594 158.113281 263.207031 158.113281 254.082031 C 158.113281 245.0625 166.320312 235.785156 180.632812 228.628906 C 196.828125 220.53125 218.527344 216.070312 241.738281 216.070312 C 264.949219 216.070312 286.652344 220.53125 302.847656 228.628906 C 317.160156 235.785156 325.363281 245.0625 325.363281 254.082031 Z M 325.363281 132.441406 C 325.363281 136.074219 324.089844 139.40625 322.183594 142.355469 C 316.203125 130.632812 302.035156 120.851562 281.820312 115.011719 C 269.734375 111.523438 266.476562 105.171875 265.136719 96.058594 C 265.136719 96.042969 265.132812 96.035156 265.128906 96.023438 C 299.542969 100.835938 325.363281 116.089844 325.363281 132.441406 Z M 127.703125 64.023438 L 212.316406 63.972656 C 231.285156 63.972656 247.175781 78.425781 250.09375 98.269531 C 252.546875 114.945312 261.289062 124.90625 277.601562 129.621094 C 297.382812 135.332031 310.160156 145.394531 310.160156 155.25 C 310.160156 156.359375 310.003906 157.46875 309.683594 158.582031 C 300.960938 152.027344 289.894531 147.539062 279.347656 144.734375 C 257.703125 138.96875 239.101562 121.988281 235.101562 98.339844 C 233.226562 87.265625 223.808594 79.226562 212.707031 79.226562 L 127.703125 79.28125 Z M 127.703125 64.023438 " fill-opacity="1" fill-rule="nonzero"/></g></svg>