<svg xmlns="http://www.w3.org/2000/svg" xmlns:xlink="http://www.w3.org/1999/xlink" width="500" zoomAndPan="magnify" viewBox="0 0 375 374.999991" height="500" preserveAspectRatio="xMidYMid meet" version="1.0"><defs><clipPath id="75693cebaa"><path d="M 137.242188 0 L 374.992188 0 L 374.992188 285 L 137.242188 285 Z M 137.242188 0 " clip-rule="nonzero"/></clipPath><clipPath id="7d045f7fe3"><path d="M 0 0 L 112.5 0 L 112.5 375 L 0 375 Z M 0 0 " clip-rule="nonzero"/></clipPath><clipPath id="b13bfe4846"><path d="M 56.25 375 L 112.5 318.75 L 84.375 318.75 L 84.375 0 L 28.125 0 L 28.125 318.75 L 0 318.75 Z M 56.25 375 " clip-rule="nonzero"/></clipPath></defs><g clip-path="url(#75693cebaa)"><path fill="#00bf63" d="M 154.253906 276.824219 L 154.253906 178.859375 C 175.015625 213.738281 213.121094 237.320312 256.308594 237.320312 C 321.40625 237.320312 374.972656 183.757812 374.972656 118.660156 C 374.972656 53.5625 321.40625 0 256.308594 0 C 191.214844 0 137.648438 53.5625 137.648438 118.660156 L 137.648438 276.824219 C 137.648438 281.378906 141.394531 285.128906 145.949219 285.128906 C 150.507812 285.128906 154.253906 281.378906 154.253906 276.824219 Z M 195.886719 179.082031 C 192.667969 175.859375 192.667969 170.558594 195.886719 167.339844 L 206.960938 156.269531 C 210.179688 153.046875 215.480469 153.046875 218.703125 156.269531 C 221.921875 159.488281 221.921875 164.789062 218.703125 168.011719 L 207.628906 179.082031 C 204.410156 182.304688 199.109375 182.304688 195.886719 179.082031 Z M 256.308594 204.109375 C 251.753906 204.109375 248.003906 200.359375 248.003906 195.804688 L 248.003906 180.148438 C 248.003906 175.59375 251.753906 171.84375 256.308594 171.84375 C 260.863281 171.84375 264.613281 175.59375 264.613281 180.148438 L 264.613281 195.804688 C 264.613281 200.359375 260.863281 204.109375 256.308594 204.109375 Z M 305.660156 156.269531 L 316.730469 167.339844 C 319.953125 170.558594 319.953125 175.859375 316.730469 179.082031 C 313.507812 182.304688 308.207031 182.304688 304.988281 179.082031 L 293.917969 168.011719 C 290.695312 164.789062 290.695312 159.488281 293.917969 156.269531 C 297.136719 153.046875 302.4375 153.046875 305.660156 156.269531 Z M 333.453125 110.355469 C 338.039062 110.355469 341.757812 114.078125 341.757812 118.660156 C 341.757812 123.25 338.039062 126.964844 333.453125 126.964844 L 317.800781 126.964844 C 313.210938 126.964844 309.496094 123.25 309.496094 118.660156 C 309.496094 114.078125 313.210938 110.355469 317.800781 110.355469 Z M 316.730469 58.238281 C 319.953125 61.460938 319.953125 66.761719 316.730469 69.980469 L 305.660156 81.054688 C 302.4375 84.273438 297.136719 84.273438 293.917969 81.054688 C 290.695312 77.832031 290.695312 72.53125 293.917969 69.3125 L 304.988281 58.238281 C 308.207031 55.019531 313.507812 55.019531 316.730469 58.238281 Z M 256.308594 33.210938 C 260.863281 33.210938 264.613281 36.960938 264.613281 41.515625 L 264.613281 57.171875 C 264.613281 61.726562 260.863281 65.476562 256.308594 65.476562 C 251.753906 65.476562 248.003906 61.726562 248.003906 57.171875 L 248.003906 41.515625 C 248.003906 36.960938 251.753906 33.210938 256.308594 33.210938 Z M 206.960938 81.054688 L 195.886719 69.980469 C 192.667969 66.761719 192.667969 61.460938 195.886719 58.238281 C 199.109375 55.019531 204.410156 55.019531 207.628906 58.238281 L 218.703125 69.3125 C 221.921875 72.53125 221.921875 77.832031 218.703125 81.054688 C 215.480469 84.273438 210.179688 84.273438 206.960938 81.054688 Z M 256.308594 82.214844 C 276.304688 82.214844 292.753906 98.667969 292.753906 118.660156 C 292.753906 138.65625 276.304688 155.105469 256.308594 155.105469 C 236.316406 155.105469 219.863281 138.65625 219.863281 118.660156 C 219.863281 98.667969 236.316406 82.214844 256.308594 82.214844 Z M 179.164062 110.355469 L 194.820312 110.355469 C 199.375 110.355469 203.121094 114.105469 203.121094 118.660156 C 203.121094 123.214844 199.375 126.964844 194.820312 126.964844 L 179.164062 126.964844 C 174.609375 126.964844 170.859375 123.214844 170.859375 118.660156 C 170.859375 114.105469 174.609375 110.355469 179.164062 110.355469 Z M 179.164062 110.355469 " fill-opacity="1" fill-rule="nonzero"/></g><g clip-path="url(#7d045f7fe3)"><g clip-path="url(#b13bfe4846)"><path fill="#00bf63" d="M 112.5 375 L 0 375 L 0 0.144531 L 112.5 0.144531 Z M 112.5 375 " fill-opacity="1" fill-rule="nonzero"/></g></g></svg>