<svg xmlns="http://www.w3.org/2000/svg" xmlns:xlink="http://www.w3.org/1999/xlink" width="500" zoomAndPan="magnify" viewBox="0 0 375 374.999991" height="500" preserveAspectRatio="xMidYMid meet" version="1.0"><defs><clipPath id="4dd881e912"><path d="M 85.425781 259 L 86.875 259 L 86.875 260.199219 L 85.425781 260.199219 Z M 85.425781 259 " clip-rule="nonzero"/></clipPath><clipPath id="574811928c"><path d="M 86.851562 259.425781 C 86.25 260.398438 85.648438 260.25 85.5 260.023438 C 85.351562 259.800781 85.5 259.199219 85.648438 259.050781 C 85.875 258.898438 86.699219 259.125 86.699219 259.125 " clip-rule="nonzero"/></clipPath></defs><path fill="#ffbd59" d="M 375 187.5 C 375 83.964844 291.035156 0 187.5 0 C 83.964844 0 0 83.964844 0 187.5 C 0 291.035156 83.964844 375 187.5 375 C 291.035156 375 375 291.035156 375 187.5 Z M 375 187.5 " fill-opacity="1" fill-rule="nonzero"/><path fill="#ffffff" d="M 168.605469 91.519531 L 123.261719 91.519531 C 119.105469 91.519531 115.703125 94.921875 115.703125 99.078125 L 115.703125 275.921875 C 115.703125 280.078125 119.105469 283.480469 123.261719 283.480469 L 168.605469 283.480469 C 172.761719 283.480469 176.164062 280.078125 176.164062 275.921875 L 176.164062 99.078125 C 176.164062 94.921875 172.761719 91.519531 168.605469 91.519531 " fill-opacity="1" fill-rule="nonzero"/><path fill="#ffffff" d="M 251.738281 91.519531 L 206.394531 91.519531 C 202.238281 91.519531 198.835938 94.921875 198.835938 99.078125 L 198.835938 275.921875 C 198.835938 280.078125 202.238281 283.480469 206.394531 283.480469 L 251.738281 283.480469 C 255.894531 283.480469 259.296875 280.078125 259.296875 275.921875 L 259.296875 99.078125 C 259.296875 94.921875 255.894531 91.519531 251.738281 91.519531 " fill-opacity="1" fill-rule="nonzero"/><g clip-path="url(#4dd881e912)"><g clip-path="url(#574811928c)"><path fill="#ffbd59" d="M 82.5 256.050781 L 89.917969 256.050781 L 89.917969 263.324219 L 82.5 263.324219 Z M 82.5 256.050781 " fill-opacity="1" fill-rule="nonzero"/></g></g></svg>