<svg xmlns="http://www.w3.org/2000/svg" xmlns:xlink="http://www.w3.org/1999/xlink" width="500" zoomAndPan="magnify" viewBox="0 0 375 374.999991" height="500" preserveAspectRatio="xMidYMid meet" version="1.0"><defs><clipPath id="ed38130719"><path d="M 155.800781 37.5 L 371.800781 37.5 L 371.800781 325.5 L 155.800781 325.5 Z M 155.800781 37.5 " clip-rule="nonzero"/></clipPath><clipPath id="612c0aebf4"><path d="M 0 73.042969 L 152.792969 73.042969 L 152.792969 298.792969 L 0 298.792969 Z M 0 73.042969 " clip-rule="nonzero"/></clipPath></defs><path fill="#ff3131" d="M 353.683594 50.585938 L 340.601562 50.585938 C 338.792969 50.585938 337.328125 52.050781 337.328125 53.859375 L 337.328125 93.105469 C 337.328125 94.914062 338.792969 96.378906 340.601562 96.378906 L 353.683594 96.378906 C 355.492188 96.378906 356.953125 94.914062 356.953125 93.105469 L 356.953125 53.859375 C 356.953125 52.050781 355.492188 50.585938 353.683594 50.585938 Z M 350.414062 89.835938 L 343.871094 89.835938 L 343.871094 57.128906 L 350.414062 57.128906 Z M 350.414062 89.835938 " fill-opacity="1" fill-rule="nonzero"/><path fill="#ff3131" d="M 312.796875 96.378906 L 325.882812 96.378906 C 327.691406 96.378906 329.152344 94.914062 329.152344 93.105469 L 329.152344 53.859375 C 329.152344 52.050781 327.691406 50.585938 325.882812 50.585938 L 312.796875 50.585938 C 310.988281 50.585938 309.527344 52.050781 309.527344 53.859375 L 309.527344 93.105469 C 309.527344 94.914062 310.988281 96.378906 312.796875 96.378906 Z M 316.070312 57.128906 L 322.609375 57.128906 L 322.609375 89.835938 L 316.070312 89.835938 Z M 316.070312 57.128906 " fill-opacity="1" fill-rule="nonzero"/><path fill="#ff3131" d="M 284.996094 96.378906 L 298.078125 96.378906 C 299.886719 96.378906 301.351562 94.914062 301.351562 93.105469 L 301.351562 53.859375 C 301.351562 52.050781 299.886719 50.585938 298.078125 50.585938 L 284.996094 50.585938 C 283.1875 50.585938 281.726562 52.050781 281.726562 53.859375 L 281.726562 93.105469 C 281.726562 94.914062 283.1875 96.378906 284.996094 96.378906 Z M 288.265625 57.128906 L 294.808594 57.128906 L 294.808594 89.835938 L 288.265625 89.835938 Z M 288.265625 57.128906 " fill-opacity="1" fill-rule="nonzero"/><path fill="#ff3131" d="M 257.195312 96.378906 L 270.277344 96.378906 C 272.085938 96.378906 273.550781 94.914062 273.550781 93.105469 L 273.550781 53.859375 C 273.550781 52.050781 272.085938 50.585938 270.277344 50.585938 L 257.195312 50.585938 C 255.386719 50.585938 253.925781 52.050781 253.925781 53.859375 L 253.925781 93.105469 C 253.925781 94.914062 255.386719 96.378906 257.195312 96.378906 Z M 260.464844 57.128906 L 267.007812 57.128906 L 267.007812 89.835938 L 260.464844 89.835938 Z M 260.464844 57.128906 " fill-opacity="1" fill-rule="nonzero"/><path fill="#ff3131" d="M 229.394531 96.378906 L 242.476562 96.378906 C 244.285156 96.378906 245.746094 94.914062 245.746094 93.105469 L 245.746094 53.859375 C 245.746094 52.050781 244.285156 50.585938 242.476562 50.585938 L 229.394531 50.585938 C 227.585938 50.585938 226.121094 52.050781 226.121094 53.859375 L 226.121094 93.105469 C 226.121094 94.914062 227.585938 96.378906 229.394531 96.378906 Z M 232.664062 57.128906 L 239.207031 57.128906 L 239.207031 89.835938 L 232.664062 89.835938 Z M 232.664062 57.128906 " fill-opacity="1" fill-rule="nonzero"/><path fill="#ff3131" d="M 201.59375 96.378906 L 214.675781 96.378906 C 216.484375 96.378906 217.945312 94.914062 217.945312 93.105469 L 217.945312 53.859375 C 217.945312 52.050781 216.484375 50.585938 214.675781 50.585938 L 201.59375 50.585938 C 199.785156 50.585938 198.320312 52.050781 198.320312 53.859375 L 198.320312 93.105469 C 198.320312 94.914062 199.785156 96.378906 201.59375 96.378906 Z M 204.863281 57.128906 L 211.40625 57.128906 L 211.40625 89.835938 L 204.863281 89.835938 Z M 204.863281 57.128906 " fill-opacity="1" fill-rule="nonzero"/><path fill="#ff3131" d="M 190.144531 119.273438 L 190.144531 80.023438 C 190.144531 78.214844 188.683594 76.753906 186.875 76.753906 L 173.789062 76.753906 C 171.980469 76.753906 170.519531 78.214844 170.519531 80.023438 L 170.519531 119.273438 C 170.519531 121.082031 171.980469 122.542969 173.789062 122.542969 L 186.875 122.542969 C 188.683594 122.542969 190.144531 121.082031 190.144531 119.273438 Z M 183.601562 116.003906 L 177.0625 116.003906 L 177.0625 83.292969 L 183.601562 83.292969 Z M 183.601562 116.003906 " fill-opacity="1" fill-rule="nonzero"/><path fill="#ff3131" d="M 338.964844 178.148438 L 188.507812 178.148438 C 186.699219 178.148438 185.238281 179.609375 185.238281 181.417969 L 185.238281 292.625 C 185.238281 294.433594 186.699219 295.894531 188.507812 295.894531 L 338.964844 295.894531 C 340.773438 295.894531 342.234375 294.433594 342.234375 292.625 L 342.234375 181.417969 C 342.234375 179.609375 340.773438 178.148438 338.964844 178.148438 Z M 335.695312 289.351562 L 191.78125 289.351562 L 191.78125 184.6875 L 335.695312 184.6875 Z M 335.695312 289.351562 " fill-opacity="1" fill-rule="nonzero"/><g clip-path="url(#ed38130719)"><path fill="#ff3131" d="M 368.402344 109.460938 C 370.210938 109.460938 371.671875 108 371.671875 106.191406 L 371.671875 47.316406 C 371.671875 41.90625 367.269531 37.503906 361.859375 37.503906 L 199.113281 37.503906 C 195.667969 37.503906 192.296875 38.902344 189.863281 41.335938 L 159.632812 71.566406 C 157.199219 74 155.800781 77.371094 155.800781 80.816406 L 155.800781 132.355469 C 155.800781 134.164062 157.261719 135.628906 159.070312 135.628906 L 162.34375 135.628906 L 162.34375 151.980469 L 159.070312 151.980469 C 157.261719 151.980469 155.800781 153.441406 155.800781 155.25 L 155.800781 315.519531 C 155.800781 320.929688 160.203125 325.332031 165.613281 325.332031 L 361.859375 325.332031 C 367.269531 325.332031 371.671875 320.929688 371.671875 315.519531 L 371.671875 151.980469 C 371.671875 150.171875 370.210938 148.710938 368.402344 148.710938 L 365.128906 148.710938 L 365.128906 145.4375 L 368.402344 145.4375 C 370.210938 145.4375 371.671875 143.976562 371.671875 142.167969 L 371.671875 125.816406 C 371.671875 124.007812 370.210938 122.542969 368.402344 122.542969 L 365.128906 122.542969 L 365.128906 109.460938 Z M 361.859375 129.085938 L 365.128906 129.085938 L 365.128906 138.898438 L 361.859375 138.898438 C 360.050781 138.898438 358.589844 140.359375 358.589844 142.167969 L 358.589844 151.980469 C 358.589844 153.789062 360.050781 155.25 361.859375 155.25 L 365.128906 155.25 L 365.128906 315.519531 C 365.128906 317.324219 363.664062 318.789062 361.859375 318.789062 L 165.613281 318.789062 C 163.808594 318.789062 162.34375 317.324219 162.34375 315.519531 L 162.34375 158.523438 L 165.613281 158.523438 C 167.421875 158.523438 168.882812 157.058594 168.882812 155.25 L 168.882812 132.355469 C 168.882812 130.546875 167.421875 129.085938 165.613281 129.085938 L 162.34375 129.085938 L 162.34375 80.816406 C 162.34375 79.09375 163.042969 77.40625 164.257812 76.191406 L 194.488281 45.960938 C 195.703125 44.746094 197.390625 44.046875 199.113281 44.046875 L 361.859375 44.046875 C 363.664062 44.046875 365.128906 45.511719 365.128906 47.316406 L 365.128906 102.917969 L 361.859375 102.917969 C 360.050781 102.917969 358.589844 104.382812 358.589844 106.191406 L 358.589844 125.816406 C 358.589844 127.625 360.050781 129.085938 361.859375 129.085938 Z M 361.859375 129.085938 " fill-opacity="1" fill-rule="nonzero"/></g><path fill="#ff3131" d="M 208.132812 207.585938 L 319.339844 207.585938 C 323.601562 207.523438 323.671875 201.117188 319.339844 201.042969 C 319.339844 201.042969 208.132812 201.042969 208.132812 201.042969 C 203.871094 201.101562 203.804688 207.507812 208.132812 207.585938 Z M 208.132812 207.585938 " fill-opacity="1" fill-rule="nonzero"/><path fill="#ff3131" d="M 208.132812 230.480469 L 319.339844 230.480469 C 323.601562 230.421875 323.671875 224.011719 319.339844 223.9375 C 319.339844 223.9375 208.132812 223.9375 208.132812 223.9375 C 203.871094 223.996094 203.804688 230.40625 208.132812 230.480469 Z M 208.132812 230.480469 " fill-opacity="1" fill-rule="nonzero"/><path fill="#ff3131" d="M 208.132812 253.375 L 280.089844 253.375 C 284.367188 253.308594 284.40625 246.90625 280.089844 246.832031 C 280.089844 246.832031 208.132812 246.832031 208.132812 246.832031 C 203.859375 246.898438 203.816406 253.304688 208.132812 253.375 Z M 208.132812 253.375 " fill-opacity="1" fill-rule="nonzero"/><g clip-path="url(#612c0aebf4)"><path fill="#ff3131" d="M 84.84375 164.019531 L 68.535156 164.019531 L 68.535156 190.414062 C 68.535156 192.34375 66.972656 193.910156 65.039062 193.910156 C 63.109375 193.910156 61.546875 192.347656 61.546875 190.414062 L 61.546875 164.019531 L 54.488281 164.019531 C 52.4375 164.019531 50.757812 162.34375 50.757812 160.292969 L 50.757812 158.261719 C 50.757812 156.703125 51.726562 155.363281 53.089844 154.808594 L 53.089844 138.519531 L 53.097656 138.519531 C 53.09375 138.328125 53.089844 138.132812 53.089844 137.9375 C 53.089844 127.636719 59.777344 118.894531 69.046875 115.820312 L 69.046875 100.183594 L 73.296875 100.183594 L 73.296875 73.042969 L 79.472656 73.042969 L 79.472656 100.183594 L 83.722656 100.183594 L 83.722656 115.820312 C 92.992188 118.898438 99.679688 127.636719 99.679688 137.9375 C 99.679688 138.132812 99.679688 138.328125 99.671875 138.523438 L 99.679688 138.523438 L 99.679688 154.808594 C 101.042969 155.363281 102.011719 156.707031 102.011719 158.261719 L 102.011719 160.292969 C 102.011719 162.34375 100.332031 164.019531 98.28125 164.019531 L 91.832031 164.019531 L 91.832031 190.414062 C 91.832031 192.347656 90.265625 193.910156 88.335938 193.910156 C 86.40625 193.910156 84.839844 192.347656 84.839844 190.414062 L 84.839844 164.019531 Z M 79.472656 298.570312 L 79.472656 271.433594 L 83.722656 271.433594 L 83.722656 255.792969 C 92.992188 252.71875 99.679688 243.980469 99.679688 233.679688 L 99.679688 216.808594 C 101.042969 216.25 102.011719 214.910156 102.011719 213.355469 L 102.011719 211.324219 C 102.011719 209.273438 100.332031 207.597656 98.28125 207.597656 L 54.488281 207.597656 C 52.4375 207.597656 50.757812 209.273438 50.757812 211.324219 L 50.757812 213.355469 C 50.757812 214.910156 51.726562 216.25 53.089844 216.808594 L 53.089844 233.679688 C 53.089844 243.980469 59.777344 252.71875 69.046875 255.792969 L 69.046875 271.433594 L 73.296875 271.433594 L 73.296875 298.570312 Z M 129.863281 187.09375 C 129.863281 187.09375 129.863281 187.09375 129.863281 187.097656 C 129.863281 188.125 130.699219 188.957031 131.726562 188.957031 L 150.886719 188.933594 C 151.914062 188.929688 152.746094 188.097656 152.746094 187.070312 C 152.746094 187.070312 152.746094 187.066406 152.746094 187.066406 C 152.746094 186.039062 151.910156 185.203125 150.882812 185.207031 L 131.722656 185.230469 C 130.695312 185.230469 129.863281 186.066406 129.863281 187.09375 Z M 125.863281 202.882812 C 125.800781 203.078125 125.769531 203.273438 125.769531 203.464844 C 125.769531 204.25 126.269531 204.976562 127.054688 205.234375 L 137.300781 208.597656 C 138.28125 208.917969 139.332031 208.386719 139.652344 207.40625 C 139.972656 206.429688 139.441406 205.375 138.464844 205.054688 L 128.214844 201.695312 C 127.238281 201.375 126.183594 201.90625 125.863281 202.882812 Z M 116.339844 218.765625 C 116.339844 219.269531 116.542969 219.773438 116.949219 220.144531 L 132.382812 234.183594 C 133.144531 234.875 134.324219 234.820312 135.015625 234.058594 C 135.707031 233.296875 135.652344 232.117188 134.890625 231.425781 L 119.457031 217.386719 C 118.695312 216.691406 117.515625 216.75 116.824219 217.511719 C 116.5 217.867188 116.339844 218.316406 116.339844 218.765625 Z M 127.054688 168.925781 C 126.269531 169.183594 125.769531 169.914062 125.769531 170.695312 C 125.769531 170.890625 125.800781 171.085938 125.863281 171.277344 C 126.183594 172.257812 127.238281 172.789062 128.214844 172.46875 L 138.464844 169.105469 C 139.441406 168.785156 139.972656 167.734375 139.652344 166.753906 C 139.332031 165.777344 138.28125 165.246094 137.300781 165.566406 Z M 116.949219 154.019531 C 116.542969 154.386719 116.339844 154.890625 116.339844 155.398438 C 116.339844 155.847656 116.5 156.292969 116.824219 156.652344 C 117.515625 157.414062 118.695312 157.46875 119.457031 156.777344 L 134.890625 142.738281 C 135.652344 142.046875 135.707031 140.867188 135.015625 140.105469 C 134.324219 139.34375 133.144531 139.289062 132.382812 139.980469 Z M 22.910156 185.886719 C 22.90625 184.855469 22.070312 184.023438 21.042969 184.023438 L 1.886719 184.046875 C 0.855469 184.050781 0.0234375 184.882812 0.0234375 185.910156 C 0.0234375 185.914062 0.0234375 185.914062 0.0234375 185.914062 C 0.0234375 186.941406 0.859375 187.777344 1.890625 187.773438 L 21.046875 187.75 C 22.078125 187.75 22.910156 186.914062 22.910156 185.886719 Z M 26.90625 170.097656 C 27.226562 169.117188 26.695312 168.066406 25.714844 167.746094 L 15.46875 164.382812 C 14.492188 164.0625 13.4375 164.597656 13.117188 165.574219 C 13.054688 165.765625 13.023438 165.964844 13.023438 166.15625 C 13.023438 166.9375 13.523438 167.667969 14.304688 167.925781 L 24.554688 171.289062 C 25.53125 171.609375 26.585938 171.074219 26.90625 170.097656 Z M 35.820312 152.839844 L 20.390625 138.800781 C 19.628906 138.105469 18.449219 138.160156 17.753906 138.921875 C 17.429688 139.28125 17.269531 139.730469 17.269531 140.175781 C 17.269531 140.683594 17.476562 141.1875 17.878906 141.558594 L 33.3125 155.597656 C 34.074219 156.289062 35.253906 156.234375 35.945312 155.472656 C 36.636719 154.710938 36.582031 153.53125 35.820312 152.839844 Z M 25.714844 204.054688 C 26.695312 203.734375 27.226562 202.679688 26.90625 201.703125 C 26.585938 200.726562 25.53125 200.191406 24.554688 200.511719 L 14.304688 203.875 C 13.523438 204.132812 13.023438 204.859375 13.023438 205.644531 C 13.023438 205.835938 13.054688 206.03125 13.117188 206.226562 C 13.4375 207.203125 14.492188 207.738281 15.46875 207.414062 Z M 35.820312 218.960938 C 36.582031 218.269531 36.636719 217.089844 35.945312 216.328125 C 35.253906 215.566406 34.074219 215.511719 33.3125 216.203125 L 17.878906 230.242188 C 17.476562 230.609375 17.269531 231.117188 17.269531 231.621094 C 17.269531 232.070312 17.429688 232.519531 17.753906 232.875 C 18.449219 233.636719 19.628906 233.691406 20.390625 233 Z M 35.820312 218.960938 " fill-opacity="1" fill-rule="nonzero"/></g></svg>