<svg xmlns="http://www.w3.org/2000/svg" xmlns:xlink="http://www.w3.org/1999/xlink" width="500" zoomAndPan="magnify" viewBox="0 0 375 374.999991" height="500" preserveAspectRatio="xMidYMid meet" version="1.0"><defs><clipPath id="334777ca78"><path d="M 0 10.078125 L 375 10.078125 L 375 364.828125 L 0 364.828125 Z M 0 10.078125 " clip-rule="nonzero"/></clipPath><clipPath id="3a19996ad3"><path d="M 213.835938 172.285156 L 234.96875 172.285156 L 234.96875 190.097656 L 213.835938 190.097656 Z M 213.835938 172.285156 " clip-rule="nonzero"/></clipPath><clipPath id="02520d70bd"><path d="M 234.898438 173.550781 C 224.773438 185.25 223.648438 186.226562 221.925781 187.199219 C 219.898438 188.398438 215.925781 190.351562 214.800781 190.050781 C 214.273438 189.898438 213.824219 189 213.976562 188.851562 C 214.050781 188.699219 214.875 188.625 215.023438 188.773438 C 215.175781 188.925781 215.101562 189.824219 214.875 189.976562 C 214.648438 190.125 214.125 189.976562 213.976562 189.824219 C 213.824219 189.601562 213.824219 189.074219 214.050781 188.699219 C 214.800781 187.800781 219 187.125 221.023438 186 C 222.675781 185.101562 223.726562 184.199219 225.300781 182.625 C 227.773438 180.226562 232.273438 173.101562 233.851562 172.425781 C 234.300781 172.273438 234.675781 172.351562 234.824219 172.5 C 235.050781 172.726562 234.898438 173.550781 234.898438 173.550781 " clip-rule="nonzero"/></clipPath></defs><g clip-path="url(#334777ca78)"><path fill="#00bf63" d="M 29.792969 10.078125 C 13.46875 10.078125 0.222656 23.324219 0.222656 39.648438 L 0.222656 335.351562 C 0.222656 351.675781 13.46875 364.921875 29.792969 364.921875 C 46.113281 364.921875 59.363281 351.675781 59.363281 335.351562 L 59.363281 39.648438 C 59.363281 23.324219 46.113281 10.078125 29.792969 10.078125 Z M 138.214844 10.078125 C 137.570312 10.078125 136.925781 10.109375 136.285156 10.171875 C 135.640625 10.238281 135.003906 10.332031 134.371094 10.457031 C 133.738281 10.582031 133.113281 10.738281 132.492188 10.925781 C 131.875 11.113281 131.269531 11.332031 130.671875 11.578125 C 130.074219 11.824219 129.492188 12.101562 128.921875 12.40625 C 128.355469 12.710938 127.800781 13.042969 127.265625 13.402344 C 126.726562 13.757812 126.210938 14.144531 125.710938 14.554688 C 125.210938 14.960938 124.734375 15.394531 124.277344 15.851562 C 123.820312 16.308594 123.386719 16.785156 122.976562 17.285156 C 122.566406 17.785156 122.183594 18.300781 121.824219 18.839844 C 121.464844 19.375 121.132812 19.929688 120.832031 20.5 C 120.527344 21.066406 120.25 21.652344 120.003906 22.246094 C 119.757812 22.84375 119.539062 23.453125 119.351562 24.070312 C 119.164062 24.6875 119.007812 25.3125 118.882812 25.945312 C 118.753906 26.578125 118.660156 27.21875 118.597656 27.859375 C 118.535156 28.5 118.503906 29.144531 118.503906 29.792969 C 118.503906 29.816406 118.503906 29.84375 118.503906 29.867188 L 118.503906 345.132812 C 118.503906 345.15625 118.503906 345.183594 118.503906 345.207031 C 118.503906 345.855469 118.535156 346.496094 118.597656 347.140625 C 118.660156 347.78125 118.753906 348.421875 118.882812 349.054688 C 119.007812 349.6875 119.164062 350.3125 119.351562 350.929688 C 119.539062 351.546875 119.757812 352.15625 120.003906 352.753906 C 120.25 353.347656 120.527344 353.933594 120.832031 354.5 C 121.132812 355.070312 121.464844 355.625 121.824219 356.160156 C 122.183594 356.699219 122.566406 357.214844 122.976562 357.714844 C 123.386719 358.214844 123.820312 358.691406 124.277344 359.148438 C 124.734375 359.605469 125.210938 360.039062 125.710938 360.445312 C 126.210938 360.855469 126.726562 361.242188 127.265625 361.597656 C 127.800781 361.957031 128.355469 362.289062 128.921875 362.59375 C 129.492188 362.898438 130.074219 363.175781 130.671875 363.421875 C 131.269531 363.667969 131.875 363.886719 132.492188 364.074219 C 133.113281 364.261719 133.738281 364.417969 134.371094 364.542969 C 135.003906 364.667969 135.640625 364.761719 136.285156 364.828125 C 136.925781 364.890625 137.570312 364.921875 138.214844 364.921875 C 140.316406 364.917969 142.363281 364.585938 144.355469 363.929688 C 146.351562 363.269531 148.191406 362.316406 149.882812 361.070312 L 149.921875 361.070312 C 150.101562 360.933594 150.28125 360.792969 150.460938 360.648438 L 365.730469 204.09375 C 367.117188 203.203125 368.375 202.148438 369.5 200.941406 C 370.625 199.730469 371.582031 198.402344 372.371094 196.953125 C 373.164062 195.503906 373.761719 193.976562 374.167969 192.378906 C 374.578125 190.777344 374.78125 189.152344 374.777344 187.5 C 374.777344 185.882812 374.582031 184.289062 374.1875 182.71875 C 373.792969 181.152344 373.214844 179.652344 372.453125 178.226562 C 371.691406 176.796875 370.769531 175.484375 369.683594 174.285156 C 368.597656 173.085938 367.382812 172.035156 366.039062 171.136719 L 149.921875 13.929688 C 148.226562 12.679688 146.378906 11.722656 144.378906 11.066406 C 142.375 10.40625 140.324219 10.078125 138.214844 10.078125 Z M 138.214844 10.078125 " fill-opacity="1" fill-rule="nonzero"/></g><g clip-path="url(#3a19996ad3)"><g clip-path="url(#02520d70bd)"><path fill="#00bf63" d="M 210.976562 169.425781 L 237.921875 169.425781 L 237.921875 193.050781 L 210.976562 193.050781 Z M 210.976562 169.425781 " fill-opacity="1" fill-rule="nonzero"/></g></g></svg>