<svg xmlns="http://www.w3.org/2000/svg" xmlns:xlink="http://www.w3.org/1999/xlink" width="500" zoomAndPan="magnify" viewBox="0 0 375 374.999991" height="500" preserveAspectRatio="xMidYMid meet" version="1.0"><defs><clipPath id="a6c00a5ff4"><path d="M 102 171 L 273 171 L 273 366.703125 L 102 366.703125 Z M 102 171 " clip-rule="nonzero"/></clipPath><clipPath id="b776905208"><path d="M 102 219 L 188 219 L 188 366.703125 L 102 366.703125 Z M 102 219 " clip-rule="nonzero"/></clipPath><clipPath id="828be143aa"><path d="M 0 8.203125 L 375 8.203125 L 375 38 L 0 38 Z M 0 8.203125 " clip-rule="nonzero"/></clipPath><clipPath id="610d28eab8"><path d="M 128 8.203125 L 236 8.203125 L 236 87 L 128 87 Z M 128 8.203125 " clip-rule="nonzero"/></clipPath><clipPath id="204fd42e19"><path d="M 195.515625 204.28125 L 195.921875 204.28125 L 195.921875 204.5625 L 195.515625 204.5625 Z M 195.515625 204.28125 " clip-rule="nonzero"/></clipPath><clipPath id="cd1472c473"><path d="M 195.898438 204.449219 C 195.148438 204.75 195.75 204.300781 195.75 204.300781 " clip-rule="nonzero"/></clipPath></defs><g clip-path="url(#a6c00a5ff4)"><path fill="#90e0ef" d="M 187.507812 171.09375 L 272.226562 219.992188 L 272.226562 317.792969 L 187.507812 366.695312 L 102.789062 317.792969 L 102.789062 219.992188 Z M 187.507812 171.09375 " fill-opacity="1" fill-rule="evenodd"/></g><path fill="#0096c7" d="M 187.507812 268.894531 L 102.789062 219.992188 L 187.507812 171.09375 L 272.222656 221.394531 Z M 187.507812 268.894531 " fill-opacity="1" fill-rule="evenodd"/><g clip-path="url(#b776905208)"><path fill="#48cae4" d="M 187.507812 268.894531 L 187.507812 366.691406 L 102.789062 316.394531 L 102.789062 219.992188 Z M 187.507812 268.894531 " fill-opacity="1" fill-rule="evenodd"/></g><g clip-path="url(#828be143aa)"><path fill="#0096c7" d="M 374.988281 22.65625 C 374.988281 14.671875 368.523438 8.195312 360.53125 8.195312 L 14.5 8.195312 C 6.507812 8.195312 0.0273438 14.671875 0.0273438 22.65625 C 0.0273438 30.644531 6.507812 37.117188 14.5 37.117188 L 360.53125 37.117188 C 368.523438 37.117188 374.988281 30.644531 374.988281 22.65625 Z M 374.988281 22.65625 " fill-opacity="1" fill-rule="evenodd"/></g><path fill="#0096c7" d="M 176.910156 86.855469 C 176.980469 89.777344 176.65625 93.34375 176.960938 96.878906 C 177.371094 101.476562 178.78125 105.976562 182.355469 109.628906 C 186.539062 113.917969 194.140625 117.328125 208.425781 116.957031 C 238.546875 116.171875 320.867188 116.53125 320.867188 116.53125 C 320.953125 116.53125 321.039062 116.527344 321.121094 116.523438 C 321.121094 116.523438 325.648438 116.328125 330.171875 117.628906 C 333.402344 118.5625 337.042969 120.203125 337.023438 124.515625 C 337.007812 132.121094 330.257812 135.757812 320.152344 135.757812 L 74.488281 135.757812 C 74.4375 135.757812 74.386719 135.761719 74.335938 135.761719 C 74.335938 135.761719 50.304688 136.554688 50.21875 160.03125 C 50.183594 168.703125 54.859375 174.410156 61.289062 177.800781 C 66.886719 180.738281 73.894531 181.785156 79.660156 181.496094 C 89.4375 181.011719 183.867188 180.078125 183.867188 180.078125 C 186.792969 180.050781 189.140625 177.652344 189.105469 174.726562 C 189.089844 171.800781 186.691406 169.449219 183.765625 169.480469 C 183.765625 169.480469 88.945312 170.421875 79.132812 170.914062 C 75.082031 171.113281 70.152344 170.480469 66.238281 168.421875 C 63.179688 166.808594 60.796875 164.191406 60.8125 160.066406 C 60.863281 147.242188 73.570312 146.40625 74.589844 146.359375 C 79.898438 146.359375 301.582031 146.359375 320.152344 146.359375 C 337.621094 146.359375 347.585938 137.710938 347.636719 124.554688 C 347.65625 116.363281 342.910156 111.550781 336.992188 108.867188 C 330.359375 105.847656 322.175781 105.898438 320.851562 105.929688 C 318.199219 105.917969 237.867188 105.589844 208.15625 106.359375 C 198.308594 106.617188 192.8125 105.1875 189.9375 102.230469 C 188.203125 100.453125 187.726562 98.179688 187.523438 95.941406 C 187.234375 92.648438 187.574219 89.332031 187.523438 86.613281 C 187.457031 83.6875 185.023438 81.367188 182.097656 81.4375 C 179.171875 81.503906 176.84375 83.933594 176.910156 86.855469 Z M 176.910156 86.855469 " fill-opacity="1" fill-rule="evenodd"/><g clip-path="url(#610d28eab8)"><path fill="#48cae4" d="M 142.078125 37.242188 L 128.828125 37.242188 L 128.828125 8.195312 L 235.589844 8.195312 L 235.589844 37.242188 L 222.339844 37.242188 L 191.300781 86.734375 L 172.8125 86.394531 Z M 142.078125 37.242188 " fill-opacity="1" fill-rule="evenodd"/></g><g clip-path="url(#204fd42e19)"><g clip-path="url(#cd1472c473)"><path fill="#0571d3" d="M 192.148438 201.300781 L 198.90625 201.300781 L 198.90625 207.824219 L 192.148438 207.824219 Z M 192.148438 201.300781 " fill-opacity="1" fill-rule="nonzero"/></g></g></svg>