<svg xmlns="http://www.w3.org/2000/svg" xmlns:xlink="http://www.w3.org/1999/xlink" width="500" zoomAndPan="magnify" viewBox="0 0 375 374.999991" height="500" preserveAspectRatio="xMidYMid meet" version="1.0"><path fill="#ff3131" d="M 128.296875 30.492188 C 88.214844 31.574219 53.40625 54.785156 31.921875 87.851562 C 9.660156 122.105469 0.0703125 164.238281 2.652344 204.851562 C 5.460938 248.941406 24.730469 290.890625 58.933594 319.433594 C 94.96875 349.503906 142.558594 363.21875 189.125 361.257812 C 238.734375 359.167969 285.941406 339.328125 320.816406 303.707031 C 354.777344 269.011719 374.746094 221.988281 374.863281 173.332031 C 374.953125 137.335938 363.4375 102.417969 339.914062 74.953125 C 317.890625 49.242188 287.003906 32.152344 254.738281 22.925781 C 220.460938 13.117188 184 11.804688 148.910156 17.601562 C 114.148438 23.347656 79.476562 36.78125 51.878906 58.992188 C 48.660156 61.585938 45.558594 64.371094 42.664062 67.320312 C 39.628906 70.417969 37.363281 74.25 34.359375 77.339844 C 29.414062 82.429688 37.199219 90.230469 42.152344 85.132812 C 44.894531 82.308594 48.71875 80.28125 51.820312 77.882812 C 55.003906 75.421875 58.191406 72.960938 61.453125 70.589844 C 68.183594 65.691406 75.164062 61.09375 82.402344 56.980469 C 96.507812 48.957031 111.542969 42.820312 127.140625 38.375 C 158.324219 29.484375 191.96875 27.148438 223.875 32.0625 C 254.75 36.816406 285.527344 48 309.804688 67.453125 C 334.167969 86.976562 350.59375 113.472656 356.679688 144.164062 C 374.242188 232.691406 310.347656 321.226562 224.226562 341.023438 C 181.941406 350.746094 135.347656 346.421875 96.679688 326.210938 C 59.257812 306.648438 31.6875 272.511719 21.894531 231.289062 C 13.292969 195.074219 16.945312 155.929688 29.917969 121.203125 C 42.777344 86.773438 66.664062 54.738281 101.472656 40.34375 C 110.132812 36.765625 119.394531 34.410156 128.617188 32.882812 C 129.984375 32.660156 129.648438 30.457031 128.296875 30.492188 Z M 128.296875 30.492188 " fill-opacity="1" fill-rule="nonzero"/><path fill="#ff3131" d="M 164.25 55.863281 C 127.640625 56.480469 92.835938 70.023438 67.300781 96.535156 C 45.101562 119.585938 33.035156 151.308594 30.375 182.882812 C 27.589844 215.90625 36.367188 249.652344 56.574219 276.121094 C 80.996094 308.105469 118.582031 326.238281 158.078125 330.792969 C 199.003906 335.515625 241.585938 325.289062 274.679688 300.460938 C 308.589844 275.023438 331.769531 236.921875 337.128906 194.714844 C 341.113281 163.351562 335.558594 130.097656 316.890625 104.042969 C 300.105469 80.613281 275.292969 64.726562 248.039062 56.066406 C 191.402344 38.066406 122.53125 48.832031 75.710938 85.996094 C 72.828125 88.285156 70.082031 90.785156 67.496094 93.402344 C 64.882812 96.042969 62.9375 99.308594 60.363281 101.953125 C 56.261719 106.167969 62.714844 112.636719 66.824219 108.414062 C 69.140625 106.03125 72.339844 104.3125 74.949219 102.28125 C 77.726562 100.117188 80.503906 97.972656 83.335938 95.882812 C 89.027344 91.6875 94.960938 87.78125 101.089844 84.261719 C 113.308594 77.246094 126.34375 71.863281 139.882812 67.988281 C 166.445312 60.382812 195.003906 58.367188 222.285156 63.066406 C 247.792969 67.460938 272.933594 77.527344 292.128906 95.273438 C 311.984375 113.625 323.304688 138.800781 325.164062 165.6875 C 327.753906 203.019531 315.039062 240.28125 290.441406 268.464844 C 264.457031 298.234375 227.835938 316.050781 188.457031 318.648438 C 151.859375 321.0625 113.308594 311.476562 84.902344 287.503906 C 60.117188 266.589844 45.085938 236.472656 42.882812 204.183594 C 40.921875 175.378906 47.621094 146.226562 62.570312 121.472656 C 79.394531 93.617188 106.128906 73.574219 137.105469 63.882812 C 146.03125 61.089844 155.277344 59.25 164.519531 57.839844 C 165.65625 57.675781 165.367188 55.847656 164.25 55.863281 Z M 164.25 55.863281 " fill-opacity="1" fill-rule="nonzero"/><path fill="#ff3131" d="M 123.152344 183.742188 C 122.445312 182.957031 121.789062 182.347656 121.097656 181.824219 C 119.085938 180.300781 116.648438 179.261719 114.097656 178.464844 C 114.347656 177.105469 113.828125 175.691406 112.597656 174.972656 C 109.371094 173.085938 106.003906 171.761719 102.460938 170.601562 C 99.164062 169.527344 101.714844 166.429688 103.097656 164.621094 C 103.164062 164.53125 103.144531 164.347656 103.054688 164.277344 C 103.015625 164.246094 102.972656 164.226562 102.933594 164.195312 C 105.214844 164.378906 107.542969 165.300781 110.066406 166.3125 C 110.960938 166.671875 111.863281 167.027344 112.765625 167.355469 L 113.328125 167.5625 C 115.792969 168.480469 119.511719 169.863281 122.226562 168.121094 C 124.453125 166.699219 124.980469 164.863281 125.039062 163.574219 C 125.214844 159.40625 120.792969 155.789062 119.90625 155.109375 C 113.230469 149.984375 102.71875 149.023438 93.757812 152.710938 C 85.867188 155.957031 80.769531 162.03125 79.769531 169.367188 C 77.957031 182.667969 87.566406 187.023438 96.140625 189.332031 C 101.839844 190.867188 108.410156 194.007812 109.097656 196.40625 C 109.160156 196.613281 109.300781 197.109375 108.46875 198.003906 C 105.597656 201.082031 102.058594 201.601562 96.628906 199.734375 C 95.855469 199.46875 94.84375 199 93.773438 198.5 C 89.917969 196.707031 84.644531 194.25 80.824219 196.921875 C 77.527344 199.222656 77.648438 203.808594 79.15625 207.089844 C 81.066406 211.246094 84.847656 214.644531 89.53125 216.417969 C 92.203125 217.433594 95.214844 217.925781 98.355469 217.925781 C 103.390625 217.925781 108.765625 216.652344 113.636719 214.179688 C 120.550781 210.671875 125.289062 205.386719 126.976562 199.289062 C 128.535156 193.652344 127.035156 187.558594 123.152344 183.742188 Z M 123.09375 198.21875 C 121.710938 203.210938 117.707031 207.605469 111.816406 210.589844 C 104.980469 214.054688 96.800781 214.863281 90.960938 212.65625 C 87.257812 211.253906 84.285156 208.613281 82.816406 205.410156 C 81.964844 203.5625 81.851562 201.113281 83.128906 200.222656 C 83.59375 199.898438 84.183594 199.761719 84.847656 199.761719 C 86.949219 199.761719 89.828125 201.105469 92.078125 202.148438 C 93.246094 202.691406 94.347656 203.207031 95.320312 203.539062 C 102.199219 205.90625 107.464844 204.992188 111.417969 200.746094 C 113.386719 198.632812 113.351562 196.613281 112.972656 195.296875 C 111.316406 189.519531 99.535156 186.074219 97.191406 185.445312 C 86.402344 182.542969 82.636719 178.1875 83.761719 169.914062 C 84.5625 164.03125 88.765625 159.117188 95.292969 156.433594 C 102.976562 153.273438 111.882812 154.023438 117.460938 158.304688 C 119.234375 159.664062 121.085938 161.914062 121.023438 163.402344 C 121.015625 163.617188 120.984375 164.097656 120.160156 164.664062 C 120.148438 164.851562 120.128906 165.042969 120.09375 165.242188 C 119.917969 166.222656 118.695312 166.8125 117.792969 166.546875 C 117.578125 166.484375 117.382812 166.390625 117.175781 166.316406 C 115.300781 166.703125 113.347656 165.914062 111.621094 165 C 111.441406 164.90625 111.253906 164.792969 111.054688 164.671875 C 106.773438 162.734375 101.78125 160.738281 97.324219 163.117188 C 94.519531 164.617188 91.632812 167.996094 90.980469 171.398438 C 91.554688 173.722656 93.195312 175.898438 95.589844 177.351562 C 97.886719 178.742188 100.410156 179.332031 102.855469 179.902344 L 103.335938 180.019531 C 104.25 180.234375 105.210938 180.441406 106.203125 180.648438 C 110.574219 181.585938 115.53125 182.648438 118.675781 185.035156 C 119.171875 185.410156 119.660156 185.871094 120.214844 186.488281 L 120.308594 186.582031 C 123.128906 189.339844 124.253906 194.019531 123.09375 198.21875 Z M 95.382812 170.554688 C 95.4375 171.128906 95.570312 171.675781 95.753906 172.203125 C 95.109375 171.363281 94.742188 170.429688 94.761719 169.546875 C 94.789062 168.394531 95.421875 167.359375 96.234375 166.542969 C 95.585938 167.804688 95.253906 169.253906 95.382812 170.554688 Z M 95.382812 170.554688 " fill-opacity="1" fill-rule="nonzero"/><path fill="#ff3131" d="M 187.007812 155.390625 C 186.960938 155.289062 186.910156 155.1875 186.859375 155.085938 C 184.664062 150.8125 179.625 151.09375 176.289062 151.277344 C 175.769531 151.304688 175.269531 151.332031 174.804688 151.34375 C 171.527344 151.414062 168.15625 151.34375 164.902344 151.277344 C 162.71875 151.230469 160.535156 151.183594 158.359375 151.179688 C 154.398438 151.167969 150.253906 150.972656 144.929688 150.542969 C 142.296875 150.332031 134.246094 150.671875 131.746094 154.894531 C 130.960938 156.214844 130.429688 158.390625 132.214844 161.335938 C 132.636719 163.246094 133.585938 164.675781 134.976562 165.480469 C 136.445312 166.332031 138.066406 166.289062 139.242188 166.257812 L 151.101562 165.945312 C 151.199219 165.941406 151.289062 165.941406 151.359375 165.941406 C 151.359375 167.121094 151.074219 169.253906 150.96875 170.054688 C 150.863281 170.84375 150.8125 171.238281 150.800781 171.527344 C 150.617188 176.84375 151.128906 182.128906 151.621094 187.238281 C 151.964844 190.769531 152.308594 194.414062 152.421875 198.003906 C 151.402344 191.105469 151.042969 183.308594 147.550781 177.230469 C 146.496094 175.394531 143.90625 175.523438 142.824219 177.230469 C 138.175781 184.558594 138.445312 195.699219 138.449219 204.070312 C 138.449219 213.207031 139.121094 222.34375 140.230469 231.40625 C 141.28125 239.984375 141.691406 249.21875 146.183594 256.847656 C 150.296875 263.832031 157.902344 270.554688 166.496094 268.597656 C 170.710938 267.636719 172.90625 262.152344 170.59375 258.53125 C 167.378906 253.503906 161.664062 251.566406 159.546875 245.695312 C 156.949219 238.488281 157.140625 229.996094 156.132812 222.476562 C 155.867188 220.5 155.589844 218.519531 155.300781 216.539062 C 156.433594 217.765625 158.035156 218.488281 159.722656 218.488281 C 159.804688 218.488281 159.882812 218.488281 159.960938 218.484375 C 161.917969 218.40625 163.652344 217.355469 164.671875 215.65625 C 166.273438 214.054688 166.203125 211.632812 166.175781 210.683594 C 165.804688 198.085938 166.015625 184.640625 166.871094 167.085938 C 166.875 167.011719 166.878906 166.886719 166.890625 166.773438 C 166.941406 166.753906 167.003906 166.738281 167.078125 166.714844 C 169.082031 166.128906 171.625 166.441406 174.316406 166.78125 C 177.742188 167.207031 181.289062 167.648438 184.300781 166.21875 C 188.269531 164.34375 188.789062 159.230469 187.007812 155.390625 Z M 182.578125 162.589844 C 180.625 163.515625 177.804688 163.164062 174.816406 162.792969 C 171.835938 162.421875 168.753906 162.039062 165.953125 162.855469 C 165.488281 162.992188 164.402344 163.308594 163.664062 164.257812 C 162.933594 165.195312 162.886719 166.257812 162.855469 166.898438 C 161.996094 184.558594 161.78125 198.101562 162.15625 210.808594 C 162.199219 212.292969 161.953125 212.71875 161.804688 212.839844 L 161.484375 213.101562 L 161.292969 213.46875 C 161.046875 213.949219 160.71875 214.1875 160.402344 214.324219 C 160.140625 214.53125 159.835938 214.707031 159.472656 214.828125 C 157.449219 215.5 156.234375 214.328125 155.554688 212.726562 C 155.414062 212.542969 155.300781 212.324219 155.230469 212.046875 C 151.953125 198.675781 154.214844 184.992188 154.828125 171.457031 C 154.835938 171.277344 154.867188 171.117188 154.910156 170.96875 C 154.925781 170.851562 154.945312 170.726562 154.960938 170.589844 C 155.597656 165.785156 155.597656 163.894531 154.332031 162.839844 C 153.402344 162.066406 152.304688 161.921875 151.3125 161.921875 C 151.207031 161.921875 151.097656 161.925781 150.996094 161.925781 L 141.886719 162.167969 C 140.773438 162.726562 139.507812 162.96875 138.292969 162.59375 C 137.9375 162.484375 137.605469 162.3125 137.289062 162.109375 C 137.1875 162.078125 137.078125 162.054688 136.996094 162.007812 C 136.816406 161.902344 136.679688 161.730469 136.558594 161.539062 C 136.238281 161.230469 135.953125 160.890625 135.746094 160.5 C 135.40625 159.859375 135.230469 159.152344 135.261719 158.449219 C 135.019531 157.835938 134.984375 157.328125 135.203125 156.957031 C 136.191406 155.289062 141.148438 154.28125 144.601562 154.5625 C 150.035156 155 154.273438 155.199219 158.34375 155.210938 C 160.5 155.21875 162.660156 155.261719 164.816406 155.304688 C 168.113281 155.371094 171.519531 155.441406 174.882812 155.371094 C 175.390625 155.359375 175.933594 155.332031 176.503906 155.300781 C 179.882812 155.113281 182.34375 155.121094 183.273438 156.929688 L 183.347656 157.082031 C 184.152344 158.796875 184.335938 161.753906 182.578125 162.589844 Z M 182.578125 162.589844 " fill-opacity="1" fill-rule="nonzero"/><path fill="#ff3131" d="M 326.199219 170.1875 C 324.597656 160.136719 321.761719 150.320312 318.332031 140.753906 C 315.925781 134.039062 313.238281 124.417969 307.890625 118.726562 C 307.460938 118.054688 307.023438 117.398438 306.566406 116.769531 C 306.28125 116.386719 305.703125 116.277344 305.304688 116.464844 C 304.9375 116.203125 304.566406 115.949219 304.175781 115.726562 C 302.625 114.839844 300.328125 115.597656 299.914062 117.460938 C 298.414062 124.28125 302.023438 132.078125 304.792969 138.785156 C 304.835938 142.28125 305.046875 145.75 305.195312 149.226562 C 301.191406 144.996094 296.148438 141.71875 291.046875 140.339844 C 286.164062 139.023438 281.09375 139.265625 276.421875 141.195312 C 273.628906 142.355469 271.289062 143.800781 268.222656 144.121094 C 267.339844 144.214844 266.015625 144.371094 264.636719 144.433594 C 264.488281 142.414062 264.007812 140.371094 263.5 138.363281 C 264.613281 139.996094 265.960938 141.402344 267.773438 142.289062 C 271.042969 143.882812 275.277344 141.992188 275.230469 138.011719 C 275.179688 133.8125 272.699219 130.992188 270.632812 127.527344 C 268.515625 123.976562 266.5 120.355469 264.585938 116.695312 C 261.652344 111.082031 259.003906 103.242188 254.515625 98.398438 C 254.027344 95.585938 253.433594 92.746094 251.925781 90.445312 C 250.988281 89.015625 248.453125 89.046875 248.011719 90.910156 C 246.511719 90.332031 244.824219 90.410156 243.300781 91.570312 C 242.65625 92.0625 242.007812 92.558594 241.359375 93.046875 C 243.03125 90.371094 244.625 87.652344 246.097656 84.863281 C 247.023438 83.117188 245.046875 80.671875 243.195312 81.957031 C 229.996094 91.097656 219.984375 104.324219 210.476562 117.078125 C 207.027344 121.699219 213.917969 128.652344 218.546875 125.148438 C 219.792969 124.203125 221.046875 123.253906 222.292969 122.304688 C 221.289062 123.875 220.273438 125.4375 219.285156 127.015625 C 215.816406 132.550781 223.609375 138.765625 228.257812 134.40625 C 230.050781 136.429688 233.503906 137.070312 236.183594 134.960938 C 236.375 134.808594 236.574219 134.664062 236.769531 134.511719 C 236.441406 135.355469 236.109375 136.203125 235.785156 137.046875 C 235.597656 137.535156 235.511719 137.992188 235.480469 138.429688 C 234.136719 138.03125 232.726562 137.738281 231.199219 137.535156 C 226.964844 136.972656 221.625 135.613281 217.535156 137.183594 C 216.511719 137.578125 215.625 138.878906 216.40625 139.957031 C 216.933594 140.683594 217.53125 141.332031 218.191406 141.933594 C 216.535156 142.421875 214.949219 142.996094 213.476562 143.640625 C 210.550781 144.929688 211.226562 148.824219 213.425781 150.382812 C 206.671875 152.320312 201.070312 156.4375 197.1875 162.066406 C 197.847656 158.675781 198.542969 155.292969 199.175781 151.90625 C 199.253906 151.480469 198.777344 150.941406 198.34375 151.265625 C 189.253906 158.144531 184.984375 169.0625 183.746094 180.109375 C 182.503906 191.234375 183.542969 205.972656 189.953125 215.550781 C 193.574219 220.964844 202.832031 217.730469 200.855469 210.953125 C 199.996094 208.015625 198.824219 205.21875 197.789062 202.367188 C 200.546875 206.0625 204.089844 209.128906 208.316406 211.269531 C 212.890625 213.582031 218.054688 214.746094 223.21875 214.746094 C 228.066406 214.746094 232.910156 213.71875 237.261719 211.667969 C 240.925781 209.9375 244.0625 207.605469 246.519531 204.835938 C 244.636719 208.898438 242.050781 212.757812 239.164062 215.984375 C 235.480469 220.105469 229.675781 223.136719 227.640625 228.449219 C 227.320312 229.28125 227.835938 230.644531 228.683594 231.007812 C 235.410156 233.890625 242.304688 228.125 246.476562 223.292969 C 247.652344 221.929688 248.703125 220.507812 249.664062 219.042969 C 250.011719 220.277344 250.472656 221.480469 251.089844 222.644531 C 253.304688 226.816406 259.164062 231.640625 263.882812 228.371094 C 264.621094 227.855469 265 227.054688 264.78125 226.15625 C 264.371094 224.484375 263.65625 222.953125 262.875 221.449219 C 265.132812 222.132812 267.640625 222.285156 269.945312 222.339844 C 270.441406 222.351562 270.839844 222.207031 271.144531 221.972656 C 271.136719 222.976562 271.171875 223.976562 271.269531 224.949219 C 271.871094 230.824219 281.425781 233.421875 282.574219 226.476562 C 283.710938 219.582031 284.703125 213.433594 287.441406 207.21875 C 287.996094 207.207031 288.523438 207.152344 289.035156 207.058594 C 288.683594 208.230469 288.347656 209.410156 288.035156 210.601562 C 287.058594 214.324219 290.167969 217.332031 293.335938 217.617188 C 293.332031 217.640625 293.328125 217.664062 293.320312 217.691406 C 291.726562 226.285156 289.65625 234.472656 285.332031 242.132812 C 277.09375 256.730469 263.835938 267.410156 253.808594 280.667969 C 251.492188 283.722656 255.890625 287.445312 258.84375 285.703125 C 259.609375 285.25 260.363281 284.78125 261.117188 284.308594 C 263.382812 283.351562 265.59375 282.253906 267.761719 281.042969 C 266.179688 282.769531 264.84375 284.691406 263.914062 287.140625 C 263.214844 288.976562 265.011719 291.054688 266.847656 290.992188 C 272.875 290.796875 277.246094 287.363281 281.867188 283.800781 C 286.269531 280.40625 290.441406 276.792969 294.269531 272.75 C 302.8125 263.734375 309.089844 253.335938 313.648438 241.8125 C 316.285156 235.152344 318.246094 228.300781 319.742188 221.332031 C 329.957031 207.195312 328.816406 186.554688 326.199219 170.1875 Z M 235.355469 155.539062 C 235.660156 155.789062 235.972656 156.035156 236.277344 156.285156 C 235.042969 155.710938 233.816406 155.179688 232.605469 154.703125 C 233.558594 154.933594 234.46875 155.21875 235.355469 155.539062 Z M 245.625 199.347656 C 243.394531 202.972656 239.90625 205.976562 235.539062 208.039062 C 227.648438 211.765625 217.917969 211.632812 210.132812 207.691406 C 199.792969 202.460938 194.046875 190.867188 195.496094 178.15625 C 196.4375 169.90625 200.894531 160.316406 210.476562 155.761719 L 212.992188 155.554688 C 221.285156 154.878906 229 156.761719 238.023438 161.65625 C 244.21875 165.019531 247.78125 172.921875 248.566406 179.257812 C 248.734375 180.617188 248.824219 182.019531 248.835938 183.425781 L 248.839844 183.574219 C 248.847656 183.660156 248.859375 183.746094 248.878906 183.925781 C 249.167969 188.074219 248.839844 194.125 245.625 199.347656 Z M 300.496094 174.816406 C 296.964844 180.230469 289.632812 183.824219 283.925781 184.988281 C 282.949219 185.1875 281.859375 185.269531 280.800781 185.347656 C 277.058594 185.628906 271.9375 186.019531 271.417969 192.863281 C 271.265625 194.898438 271.226562 196.953125 271.222656 198.988281 C 271.785156 202.726562 272.152344 206.496094 271.726562 209.898438 C 271.871094 212.109375 271.550781 213.136719 270.371094 213.648438 C 269.230469 214.839844 267.453125 215.007812 265.242188 215.101562 C 264.207031 215.144531 263.402344 214.210938 263.371094 213.230469 C 263.34375 212.335938 263.304688 211.449219 263.261719 210.558594 C 262.59375 208.335938 262.453125 205.355469 262.539062 202.332031 C 262.605469 202.105469 262.660156 201.871094 262.71875 201.640625 C 262.433594 196.4375 262.351562 191.242188 263.273438 186.058594 C 263.296875 185.925781 263.332031 185.808594 263.375 185.699219 C 263.375 185.648438 263.375 185.597656 263.375 185.550781 C 263.367188 185.207031 263.445312 184.921875 263.570312 184.675781 C 263.617188 175.835938 263.488281 167.160156 262.554688 158.59375 C 262.464844 157.753906 262.359375 155.710938 263.378906 154.890625 C 263.648438 154.671875 264.011719 154.546875 264.363281 154.546875 C 264.417969 154.546875 264.476562 154.550781 264.53125 154.554688 C 264.75 154.582031 264.96875 154.644531 265.183594 154.695312 C 265.535156 154.785156 265.882812 154.871094 266.246094 154.921875 C 268.898438 155.289062 271.457031 154.234375 273.933594 153.21875 C 275.527344 152.5625 277.03125 151.945312 278.371094 151.785156 C 281.601562 151.402344 285.050781 151.707031 288.34375 152.664062 C 295.378906 154.714844 300.519531 159.398438 302.097656 165.195312 C 302.160156 165.414062 302.210938 165.632812 302.257812 165.847656 C 302.933594 168.96875 302.339844 171.984375 300.496094 174.816406 Z M 300.496094 174.816406 " fill-opacity="1" fill-rule="nonzero"/><path fill="#ff3131" d="M 220.613281 87.757812 C 217.863281 90.894531 215.449219 94.257812 212.511719 97.242188 C 209.574219 100.226562 206.292969 102.757812 203.125 105.484375 C 202.855469 105.714844 203.203125 106.164062 203.503906 105.976562 C 210.253906 101.808594 217.09375 94.96875 220.855469 87.945312 C 220.9375 87.796875 220.734375 87.617188 220.613281 87.757812 Z M 220.613281 87.757812 " fill-opacity="1" fill-rule="nonzero"/><path fill="#ff3131" d="M 223.992188 90.496094 C 219.9375 95.480469 215.378906 99.9375 210.988281 104.605469 C 210.683594 104.929688 211.097656 105.550781 211.488281 105.253906 C 216.667969 101.324219 220.886719 96.269531 224.640625 90.996094 C 224.910156 90.617188 224.289062 90.132812 223.992188 90.496094 Z M 223.992188 90.496094 " fill-opacity="1" fill-rule="nonzero"/><path fill="#ff3131" d="M 224.066406 97.234375 C 222.066406 99.269531 220.105469 101.320312 218.203125 103.445312 C 217.929688 103.746094 218.347656 104.167969 218.648438 103.890625 C 220.742188 101.953125 222.761719 99.960938 224.761719 97.929688 C 225.207031 97.480469 224.511719 96.785156 224.066406 97.234375 Z M 224.066406 97.234375 " fill-opacity="1" fill-rule="nonzero"/><path fill="#ff3131" d="M 155.390625 270.257812 C 152.113281 275.75 148.078125 280.53125 144.324219 285.671875 C 144.148438 285.914062 144.523438 286.175781 144.726562 285.980469 C 149.265625 281.640625 152.804688 275.96875 155.9375 270.574219 C 156.140625 270.226562 155.601562 269.914062 155.390625 270.257812 Z M 155.390625 270.257812 " fill-opacity="1" fill-rule="nonzero"/><path fill="#ff3131" d="M 159.394531 275.480469 C 156.003906 278.839844 152.4375 282.691406 150.421875 287.070312 C 150.277344 287.386719 150.695312 287.800781 150.945312 287.476562 C 153.964844 283.628906 156.546875 279.582031 159.953125 276.03125 C 160.300781 275.671875 159.757812 275.121094 159.394531 275.480469 Z M 159.394531 275.480469 " fill-opacity="1" fill-rule="nonzero"/><path fill="#ff3131" d="M 160.757812 279.859375 C 158.488281 282.125 156.273438 284.550781 154.699219 287.355469 C 154.511719 287.695312 154.992188 288.105469 155.253906 287.785156 C 157.292969 285.339844 159.1875 282.804688 161.425781 280.527344 C 161.847656 280.09375 161.1875 279.429688 160.757812 279.859375 Z M 160.757812 279.859375 " fill-opacity="1" fill-rule="nonzero"/><path fill="#ff3131" d="M 273.628906 227.984375 C 269.28125 232.003906 265.042969 236.210938 261.148438 240.675781 C 260.785156 241.09375 261.34375 241.664062 261.761719 241.285156 C 266.148438 237.308594 270.277344 232.992188 274.210938 228.570312 C 274.5625 228.175781 274.019531 227.625 273.628906 227.984375 Z M 273.628906 227.984375 " fill-opacity="1" fill-rule="nonzero"/><path fill="#ff3131" d="M 270.339844 234.757812 C 266.679688 237.679688 263.402344 240.90625 260.679688 244.726562 C 260.398438 245.125 261.035156 245.617188 261.359375 245.25 C 264.390625 241.800781 267.585938 238.472656 271.144531 235.5625 C 271.714844 235.09375 270.902344 234.304688 270.339844 234.757812 Z M 270.339844 234.757812 " fill-opacity="1" fill-rule="nonzero"/><path fill="#ff3131" d="M 283.9375 117.953125 C 280.867188 122.371094 277.726562 126.808594 274.878906 131.371094 C 274.714844 131.632812 275.105469 131.941406 275.308594 131.707031 C 278.851562 127.652344 281.867188 122.964844 284.378906 118.214844 C 284.535156 117.917969 284.125 117.6875 283.9375 117.953125 Z M 283.9375 117.953125 " fill-opacity="1" fill-rule="nonzero"/><path fill="#ff3131" d="M 286.945312 122.324219 C 285.402344 125.207031 283.539062 127.929688 281.34375 130.355469 C 281.160156 130.5625 281.449219 130.855469 281.652344 130.660156 C 284.066406 128.296875 285.949219 125.632812 287.285156 122.523438 C 287.382812 122.292969 287.070312 122.09375 286.945312 122.324219 Z M 286.945312 122.324219 " fill-opacity="1" fill-rule="nonzero"/><path fill="#ff3131" d="M 291.136719 123.21875 C 288.851562 127.140625 285.988281 130.613281 282.929688 133.949219 C 282.617188 134.289062 283.085938 134.75 283.429688 134.453125 C 286.933594 131.414062 289.617188 127.683594 291.847656 123.636719 C 292.105469 123.171875 291.402344 122.761719 291.136719 123.21875 Z M 291.136719 123.21875 " fill-opacity="1" fill-rule="nonzero"/><path fill="#ff3131" d="M 84.761719 123.671875 C 78.75 130.714844 72.492188 137.566406 66.011719 144.179688 C 65.867188 144.324219 66.089844 144.542969 66.230469 144.398438 C 72.835938 137.878906 79.105469 131.089844 85.066406 123.972656 C 85.246094 123.769531 84.941406 123.460938 84.761719 123.671875 Z M 84.761719 123.671875 " fill-opacity="1" fill-rule="nonzero"/><path fill="#ff3131" d="M 86.6875 129.628906 C 81.175781 136.125 75.03125 141.863281 68.589844 147.417969 C 68.386719 147.589844 68.660156 147.949219 68.875 147.789062 C 75.664062 142.671875 81.667969 136.5625 87.132812 130.070312 C 87.394531 129.765625 86.949219 129.320312 86.6875 129.628906 Z M 86.6875 129.628906 " fill-opacity="1" fill-rule="nonzero"/><path fill="#ff3131" d="M 90.785156 130.894531 C 86.648438 136.363281 81.804688 140.9375 76.660156 145.4375 C 76.425781 145.640625 76.734375 146.050781 76.992188 145.871094 C 82.65625 141.964844 87.441406 136.808594 91.597656 131.367188 C 91.964844 130.886719 91.148438 130.414062 90.785156 130.894531 Z M 90.785156 130.894531 " fill-opacity="1" fill-rule="nonzero"/><path fill="#ff3131" d="M 172.132812 192.644531 C 172.199219 192.644531 172.199219 192.542969 172.132812 192.542969 C 172.066406 192.542969 172.066406 192.644531 172.132812 192.644531 Z M 172.132812 192.644531 " fill-opacity="1" fill-rule="nonzero"/><path fill="#ff3131" d="M 180.28125 187.652344 C 176.191406 191.355469 172.054688 195.390625 169.160156 200.125 C 169.035156 200.332031 169.335938 200.574219 169.5 200.386719 C 173.226562 196.242188 176.617188 191.894531 180.671875 188.039062 C 180.925781 187.792969 180.542969 187.414062 180.28125 187.652344 Z M 180.28125 187.652344 " fill-opacity="1" fill-rule="nonzero"/><path fill="#ff3131" d="M 181.070312 190.800781 C 178.429688 193.183594 175.722656 195.511719 173.3125 198.132812 C 173.136719 198.320312 173.394531 198.566406 173.589844 198.40625 C 176.359375 196.167969 178.863281 193.617188 181.40625 191.132812 C 181.625 190.921875 181.300781 190.597656 181.070312 190.800781 Z M 181.070312 190.800781 " fill-opacity="1" fill-rule="nonzero"/><path fill="#ff3131" d="M 183 193.054688 C 181.550781 194.292969 180.109375 195.523438 178.71875 196.828125 C 178.589844 196.945312 178.765625 197.183594 178.910156 197.074219 C 180.441406 195.90625 181.910156 194.679688 183.390625 193.445312 C 183.660156 193.21875 183.265625 192.824219 183 193.054688 Z M 183 193.054688 " fill-opacity="1" fill-rule="nonzero"/><path fill="#ff3131" d="M 218.160156 173.195312 C 216.507812 174.523438 214.898438 176.289062 214.425781 178.414062 C 214.34375 178.785156 214.824219 178.988281 215.035156 178.667969 C 216.191406 176.921875 217.140625 175.175781 218.714844 173.746094 C 219.097656 173.402344 218.546875 172.882812 218.160156 173.195312 Z M 218.160156 173.195312 " fill-opacity="1" fill-rule="nonzero"/><path fill="#ff3131" d="M 218.882812 175.261719 C 217.960938 176.394531 217.042969 177.511719 216.234375 178.726562 C 216.097656 178.933594 216.40625 179.167969 216.574219 178.988281 C 217.566406 177.949219 218.4375 176.832031 219.328125 175.703125 C 219.574219 175.390625 219.140625 174.945312 218.882812 175.261719 Z M 218.882812 175.261719 " fill-opacity="1" fill-rule="nonzero"/><path fill="#ff3131" d="M 159.128906 83.882812 C 155.960938 89.425781 152.066406 94.445312 148.734375 99.867188 C 148.5 100.25 149.039062 100.660156 149.351562 100.34375 C 153.835938 95.878906 157.136719 89.976562 159.976562 84.382812 C 160.261719 83.820312 159.445312 83.332031 159.128906 83.882812 Z M 159.128906 83.882812 " fill-opacity="1" fill-rule="nonzero"/><path fill="#ff3131" d="M 161.480469 89.105469 C 158.851562 92.738281 156.03125 96.304688 153.734375 100.160156 C 153.554688 100.457031 153.996094 100.828125 154.226562 100.542969 C 157.0625 97.027344 159.445312 93.128906 161.953125 89.382812 C 162.15625 89.082031 161.683594 88.820312 161.480469 89.105469 Z M 161.480469 89.105469 " fill-opacity="1" fill-rule="nonzero"/><path fill="#ff3131" d="M 163.453125 92.105469 C 160.980469 95.886719 158.371094 99.617188 156.117188 103.539062 C 155.925781 103.875 156.40625 104.132812 156.625 103.835938 C 159.316406 100.199219 161.6875 96.308594 164.167969 92.523438 C 164.457031 92.078125 163.742188 91.664062 163.453125 92.105469 Z M 163.453125 92.105469 " fill-opacity="1" fill-rule="nonzero"/><path fill="#ff3131" d="M 275.757812 161.902344 C 275.085938 164.796875 275.5 168.03125 275.574219 170.984375 C 275.613281 172.71875 274.980469 175.878906 276.609375 177.058594 C 280.371094 179.796875 286.207031 176.316406 288.804688 173.605469 C 291.804688 170.480469 293.363281 165.457031 289.503906 162.316406 C 285.824219 159.308594 280.363281 159.5625 276.292969 161.5 C 275.128906 162.054688 276.144531 163.785156 277.308594 163.230469 C 280.507812 161.707031 284.566406 161.507812 287.660156 163.453125 C 292.269531 166.351562 288.589844 171.621094 285.457031 173.902344 C 284.09375 174.898438 282.433594 175.695312 280.726562 175.816406 C 279.300781 175.917969 278.1875 175.917969 277.644531 174.269531 C 277.390625 173.488281 277.59375 172.257812 277.574219 171.453125 C 277.492188 168.355469 277.78125 164.898438 276.929688 161.902344 C 276.769531 161.34375 275.898438 161.304688 275.757812 161.902344 Z M 275.757812 161.902344 " fill-opacity="1" fill-rule="nonzero"/><path fill="#ff3131" d="M 277.652344 160.433594 C 277.71875 160.433594 277.71875 160.332031 277.652344 160.332031 C 277.589844 160.332031 277.589844 160.433594 277.652344 160.433594 Z M 277.652344 160.433594 " fill-opacity="1" fill-rule="nonzero"/><path fill="#ff3131" d="M 216.738281 166.546875 C 206.21875 167.332031 202.464844 182.859375 206.515625 190.929688 C 211.574219 201.003906 224.648438 201.0625 232.703125 194.488281 C 241.25 187.507812 238.15625 174.777344 230.03125 168.671875 C 221.757812 162.441406 209.136719 166.367188 208.382812 177.351562 C 208.351562 177.800781 209.027344 178.117188 209.324219 177.742188 C 213.914062 171.871094 219.144531 166.371094 227.203125 170.683594 C 234.371094 174.519531 238.671875 185.566406 231.910156 191.699219 C 225.769531 197.273438 214.792969 197.789062 209.835938 190.570312 C 204.660156 183.035156 208.386719 170.589844 216.832031 167.207031 C 217.148438 167.078125 217.152344 166.519531 216.738281 166.546875 Z M 216.738281 166.546875 " fill-opacity="1" fill-rule="nonzero"/><path fill="#ff3131" d="M 335.238281 153.082031 C 334.644531 150.226562 333.40625 147.550781 332.332031 144.84375 C 331.089844 141.71875 329.914062 138.570312 328.585938 135.5 C 326.417969 128.820312 323.71875 122.347656 319.882812 116.316406 C 312.738281 105.074219 301.984375 95.871094 290.339844 88.917969 C 287.679688 86.421875 285.125 83.816406 282.328125 81.472656 C 275.125 75.449219 267.324219 70.480469 258.714844 66.742188 C 241.769531 59.390625 223.652344 55.753906 205.21875 54.929688 C 171.523438 53.421875 138.011719 61.996094 108.628906 78.28125 C 103.210938 78.710938 97.859375 79.449219 92.636719 80.648438 C 75.234375 84.652344 61.773438 95.980469 53.875 111.851562 C 45.976562 127.710938 40.667969 146.375 39.472656 164.117188 C 39.203125 168.074219 38.96875 172.496094 39.074219 176.96875 C 36.183594 179.921875 34.519531 184.066406 33.921875 188.703125 C 31.757812 205.488281 38.824219 221.597656 45.816406 236.410156 C 48.210938 241.480469 50.722656 246.507812 53.359375 251.472656 C 57.601562 261.558594 63.300781 271.011719 70.507812 279.457031 C 72.484375 281.777344 75.085938 283.269531 77.917969 284.039062 C 80.886719 288.171875 84.074219 292.246094 88.136719 295.183594 C 93.605469 299.136719 99.710938 302.140625 106.042969 304.445312 C 108.296875 305.265625 110.613281 305.980469 112.96875 306.609375 C 116.042969 310.769531 120.707031 314.054688 125.117188 316.003906 C 138.703125 322.019531 154.792969 320.921875 169.570312 319.523438 C 181.550781 322.691406 194.3125 322.027344 206.292969 318.769531 C 220.382812 314.9375 234.554688 309.894531 248.066406 304.359375 C 261.601562 298.808594 274.347656 292.210938 284.851562 281.820312 C 288.441406 278.269531 288.914062 272.074219 286.511719 267.714844 C 289.109375 261.636719 290 254.363281 290.136719 248.484375 C 290.1875 246.234375 289.625 244.28125 288.65625 242.636719 C 291.199219 241.125 293.582031 239.308594 295.738281 237.136719 C 303.367188 229.441406 307.699219 218.414062 306.921875 207.570312 C 306.054688 195.449219 291.683594 191.875 284.777344 201.574219 C 282.550781 204.703125 280.863281 208.105469 279.078125 211.492188 C 278.25 213.058594 277.414062 214.628906 276.429688 216.109375 C 276.253906 216.378906 276.152344 216.535156 276.097656 216.625 C 276.0625 216.667969 276.042969 216.703125 276.007812 216.75 C 275.859375 216.953125 274.925781 217.753906 274.769531 217.960938 C 272.671875 218.996094 268.824219 218.410156 265.898438 218.058594 C 260.871094 217.449219 255.886719 216.292969 250.980469 215.050781 C 250.554688 214.945312 250.121094 214.863281 249.6875 214.804688 C 251.898438 212.808594 253.53125 210.367188 253.675781 207.320312 C 253.839844 203.933594 250.488281 202.179688 247.585938 202.679688 C 243.710938 203.34375 241.289062 207.09375 237.925781 208.988281 C 234.257812 211.054688 229.902344 212.285156 225.710938 212.617188 C 221.175781 212.976562 216.523438 212.246094 212.101562 211.261719 C 209.886719 210.765625 207.675781 209.894531 205.445312 209.1875 C 203.683594 207.507812 202.027344 205.707031 200.375 203.820312 C 198.3125 201.46875 196.46875 198.703125 194.304688 196.335938 C 193.644531 192.363281 193.109375 188.378906 192.535156 184.3125 C 192.019531 180.683594 191.671875 176.84375 190.144531 173.445312 C 191.503906 172.558594 192.71875 171.449219 193.726562 170.035156 C 194.773438 168.570312 195.496094 167.058594 195.984375 165.511719 C 196.75 165.035156 197.425781 164.332031 197.941406 163.359375 C 198.914062 161.632812 199.367188 159.179688 200.527344 157.625 C 200.550781 157.574219 200.566406 157.535156 200.589844 157.484375 C 201.476562 157.285156 202.363281 157.082031 203.253906 156.878906 C 207.703125 155.867188 212.15625 154.851562 216.609375 153.835938 C 219.082031 153.277344 220.410156 151.691406 220.839844 149.855469 C 225.878906 149.167969 230.683594 146.25 233.320312 141.929688 C 235.019531 141.875 236.714844 141.8125 238.410156 141.734375 C 245.289062 141.402344 252.089844 141.230469 258.964844 141.800781 C 259.34375 141.832031 259.929688 141.90625 260.488281 141.980469 C 260.671875 144.328125 261.804688 146.660156 263.746094 148.546875 C 267.675781 152.371094 273.398438 151.511719 275.789062 146.738281 C 281.332031 148.726562 287.144531 148.65625 292.113281 146.1875 C 295.429688 147.300781 298.75 148.382812 302.132812 148.984375 C 302.734375 149.09375 303.324219 149.144531 303.914062 149.171875 C 304.222656 150.25 304.535156 151.328125 304.867188 152.421875 C 306.960938 159.34375 309.109375 165.34375 314.585938 169.945312 C 322.292969 176.414062 333.867188 172.144531 334.964844 163.003906 C 335.605469 159.675781 335.964844 156.582031 335.238281 153.082031 Z M 134.742188 155.734375 C 137.734375 152.59375 141.757812 151.171875 146.085938 150.5625 C 156.226562 152.46875 166.839844 152.289062 177.058594 152.398438 C 179.644531 152.425781 182.226562 152.484375 184.808594 152.546875 C 186.144531 156.132812 187.402344 160.691406 185.035156 163.429688 C 183.597656 165.09375 181.222656 164.902344 179.195312 165.074219 C 175.894531 165.355469 172.59375 165.585938 169.292969 165.84375 C 165.527344 166.132812 162.640625 169.335938 163.667969 173.230469 C 164.214844 175.308594 164.660156 177.214844 165.320312 178.960938 C 161.542969 189.105469 163.042969 201.96875 164.144531 211.984375 C 164.15625 212.085938 164.167969 212.191406 164.179688 212.296875 C 163.78125 212.898438 163.441406 213.5625 163.199219 214.308594 C 162.828125 215.433594 162.457031 216.675781 162.050781 217.949219 C 161.644531 217.910156 161.242188 217.859375 160.839844 217.808594 C 157.140625 217.304688 153.644531 216.890625 150.359375 214.992188 C 148.980469 214.195312 147.667969 214.417969 146.734375 215.171875 C 147.242188 211.742188 146.066406 208.925781 144.082031 206.988281 C 144.476562 206.335938 144.773438 205.582031 144.953125 204.738281 C 147.660156 204.773438 150.304688 203.140625 150.523438 199.785156 C 151.585938 199.125 152.40625 198.121094 152.6875 196.789062 C 154.316406 189.035156 153.894531 181.082031 151.113281 173.6875 C 153.023438 172.34375 154.058594 170.390625 152.738281 167.554688 C 150.46875 162.6875 141.871094 163.625 137.089844 164.988281 C 136.535156 165.113281 135.976562 165.308594 135.414062 165.546875 C 134.742188 162.707031 134.03125 159.847656 132.773438 157.300781 C 133.445312 156.914062 134.109375 156.398438 134.742188 155.734375 Z M 144.796875 237.136719 C 145.035156 231.378906 144.902344 225.550781 145.804688 219.828125 C 147.75 224.050781 150.730469 227.308594 154.339844 229.46875 C 152.410156 230.796875 150.535156 232.066406 148.96875 234.015625 C 147.984375 235.238281 147.167969 236.578125 146.523438 237.984375 C 145.976562 237.664062 145.402344 237.375 144.796875 237.136719 Z M 84.777344 162.398438 C 87.679688 159.863281 91.425781 157.722656 94.957031 156.183594 C 98.136719 154.796875 101.578125 153.753906 105.011719 152.933594 C 109.554688 154.273438 114.289062 155.074219 118.777344 156.753906 C 122.097656 157.996094 124.109375 159.417969 125.304688 162.464844 C 125.09375 162.5 124.886719 162.597656 124.695312 162.769531 C 123.015625 164.300781 121.050781 166.679688 120.054688 169.199219 C 117.710938 167.949219 115.414062 166.566406 112.921875 165.644531 C 106.742188 163.363281 98.875 162.261719 94.035156 167.671875 C 93.550781 168.210938 93.851562 168.914062 94.476562 169.082031 C 94.152344 170.886719 94.878906 172.984375 97.722656 174.324219 C 99.71875 175.261719 101.9375 175 104 175.652344 C 106.8125 176.542969 108.980469 178.890625 111.300781 180.605469 C 116.183594 184.214844 121.4375 187.324219 125.46875 191.929688 C 125.808594 192.320312 126.167969 192.648438 126.535156 192.921875 C 125.644531 196.613281 125.519531 200.394531 125.046875 204.394531 C 125.039062 204.4375 125.035156 204.480469 125.027344 204.519531 C 122.054688 208.121094 118.070312 211.496094 114.597656 213.667969 C 113.265625 214.5 111.902344 215.078125 110.507812 215.457031 C 107.988281 215.023438 105.449219 214.695312 102.914062 214.464844 C 100.746094 214.261719 98.589844 214.195312 96.433594 214.210938 C 91.816406 212.703125 87.195312 210.585938 82.792969 209.167969 C 82.664062 208.429688 82.539062 207.691406 82.421875 206.957031 C 82.398438 206.6875 82.183594 205.074219 82.148438 204.6875 C 81.914062 202.40625 81.746094 200.117188 81.640625 197.824219 C 83.28125 198.316406 84.992188 199.1875 86.308594 199.628906 C 88.96875 200.511719 91.644531 201.40625 94.34375 202.15625 C 98.15625 203.207031 103.679688 204.453125 107.367188 202.3125 C 109.722656 200.945312 110.902344 198.253906 109.519531 195.742188 C 109.097656 194.972656 108.511719 194.394531 107.828125 193.9375 C 108.078125 192.179688 107.445312 190.371094 105.507812 189.457031 C 98.21875 186.007812 86.683594 184.171875 83.347656 175.878906 C 82.160156 172.933594 81.609375 169.582031 81.582031 166.183594 C 82.511719 164.839844 83.484375 163.527344 84.777344 162.398438 Z M 84.777344 162.398438 " fill-opacity="1" fill-rule="nonzero"/><path fill="#ff3131" d="M 229.710938 172.117188 C 229.585938 171.351562 229.148438 170.636719 228.414062 170.214844 C 226.726562 169.253906 224.703125 168.699219 222.78125 169.199219 C 222.539062 169.265625 222.304688 169.339844 222.066406 169.417969 C 212.992188 167.242188 205.574219 175.003906 205.4375 183.804688 C 205.308594 192.351562 211.992188 199.640625 220.585938 199.984375 C 229.332031 200.328125 237.121094 192.875 236.660156 183.984375 C 236.394531 178.773438 233.640625 174.570312 229.710938 172.117188 Z M 229.710938 172.117188 " fill-opacity="1" fill-rule="nonzero"/><path fill="#ff3131" d="M 289.242188 164.542969 C 288.578125 163.28125 287.417969 162.34375 285.929688 161.980469 C 285.746094 161.9375 285.582031 161.957031 285.425781 162.003906 C 285.125 161.402344 284.132812 161.160156 283.707031 161.792969 C 282.054688 161.472656 280.292969 161.773438 278.605469 161.964844 C 278.539062 161.890625 278.417969 161.882812 278.355469 161.980469 C 278.351562 161.984375 278.351562 161.988281 278.351562 161.992188 C 278.238281 162.003906 278.125 162.019531 278.015625 162.03125 C 277.75 162.054688 277.550781 162.171875 277.394531 162.328125 C 277.101562 162.421875 276.851562 162.679688 276.816406 163.09375 C 276.710938 164.234375 276.921875 165.402344 277.105469 166.550781 C 276.9375 169.136719 277.351562 171.914062 277.617188 174.140625 C 277.640625 174.34375 277.730469 174.503906 277.835938 174.640625 C 277.855469 174.710938 277.890625 174.761719 277.925781 174.820312 C 277.71875 175.515625 278.214844 176.398438 279.082031 176.085938 C 279.226562 176.03125 279.371094 175.996094 279.519531 175.957031 C 279.710938 175.988281 279.917969 175.949219 280.101562 175.847656 C 280.410156 175.804688 280.726562 175.785156 281.035156 175.765625 C 281.203125 175.90625 281.414062 176.011719 281.667969 176.039062 C 283.683594 176.246094 285.5625 175.097656 286.414062 173.339844 C 287.203125 172.660156 287.925781 171.902344 288.507812 171.058594 C 289.582031 170.4375 290.386719 169.480469 290.644531 168.160156 C 290.886719 166.910156 290.65625 164.960938 289.242188 164.542969 Z M 289.242188 164.542969 " fill-opacity="1" fill-rule="nonzero"/><path fill="#ffffff" d="M 246.269531 93.78125 C 240.792969 100.378906 234.84375 106.488281 229.128906 112.867188 C 229.046875 112.957031 229.171875 113.082031 229.265625 113 C 235.480469 107.191406 241.046875 100.523438 246.457031 93.972656 C 246.566406 93.839844 246.378906 93.652344 246.269531 93.78125 Z M 246.269531 93.78125 " fill-opacity="1" fill-rule="nonzero"/><path fill="#ffffff" d="M 248.066406 98.433594 C 243.371094 103.722656 238.429688 108.925781 234.105469 114.523438 C 234.03125 114.621094 234.191406 114.738281 234.269531 114.652344 C 239.210938 109.605469 243.667969 103.996094 248.253906 98.621094 C 248.363281 98.492188 248.179688 98.304688 248.066406 98.433594 Z M 248.066406 98.433594 " fill-opacity="1" fill-rule="nonzero"/><path fill="#ffffff" d="M 246.851562 105.699219 C 242.476562 108.835938 238.691406 112.679688 235.777344 117.207031 C 235.679688 117.359375 235.914062 117.488281 236.015625 117.347656 C 239.160156 113.03125 242.761719 109.203125 246.996094 105.941406 C 247.136719 105.832031 247 105.589844 246.851562 105.699219 Z M 246.851562 105.699219 " fill-opacity="1" fill-rule="nonzero"/><path fill="#ffffff" d="M 154.214844 256.851562 C 153.773438 257.824219 152.226562 259.027344 151.503906 259.867188 C 150.867188 260.609375 150.238281 261.355469 149.605469 262.105469 C 148.238281 263.71875 146.875 265.34375 145.507812 266.964844 C 142.875 270.09375 140.128906 273.164062 137.679688 276.445312 C 137.511719 276.671875 137.878906 276.945312 138.066406 276.746094 C 138.433594 276.34375 138.8125 275.960938 139.210938 275.601562 C 139.363281 275.457031 139.140625 275.238281 138.984375 275.375 C 138.546875 276.296875 138.675781 276.269531 139.371094 275.292969 C 139.796875 274.800781 140.21875 274.300781 140.636719 273.800781 C 141.265625 273.054688 141.890625 272.300781 142.515625 271.546875 C 144.082031 269.671875 145.640625 267.785156 147.199219 265.898438 C 148.65625 264.140625 150.113281 262.382812 151.558594 260.613281 C 152.441406 259.535156 154.167969 258.140625 154.445312 256.746094 C 154.457031 256.671875 154.421875 256.59375 154.347656 256.574219 C 154.292969 256.558594 154.242188 256.546875 154.191406 256.53125 C 154.136719 256.519531 154.058594 256.542969 154.035156 256.597656 C 154.019531 256.632812 154 256.675781 153.984375 256.714844 C 153.90625 256.871094 154.144531 257.011719 154.214844 256.851562 Z M 154.214844 256.851562 " fill-opacity="1" fill-rule="nonzero"/><path fill="#ffffff" d="M 156.671875 261.363281 C 152.191406 266.351562 147.175781 271.734375 143.8125 277.570312 C 143.710938 277.742188 143.949219 277.933594 144.089844 277.785156 C 146.433594 275.304688 148.367188 272.378906 150.472656 269.691406 C 152.601562 266.976562 154.765625 264.300781 156.90625 261.59375 C 157.039062 261.433594 156.820312 261.199219 156.671875 261.363281 Z M 156.671875 261.363281 " fill-opacity="1" fill-rule="nonzero"/><path fill="#ffffff" d="M 158.558594 266.421875 C 154.050781 270.5625 149.804688 275.035156 146.328125 280.085938 C 146.21875 280.242188 146.46875 280.4375 146.59375 280.289062 C 150.523438 275.605469 154.472656 270.988281 158.890625 266.753906 C 159.113281 266.542969 158.78125 266.21875 158.558594 266.421875 Z M 158.558594 266.421875 " fill-opacity="1" fill-rule="nonzero"/><path fill="#ffffff" d="M 230.898438 232.046875 C 227.894531 235.082031 225.101562 238.324219 222.09375 241.359375 C 219.085938 244.398438 215.90625 247.257812 212.898438 250.296875 C 212.726562 250.472656 212.980469 250.703125 213.164062 250.558594 C 219.6875 245.332031 226.042969 238.863281 231.109375 232.207031 C 231.203125 232.085938 231.003906 231.941406 230.898438 232.046875 Z M 230.898438 232.046875 " fill-opacity="1" fill-rule="nonzero"/><path fill="#ffffff" d="M 231.34375 237.042969 C 226.792969 241.480469 221.9375 245.855469 217.898438 250.777344 C 217.761719 250.941406 217.972656 251.164062 218.136719 251.015625 C 222.902344 246.78125 227.171875 241.882812 231.65625 237.355469 C 231.859375 237.152344 231.550781 236.84375 231.34375 237.042969 Z M 231.34375 237.042969 " fill-opacity="1" fill-rule="nonzero"/><path fill="#ffffff" d="M 231.734375 242.46875 C 227.128906 246.671875 222.761719 251.195312 218.640625 255.878906 C 218.46875 256.074219 218.742188 256.355469 218.929688 256.164062 C 223.339844 251.746094 227.761719 247.324219 232.101562 242.835938 C 232.335938 242.59375 231.984375 242.246094 231.734375 242.46875 Z M 231.734375 242.46875 " fill-opacity="1" fill-rule="nonzero"/><path fill="#ffffff" d="M 137.082031 118.769531 C 134.332031 121.132812 132.328125 124.28125 130.171875 127.167969 C 127.589844 130.617188 124.832031 134 122.46875 137.601562 C 122.394531 137.710938 122.566406 137.847656 122.652344 137.746094 C 125.117188 134.816406 127.300781 131.621094 129.585938 128.546875 C 132 125.300781 134.234375 121.652344 137.277344 118.957031 C 137.402344 118.84375 137.214844 118.660156 137.082031 118.769531 Z M 137.082031 118.769531 " fill-opacity="1" fill-rule="nonzero"/><path fill="#ffffff" d="M 138.941406 123.316406 C 135.339844 127.503906 131.882812 131.800781 127.953125 135.679688 C 127.839844 135.789062 127.984375 135.972656 128.117188 135.894531 C 130.257812 134.679688 131.773438 132.589844 133.308594 130.714844 C 135.265625 128.324219 137.199219 125.917969 139.136719 123.507812 C 139.242188 123.375 139.058594 123.179688 138.941406 123.316406 Z M 138.941406 123.316406 " fill-opacity="1" fill-rule="nonzero"/><path fill="#ffffff" d="M 140.867188 125.253906 C 138.605469 127.773438 136.359375 130.316406 134.125 132.863281 C 132.09375 135.183594 129.769531 137.3125 127.964844 139.808594 C 127.738281 140.117188 128.214844 140.453125 128.476562 140.203125 C 130.796875 137.984375 132.675781 135.269531 134.785156 132.839844 C 136.902344 130.394531 139.011719 127.949219 141.09375 125.480469 C 141.226562 125.324219 141.007812 125.097656 140.867188 125.253906 Z M 140.867188 125.253906 " fill-opacity="1" fill-rule="nonzero"/><path fill="#ffffff" d="M 50.070312 208.089844 C 50.886719 207.390625 50.515625 207.8125 50.265625 208.484375 C 50.007812 209.183594 49.582031 209.886719 49.246094 210.558594 C 48.628906 211.800781 47.988281 213.035156 47.335938 214.257812 C 46.035156 216.707031 44.558594 219.082031 43.328125 221.5625 C 43.246094 221.730469 43.417969 221.917969 43.589844 221.824219 C 43.738281 221.738281 43.886719 221.652344 44.035156 221.570312 C 44.171875 221.492188 44.082031 221.257812 43.929688 221.308594 C 44.601562 221.082031 45.488281 218.871094 45.863281 218.21875 C 46.628906 216.878906 47.359375 215.515625 48.066406 214.144531 C 49.269531 211.808594 50.5 209.4375 51.40625 206.964844 C 51.460938 206.816406 51.25 206.707031 51.144531 206.816406 C 50.765625 207.21875 50.367188 207.601562 49.941406 207.960938 C 49.851562 208.039062 49.980469 208.167969 50.070312 208.089844 Z M 50.070312 208.089844 " fill-opacity="1" fill-rule="nonzero"/><path fill="#ffffff" d="M 55.875 207.933594 C 52.332031 212.742188 48.707031 217.628906 45.855469 222.886719 C 45.757812 223.070312 46.011719 223.210938 46.125 223.046875 C 49.582031 218.140625 52.707031 213.007812 56.222656 208.136719 C 56.375 207.925781 56.027344 207.726562 55.875 207.933594 Z M 55.875 207.933594 " fill-opacity="1" fill-rule="nonzero"/><path fill="#ffffff" d="M 56.582031 211.308594 C 52.933594 216.246094 49.691406 221.460938 47.164062 227.066406 C 47.085938 227.242188 47.335938 227.398438 47.429688 227.21875 C 50.242188 221.765625 53.300781 216.476562 56.890625 211.488281 C 57.023438 211.300781 56.71875 211.128906 56.582031 211.308594 Z M 56.582031 211.308594 " fill-opacity="1" fill-rule="nonzero"/><path fill="#ffffff" d="M 180.765625 173.847656 C 178.667969 178.5 176.695312 183.207031 174.570312 187.84375 C 174.484375 188.03125 174.746094 188.191406 174.847656 188.007812 C 177.253906 183.523438 179.441406 178.796875 181.027344 173.957031 C 181.070312 173.808594 180.832031 173.699219 180.765625 173.847656 Z M 180.765625 173.847656 " fill-opacity="1" fill-rule="nonzero"/><path fill="#ffffff" d="M 181.996094 178.300781 C 180.671875 182.625 177.347656 186.003906 176.222656 190.386719 C 176.179688 190.542969 176.402344 190.597656 176.457031 190.453125 C 178.039062 186.234375 181.042969 182.714844 182.34375 178.394531 C 182.410156 178.171875 182.0625 178.074219 181.996094 178.300781 Z M 181.996094 178.300781 " fill-opacity="1" fill-rule="nonzero"/><path fill="#ffffff" d="M 184.453125 178.136719 C 183.027344 182.046875 181.457031 185.894531 179.816406 189.71875 C 179.792969 189.78125 179.882812 189.835938 179.914062 189.773438 C 181.632812 185.972656 183.167969 182.09375 184.589844 178.175781 C 184.625 178.089844 184.488281 178.050781 184.453125 178.136719 Z M 184.453125 178.136719 " fill-opacity="1" fill-rule="nonzero"/><path fill="#ffffff" d="M 198.226562 103.492188 C 196.765625 107.515625 195.183594 111.488281 193.410156 115.382812 C 191.804688 118.917969 190.238281 123.328125 187.550781 126.183594 C 187.453125 126.289062 187.601562 126.429688 187.707031 126.339844 C 190.636719 123.886719 192.195312 118.949219 193.722656 115.5625 C 195.492188 111.636719 197.078125 107.632812 198.480469 103.558594 C 198.539062 103.398438 198.28125 103.332031 198.226562 103.492188 Z M 198.226562 103.492188 " fill-opacity="1" fill-rule="nonzero"/><path fill="#ffffff" d="M 202.59375 109.59375 C 198.703125 117.140625 194.269531 124.351562 189.546875 131.402344 C 189.460938 131.527344 189.664062 131.640625 189.75 131.519531 C 194.703125 124.632812 198.996094 117.296875 202.851562 109.746094 C 202.941406 109.574219 202.683594 109.421875 202.59375 109.59375 Z M 202.59375 109.59375 " fill-opacity="1" fill-rule="nonzero"/><path fill="#ffffff" d="M 199.824219 119.136719 C 200.453125 118.664062 202.304688 118.664062 202.742188 119.4375 C 202.867188 119.660156 202.28125 120.925781 202.191406 121.183594 C 201.648438 122.757812 200.980469 124.289062 200.25 125.78125 C 199.105469 128.121094 197.800781 130.375 196.511719 132.636719 C 196.449219 132.75 196.621094 132.851562 196.691406 132.738281 C 199.097656 128.75 201.722656 124.523438 202.839844 119.9375 C 203.472656 117.328125 201.429688 117.859375 199.8125 119.109375 C 199.792969 119.121094 199.808594 119.148438 199.824219 119.136719 Z M 199.824219 119.136719 " fill-opacity="1" fill-rule="nonzero"/></svg>