<svg xmlns="http://www.w3.org/2000/svg" xmlns:xlink="http://www.w3.org/1999/xlink" width="500" zoomAndPan="magnify" viewBox="0 0 375 374.999991" height="500" preserveAspectRatio="xMidYMid meet" version="1.0"><defs><clipPath id="28b9b3c64e"><path d="M 102.421875 0 L 237 0 L 237 375 L 102.421875 375 Z M 102.421875 0 " clip-rule="nonzero"/></clipPath><clipPath id="bafa89e687"><path d="M 217 231 L 272.671875 231 L 272.671875 246 L 217 246 Z M 217 231 " clip-rule="nonzero"/></clipPath><clipPath id="0731abdf20"><path d="M 217 169 L 272.671875 169 L 272.671875 184 L 217 184 Z M 217 169 " clip-rule="nonzero"/></clipPath><clipPath id="6bb75998c7"><path d="M 217 107 L 272.671875 107 L 272.671875 122 L 217 122 Z M 217 107 " clip-rule="nonzero"/></clipPath><clipPath id="c01db73ee8"><path d="M 217 46 L 272.671875 46 L 272.671875 60 L 217 60 Z M 217 46 " clip-rule="nonzero"/></clipPath><clipPath id="4f6ffbcca8"><path d="M 173.734375 304.535156 L 203.820312 304.535156 L 203.820312 316.859375 L 173.734375 316.859375 Z M 173.734375 304.535156 " clip-rule="nonzero"/></clipPath><clipPath id="cce2a4d837"><path d="M 175.726562 312.148438 C 202.875 312.226562 203.398438 312.601562 203.625 313.125 C 203.851562 313.574219 203.773438 314.398438 203.476562 314.851562 C 203.175781 315.300781 202.648438 315.523438 201.898438 315.675781 C 200.550781 315.976562 198 315.449219 195.601562 315.074219 C 192.449219 314.625 187.574219 313.949219 184.800781 312.898438 C 182.851562 312.074219 181.425781 311.101562 180.226562 310.050781 C 179.25 309.300781 178.125 308.324219 177.824219 307.5 C 177.601562 306.824219 177.675781 306 177.976562 305.550781 C 178.351562 305.023438 179.101562 304.574219 179.699219 304.574219 C 180.300781 304.574219 181.125 305.023438 181.425781 305.476562 C 181.800781 305.925781 181.800781 306.898438 181.648438 307.425781 C 181.574219 307.875 181.273438 308.25 180.824219 308.476562 C 180.375 308.699219 179.398438 308.851562 178.875 308.550781 C 178.351562 308.25 177.675781 306.976562 177.675781 306.375 C 177.675781 305.925781 177.976562 305.476562 178.273438 305.175781 C 178.726562 304.875 179.398438 304.5 180.148438 304.648438 C 181.648438 304.949219 184.425781 308.398438 186 309.300781 C 186.898438 309.824219 187.199219 309.898438 188.324219 310.125 C 191.023438 310.875 200.773438 310.949219 202.726562 312.148438 C 203.398438 312.523438 203.699219 313.050781 203.773438 313.574219 C 203.851562 314.023438 203.773438 314.550781 203.476562 314.851562 C 202.949219 315.375 201.75 315.523438 200.101562 315.824219 C 195.75 316.425781 179.25 317.476562 175.726562 316.199219 C 174.601562 315.75 173.925781 315.074219 173.773438 314.398438 C 173.625 313.875 174.074219 313.050781 174.375 312.675781 C 174.75 312.375 175.726562 312.148438 175.726562 312.148438 " clip-rule="nonzero"/></clipPath></defs><path fill="#00bf63" d="M 176.101562 270 C 176.101562 269.773438 176.101562 269.625 176.101562 269.398438 L 176.101562 38.175781 C 176.101562 34.5 173.101562 31.5 169.425781 31.5 C 165.75 31.5 162.75 34.5 162.75 38.175781 L 162.75 269.398438 C 162.75 269.625 162.75 269.773438 162.75 270 C 144.601562 273.148438 130.800781 288.976562 130.800781 308.023438 C 130.800781 329.324219 148.050781 346.648438 169.425781 346.648438 C 190.726562 346.648438 208.050781 329.398438 208.050781 308.023438 C 208.050781 288.976562 194.25 273.148438 176.101562 270 Z M 176.101562 270 " fill-opacity="1" fill-rule="nonzero"/><g clip-path="url(#28b9b3c64e)"><path fill="#00bf63" d="M 207.601562 252.976562 L 207.601562 38.175781 C 207.601562 17.101562 190.5 0 169.425781 0 C 148.425781 0 131.25 17.101562 131.25 38.175781 L 131.25 252.976562 C 123.074219 258.675781 116.175781 266.175781 111.226562 274.800781 C 105.523438 284.851562 102.449219 296.324219 102.449219 308.023438 C 102.449219 344.925781 132.523438 375 169.425781 375 C 206.324219 375 236.398438 344.925781 236.398438 308.023438 C 236.398438 296.324219 233.324219 284.851562 227.625 274.800781 C 222.675781 266.101562 215.773438 258.675781 207.601562 252.976562 Z M 169.425781 361.574219 C 139.875 361.574219 115.800781 337.5 115.800781 307.949219 C 115.800781 289.125 125.398438 272.101562 141.449219 262.199219 C 143.398438 261 144.675781 258.824219 144.675781 256.5 L 144.675781 38.175781 C 144.675781 24.523438 155.773438 13.425781 169.425781 13.425781 C 183.074219 13.425781 194.175781 24.523438 194.175781 38.175781 L 194.175781 256.574219 C 194.175781 258.898438 195.375 261.074219 197.398438 262.273438 C 213.449219 272.101562 223.050781 289.199219 223.050781 308.023438 C 223.050781 337.574219 198.976562 361.574219 169.425781 361.574219 Z M 169.425781 361.574219 " fill-opacity="1" fill-rule="nonzero"/></g><g clip-path="url(#bafa89e687)"><path fill="#00bf63" d="M 265.875 231.675781 L 224.324219 231.675781 C 220.648438 231.675781 217.648438 234.675781 217.648438 238.351562 C 217.648438 242.023438 220.648438 245.023438 224.324219 245.023438 L 265.875 245.023438 C 269.550781 245.023438 272.550781 242.023438 272.550781 238.351562 C 272.550781 234.675781 269.550781 231.675781 265.875 231.675781 Z M 265.875 231.675781 " fill-opacity="1" fill-rule="nonzero"/></g><path fill="#00bf63" d="M 224.324219 214.125 L 249.074219 214.125 C 252.75 214.125 255.75 211.125 255.75 207.449219 C 255.75 203.773438 252.75 200.773438 249.074219 200.773438 L 224.324219 200.773438 C 220.648438 200.773438 217.648438 203.773438 217.648438 207.449219 C 217.648438 211.125 220.648438 214.125 224.324219 214.125 Z M 224.324219 214.125 " fill-opacity="1" fill-rule="nonzero"/><g clip-path="url(#0731abdf20)"><path fill="#00bf63" d="M 265.875 169.800781 L 224.324219 169.800781 C 220.648438 169.800781 217.648438 172.800781 217.648438 176.476562 C 217.648438 180.148438 220.648438 183.148438 224.324219 183.148438 L 265.875 183.148438 C 269.550781 183.148438 272.550781 180.148438 272.550781 176.476562 C 272.550781 172.800781 269.550781 169.800781 265.875 169.800781 Z M 265.875 169.800781 " fill-opacity="1" fill-rule="nonzero"/></g><path fill="#00bf63" d="M 224.324219 152.25 L 249.074219 152.25 C 252.75 152.25 255.75 149.25 255.75 145.574219 C 255.75 141.898438 252.75 138.898438 249.074219 138.898438 L 224.324219 138.898438 C 220.648438 138.898438 217.648438 141.898438 217.648438 145.574219 C 217.648438 149.25 220.648438 152.25 224.324219 152.25 Z M 224.324219 152.25 " fill-opacity="1" fill-rule="nonzero"/><g clip-path="url(#6bb75998c7)"><path fill="#00bf63" d="M 265.875 107.925781 L 224.324219 107.925781 C 220.648438 107.925781 217.648438 110.925781 217.648438 114.601562 C 217.648438 118.273438 220.648438 121.273438 224.324219 121.273438 L 265.875 121.273438 C 269.550781 121.273438 272.550781 118.273438 272.550781 114.601562 C 272.550781 110.925781 269.550781 107.925781 265.875 107.925781 Z M 265.875 107.925781 " fill-opacity="1" fill-rule="nonzero"/></g><path fill="#00bf63" d="M 224.324219 90.375 L 249.074219 90.375 C 252.75 90.375 255.75 87.375 255.75 83.699219 C 255.75 80.023438 252.75 77.023438 249.074219 77.023438 L 224.324219 77.023438 C 220.648438 77.023438 217.648438 80.023438 217.648438 83.699219 C 217.648438 87.375 220.648438 90.375 224.324219 90.375 Z M 224.324219 90.375 " fill-opacity="1" fill-rule="nonzero"/><g clip-path="url(#c01db73ee8)"><path fill="#00bf63" d="M 224.324219 59.476562 L 265.875 59.476562 C 269.550781 59.476562 272.550781 56.476562 272.550781 52.800781 C 272.550781 49.125 269.550781 46.125 265.875 46.125 L 224.324219 46.125 C 220.648438 46.125 217.648438 49.125 217.648438 52.800781 C 217.648438 56.476562 220.648438 59.476562 224.324219 59.476562 Z M 224.324219 59.476562 " fill-opacity="1" fill-rule="nonzero"/></g><g clip-path="url(#4f6ffbcca8)"><g clip-path="url(#cce2a4d837)"><path fill="#00bf63" d="M 170.773438 301.574219 L 206.851562 301.574219 L 206.851562 319.199219 L 170.773438 319.199219 Z M 170.773438 301.574219 " fill-opacity="1" fill-rule="nonzero"/></g></g></svg>