<svg xmlns="http://www.w3.org/2000/svg" xmlns:xlink="http://www.w3.org/1999/xlink" width="500" zoomAndPan="magnify" viewBox="0 0 375 374.999991" height="500" preserveAspectRatio="xMidYMid meet" version="1.0"><defs><clipPath id="03c0409dc0"><path d="M 102.421875 0 L 237 0 L 237 375 L 102.421875 375 Z M 102.421875 0 " clip-rule="nonzero"/></clipPath><clipPath id="7229b60287"><path d="M 217 231 L 272.671875 231 L 272.671875 246 L 217 246 Z M 217 231 " clip-rule="nonzero"/></clipPath><clipPath id="d74d5dfab4"><path d="M 217 169 L 272.671875 169 L 272.671875 184 L 217 184 Z M 217 169 " clip-rule="nonzero"/></clipPath><clipPath id="ff44685f76"><path d="M 217 107 L 272.671875 107 L 272.671875 122 L 217 122 Z M 217 107 " clip-rule="nonzero"/></clipPath><clipPath id="6b4625247f"><path d="M 217 46 L 272.671875 46 L 272.671875 60 L 217 60 Z M 217 46 " clip-rule="nonzero"/></clipPath><clipPath id="7f398f7829"><path d="M 148.65625 296.78125 L 177.730469 296.78125 L 177.730469 309.820312 L 148.65625 309.820312 Z M 148.65625 296.78125 " clip-rule="nonzero"/></clipPath><clipPath id="184108350f"><path d="M 176.175781 308.324219 C 167.699219 309.976562 165.074219 309.898438 162.226562 309.601562 C 158.773438 309.148438 153.226562 308.550781 151.050781 306.976562 C 149.699219 306 148.5 304.273438 148.726562 303.148438 C 149.101562 301.800781 151.800781 300.675781 154.125 299.699219 C 157.5 298.351562 164.398438 296.25 167.550781 297 C 169.5 297.449219 171.601562 299.25 171.824219 300.300781 C 171.976562 300.976562 171.375 302.101562 170.851562 302.324219 C 170.25 302.550781 168.601562 301.949219 168.300781 301.425781 C 168 300.976562 168.148438 300.148438 168.375 299.699219 C 168.675781 299.25 169.425781 298.800781 169.949219 298.800781 C 170.476562 298.875 171.601562 299.550781 171.75 300.148438 C 171.898438 300.75 171 302.25 170.476562 302.476562 C 169.949219 302.699219 169.125 302.398438 168.75 302.101562 C 168.375 301.726562 168.675781 300.898438 168.074219 300.601562 C 166.273438 299.699219 152.175781 302.625 152.101562 303.601562 C 152.101562 304.351562 159.148438 305.550781 162.300781 305.925781 C 164.773438 306.226562 166.949219 306.300781 169.273438 306.074219 C 171.601562 305.851562 174.824219 304.125 176.25 304.574219 C 177 304.800781 177.601562 305.625 177.675781 306.226562 C 177.675781 306.824219 176.175781 308.324219 176.175781 308.324219 " clip-rule="nonzero"/></clipPath></defs><path fill="#ff3131" d="M 176.101562 270 C 176.101562 269.773438 176.101562 269.625 176.101562 269.398438 L 176.101562 38.175781 C 176.101562 34.5 173.101562 31.5 169.425781 31.5 C 165.75 31.5 162.75 34.5 162.75 38.175781 L 162.75 269.398438 C 162.75 269.625 162.75 269.773438 162.75 270 C 144.601562 273.148438 130.800781 288.976562 130.800781 308.023438 C 130.800781 329.324219 148.050781 346.648438 169.425781 346.648438 C 190.726562 346.648438 208.050781 329.398438 208.050781 308.023438 C 208.050781 288.976562 194.25 273.148438 176.101562 270 Z M 176.101562 270 " fill-opacity="1" fill-rule="nonzero"/><g clip-path="url(#03c0409dc0)"><path fill="#ff3131" d="M 207.601562 252.976562 L 207.601562 38.175781 C 207.601562 17.101562 190.5 0 169.425781 0 C 148.425781 0 131.25 17.101562 131.25 38.175781 L 131.25 252.976562 C 123.074219 258.675781 116.175781 266.175781 111.226562 274.800781 C 105.523438 284.851562 102.449219 296.324219 102.449219 308.023438 C 102.449219 344.925781 132.523438 375 169.425781 375 C 206.324219 375 236.398438 344.925781 236.398438 308.023438 C 236.398438 296.324219 233.324219 284.851562 227.625 274.800781 C 222.675781 266.101562 215.773438 258.675781 207.601562 252.976562 Z M 169.425781 361.574219 C 139.875 361.574219 115.800781 337.5 115.800781 307.949219 C 115.800781 289.125 125.398438 272.101562 141.449219 262.199219 C 143.398438 261 144.675781 258.824219 144.675781 256.5 L 144.675781 38.175781 C 144.675781 24.523438 155.773438 13.425781 169.425781 13.425781 C 183.074219 13.425781 194.175781 24.523438 194.175781 38.175781 L 194.175781 256.574219 C 194.175781 258.898438 195.375 261.074219 197.398438 262.273438 C 213.449219 272.101562 223.050781 289.199219 223.050781 308.023438 C 223.050781 337.574219 198.976562 361.574219 169.425781 361.574219 Z M 169.425781 361.574219 " fill-opacity="1" fill-rule="nonzero"/></g><g clip-path="url(#7229b60287)"><path fill="#ff3131" d="M 265.875 231.675781 L 224.324219 231.675781 C 220.648438 231.675781 217.648438 234.675781 217.648438 238.351562 C 217.648438 242.023438 220.648438 245.023438 224.324219 245.023438 L 265.875 245.023438 C 269.550781 245.023438 272.550781 242.023438 272.550781 238.351562 C 272.550781 234.675781 269.550781 231.675781 265.875 231.675781 Z M 265.875 231.675781 " fill-opacity="1" fill-rule="nonzero"/></g><path fill="#ff3131" d="M 224.324219 214.125 L 249.074219 214.125 C 252.75 214.125 255.75 211.125 255.75 207.449219 C 255.75 203.773438 252.75 200.773438 249.074219 200.773438 L 224.324219 200.773438 C 220.648438 200.773438 217.648438 203.773438 217.648438 207.449219 C 217.648438 211.125 220.648438 214.125 224.324219 214.125 Z M 224.324219 214.125 " fill-opacity="1" fill-rule="nonzero"/><g clip-path="url(#d74d5dfab4)"><path fill="#ff3131" d="M 265.875 169.800781 L 224.324219 169.800781 C 220.648438 169.800781 217.648438 172.800781 217.648438 176.476562 C 217.648438 180.148438 220.648438 183.148438 224.324219 183.148438 L 265.875 183.148438 C 269.550781 183.148438 272.550781 180.148438 272.550781 176.476562 C 272.550781 172.800781 269.550781 169.800781 265.875 169.800781 Z M 265.875 169.800781 " fill-opacity="1" fill-rule="nonzero"/></g><path fill="#ff3131" d="M 224.324219 152.25 L 249.074219 152.25 C 252.75 152.25 255.75 149.25 255.75 145.574219 C 255.75 141.898438 252.75 138.898438 249.074219 138.898438 L 224.324219 138.898438 C 220.648438 138.898438 217.648438 141.898438 217.648438 145.574219 C 217.648438 149.25 220.648438 152.25 224.324219 152.25 Z M 224.324219 152.25 " fill-opacity="1" fill-rule="nonzero"/><g clip-path="url(#ff44685f76)"><path fill="#ff3131" d="M 265.875 107.925781 L 224.324219 107.925781 C 220.648438 107.925781 217.648438 110.925781 217.648438 114.601562 C 217.648438 118.273438 220.648438 121.273438 224.324219 121.273438 L 265.875 121.273438 C 269.550781 121.273438 272.550781 118.273438 272.550781 114.601562 C 272.550781 110.925781 269.550781 107.925781 265.875 107.925781 Z M 265.875 107.925781 " fill-opacity="1" fill-rule="nonzero"/></g><path fill="#ff3131" d="M 224.324219 90.375 L 249.074219 90.375 C 252.75 90.375 255.75 87.375 255.75 83.699219 C 255.75 80.023438 252.75 77.023438 249.074219 77.023438 L 224.324219 77.023438 C 220.648438 77.023438 217.648438 80.023438 217.648438 83.699219 C 217.648438 87.375 220.648438 90.375 224.324219 90.375 Z M 224.324219 90.375 " fill-opacity="1" fill-rule="nonzero"/><g clip-path="url(#6b4625247f)"><path fill="#ff3131" d="M 224.324219 59.476562 L 265.875 59.476562 C 269.550781 59.476562 272.550781 56.476562 272.550781 52.800781 C 272.550781 49.125 269.550781 46.125 265.875 46.125 L 224.324219 46.125 C 220.648438 46.125 217.648438 49.125 217.648438 52.800781 C 217.648438 56.476562 220.648438 59.476562 224.324219 59.476562 Z M 224.324219 59.476562 " fill-opacity="1" fill-rule="nonzero"/></g><g clip-path="url(#7f398f7829)"><g clip-path="url(#184108350f)"><path fill="#e7191f" d="M 145.726562 294 L 180.660156 294 L 180.660156 312.75 L 145.726562 312.75 Z M 145.726562 294 " fill-opacity="1" fill-rule="nonzero"/></g></g></svg>