<svg xmlns="http://www.w3.org/2000/svg" xmlns:xlink="http://www.w3.org/1999/xlink" width="500" zoomAndPan="magnify" viewBox="0 0 375 374.999991" height="500" preserveAspectRatio="xMidYMid meet" version="1.0"><defs><clipPath id="16e2e4deec"><path d="M 14.96875 182.417969 L 19.367188 182.417969 L 19.367188 236.632812 L 14.96875 236.632812 Z M 14.96875 182.417969 " clip-rule="nonzero"/></clipPath><clipPath id="836a40aba8"><path d="M 19.351562 183.148438 C 16.574219 236.398438 16.273438 236.625 16.050781 236.625 C 15.75 236.625 15.300781 236.023438 15.300781 235.800781 C 15.375 235.5 15.976562 235.050781 16.199219 235.125 C 16.425781 235.199219 16.875 235.800781 16.800781 236.023438 C 16.800781 236.25 16.351562 236.625 16.125 236.625 C 15.824219 236.625 15.523438 236.324219 15.300781 235.875 C 14.625 234.148438 15.226562 226.875 15.523438 222.226562 C 15.75 217.273438 16.648438 212.550781 16.949219 207 C 17.398438 200.25 17.101562 188.175781 17.550781 184.648438 C 17.699219 183.523438 17.773438 182.625 18.074219 182.476562 C 18.375 182.324219 19.351562 183.148438 19.351562 183.148438 " clip-rule="nonzero"/></clipPath></defs><path fill="#0097b2" d="M 308.59375 277.34375 C 305.59375 277.34375 302.59375 276.203125 300.3125 273.90625 L 273.4375 247.03125 L 246.5625 273.90625 C 241.984375 278.484375 234.5625 278.484375 229.984375 273.90625 C 225.40625 269.328125 225.40625 261.90625 229.984375 257.328125 L 265.140625 222.171875 C 269.71875 217.59375 277.140625 217.59375 281.71875 222.171875 L 316.875 257.328125 C 321.453125 261.90625 321.453125 269.328125 316.875 273.90625 C 314.59375 276.203125 311.59375 277.34375 308.59375 277.34375 Z M 308.59375 277.34375 " fill-opacity="1" fill-rule="nonzero"/><path fill="#0097b2" d="M 273.4375 328.125 C 266.96875 328.125 261.71875 322.875 261.71875 316.40625 L 261.71875 238.28125 C 261.71875 231.8125 266.96875 226.5625 273.4375 226.5625 C 279.90625 226.5625 285.15625 231.8125 285.15625 238.28125 L 285.15625 316.40625 C 285.15625 322.875 279.90625 328.125 273.4375 328.125 Z M 273.4375 328.125 " fill-opacity="1" fill-rule="nonzero"/><path fill="#0097b2" d="M 273.4375 375 C 217.4375 375 171.875 329.4375 171.875 273.4375 C 171.875 217.4375 217.4375 171.875 273.4375 171.875 C 329.4375 171.875 375 217.4375 375 273.4375 C 375 329.4375 329.4375 375 273.4375 375 Z M 273.4375 195.3125 C 230.359375 195.3125 195.3125 230.359375 195.3125 273.4375 C 195.3125 316.515625 230.359375 351.5625 273.4375 351.5625 C 316.515625 351.5625 351.5625 316.515625 351.5625 273.4375 C 351.5625 230.359375 316.515625 195.3125 273.4375 195.3125 Z M 273.4375 195.3125 " fill-opacity="1" fill-rule="nonzero"/><path fill="#0097b2" d="M 144.53125 375 L 42.96875 375 C 19.265625 375 0 355.734375 0 332.03125 L 0 191.40625 C 0 176.328125 12.265625 164.0625 27.34375 164.0625 C 29.5 164.0625 31.25 162.3125 31.25 160.15625 L 31.25 121.09375 C 31.25 118.9375 29.5 117.1875 27.34375 117.1875 C 12.265625 117.1875 0 104.921875 0 89.84375 L 0 42.96875 C 0 19.265625 19.265625 0 42.96875 0 L 194.078125 0 C 205.546875 0 216.34375 4.46875 224.453125 12.59375 L 284.28125 72.40625 C 292.40625 80.515625 296.875 91.3125 296.875 102.796875 L 296.875 128.90625 C 296.875 135.375 291.625 140.625 285.15625 140.625 C 278.6875 140.625 273.4375 135.375 273.4375 128.90625 L 273.4375 102.796875 C 273.4375 97.578125 271.40625 92.671875 267.71875 88.984375 L 207.890625 29.171875 C 204.25 25.515625 199.21875 23.4375 194.078125 23.4375 L 42.96875 23.4375 C 32.203125 23.4375 23.4375 32.203125 23.4375 42.96875 L 23.4375 89.84375 C 23.4375 92 25.1875 93.75 27.34375 93.75 C 42.421875 93.75 54.6875 106.015625 54.6875 121.09375 L 54.6875 160.15625 C 54.6875 175.234375 42.421875 187.5 27.34375 187.5 C 25.1875 187.5 23.4375 189.25 23.4375 191.40625 L 23.4375 332.03125 C 23.4375 342.796875 32.203125 351.5625 42.96875 351.5625 L 144.53125 351.5625 C 151 351.5625 156.25 356.8125 156.25 363.28125 C 156.25 369.75 151 375 144.53125 375 Z M 144.53125 375 " fill-opacity="1" fill-rule="nonzero"/><path fill="#0097b2" d="M 74.21875 78.125 C 67.75 78.125 62.5 72.875 62.5 66.40625 L 62.5 15.625 C 62.5 9.15625 67.75 3.90625 74.21875 3.90625 C 80.6875 3.90625 85.9375 9.15625 85.9375 15.625 L 85.9375 66.40625 C 85.9375 72.875 80.6875 78.125 74.21875 78.125 Z M 74.21875 78.125 " fill-opacity="1" fill-rule="nonzero"/><path fill="#0097b2" d="M 132.8125 78.125 C 126.34375 78.125 121.09375 72.875 121.09375 66.40625 L 121.09375 15.625 C 121.09375 9.15625 126.34375 3.90625 132.8125 3.90625 C 139.28125 3.90625 144.53125 9.15625 144.53125 15.625 L 144.53125 66.40625 C 144.53125 72.875 139.28125 78.125 132.8125 78.125 Z M 132.8125 78.125 " fill-opacity="1" fill-rule="nonzero"/><path fill="#0097b2" d="M 191.40625 78.125 C 184.9375 78.125 179.6875 72.875 179.6875 66.40625 L 179.6875 15.625 C 179.6875 9.15625 184.9375 3.90625 191.40625 3.90625 C 197.875 3.90625 203.125 9.15625 203.125 15.625 L 203.125 66.40625 C 203.125 72.875 197.875 78.125 191.40625 78.125 Z M 191.40625 78.125 " fill-opacity="1" fill-rule="nonzero"/><path fill="#0097b2" d="M 144.53125 328.125 L 74.21875 328.125 C 59.140625 328.125 46.875 315.859375 46.875 300.78125 L 46.875 230.46875 C 46.875 215.390625 59.140625 203.125 74.21875 203.125 L 144.53125 203.125 C 151 203.125 156.25 208.375 156.25 214.84375 C 156.25 221.3125 151 226.5625 144.53125 226.5625 L 74.21875 226.5625 C 72.0625 226.5625 70.3125 228.3125 70.3125 230.46875 L 70.3125 300.78125 C 70.3125 302.9375 72.0625 304.6875 74.21875 304.6875 L 144.53125 304.6875 C 151 304.6875 156.25 309.9375 156.25 316.40625 C 156.25 322.875 151 328.125 144.53125 328.125 Z M 144.53125 328.125 " fill-opacity="1" fill-rule="nonzero"/><g clip-path="url(#16e2e4deec)"><g clip-path="url(#836a40aba8)"><path fill="#0097b2" d="M 12.300781 179.476562 L 22.351562 179.476562 L 22.351562 239.617188 L 12.300781 239.617188 Z M 12.300781 179.476562 " fill-opacity="1" fill-rule="nonzero"/></g></g></svg>