<svg xmlns="http://www.w3.org/2000/svg" xmlns:xlink="http://www.w3.org/1999/xlink" width="500" zoomAndPan="magnify" viewBox="0 0 375 374.999991" height="500" preserveAspectRatio="xMidYMid meet" version="1.0"><defs><clipPath id="4e1908fe2d"><path d="M 137.617188 89.992188 L 374.992188 89.992188 L 374.992188 374.992188 L 137.617188 374.992188 Z M 137.617188 89.992188 " clip-rule="nonzero"/></clipPath><clipPath id="00b7636992"><path d="M 0 0 L 112.5 0 L 112.5 375 L 0 375 Z M 0 0 " clip-rule="nonzero"/></clipPath><clipPath id="eb7fc32e8a"><path d="M 56.25 0 L 0 56.25 L 28.125 56.25 L 28.125 375 L 84.375 375 L 84.375 56.25 L 112.5 56.25 Z M 56.25 0 " clip-rule="nonzero"/></clipPath></defs><g clip-path="url(#4e1908fe2d)"><path fill="#ffbd59" d="M 154.253906 98.164062 L 154.253906 196.128906 C 175.015625 161.25 213.121094 137.667969 256.308594 137.667969 C 321.40625 137.667969 374.972656 191.234375 374.972656 256.328125 C 374.972656 321.425781 321.40625 374.992188 256.308594 374.992188 C 191.214844 374.992188 137.648438 321.425781 137.648438 256.328125 L 137.648438 98.164062 C 137.648438 93.609375 141.394531 89.863281 145.949219 89.863281 C 150.507812 89.863281 154.253906 93.609375 154.253906 98.164062 Z M 195.886719 195.90625 C 192.667969 199.128906 192.667969 204.429688 195.886719 207.652344 L 206.960938 218.722656 C 210.179688 221.941406 215.480469 221.941406 218.703125 218.722656 C 221.921875 215.5 221.921875 210.199219 218.703125 206.980469 L 207.628906 195.90625 C 204.410156 192.6875 199.109375 192.6875 195.886719 195.90625 Z M 256.308594 170.878906 C 251.753906 170.878906 248.003906 174.628906 248.003906 179.183594 L 248.003906 194.839844 C 248.003906 199.394531 251.753906 203.144531 256.308594 203.144531 C 260.863281 203.144531 264.613281 199.394531 264.613281 194.839844 L 264.613281 179.183594 C 264.613281 174.628906 260.863281 170.878906 256.308594 170.878906 Z M 305.660156 218.722656 L 316.730469 207.652344 C 319.953125 204.429688 319.953125 199.128906 316.730469 195.90625 C 313.507812 192.6875 308.207031 192.6875 304.988281 195.90625 L 293.917969 206.980469 C 290.695312 210.199219 290.695312 215.5 293.917969 218.722656 C 297.136719 221.941406 302.4375 221.941406 305.660156 218.722656 Z M 333.453125 264.632812 C 338.039062 264.632812 341.757812 260.914062 341.757812 256.328125 C 341.757812 251.742188 338.039062 248.027344 333.453125 248.027344 L 317.800781 248.027344 C 313.210938 248.027344 309.496094 251.742188 309.496094 256.328125 C 309.496094 260.914062 313.210938 264.632812 317.800781 264.632812 Z M 316.730469 316.75 C 319.953125 313.527344 319.953125 308.230469 316.730469 305.007812 L 305.660156 293.9375 C 302.4375 290.714844 297.136719 290.714844 293.917969 293.9375 C 290.695312 297.15625 290.695312 302.457031 293.917969 305.679688 L 304.988281 316.75 C 308.207031 319.972656 313.507812 319.972656 316.730469 316.75 Z M 256.308594 341.777344 C 260.863281 341.777344 264.613281 338.027344 264.613281 333.472656 L 264.613281 317.816406 C 264.613281 313.261719 260.863281 309.511719 256.308594 309.511719 C 251.753906 309.511719 248.003906 313.261719 248.003906 317.816406 L 248.003906 333.472656 C 248.003906 338.027344 251.753906 341.777344 256.308594 341.777344 Z M 206.960938 293.9375 L 195.886719 305.007812 C 192.667969 308.230469 192.667969 313.527344 195.886719 316.75 C 199.109375 319.972656 204.410156 319.972656 207.628906 316.75 L 218.703125 305.679688 C 221.921875 302.457031 221.921875 297.15625 218.703125 293.9375 C 215.480469 290.714844 210.179688 290.714844 206.960938 293.9375 Z M 256.308594 292.777344 C 276.304688 292.777344 292.753906 276.324219 292.753906 256.328125 C 292.753906 236.335938 276.304688 219.882812 256.308594 219.882812 C 236.316406 219.882812 219.863281 236.335938 219.863281 256.328125 C 219.863281 276.324219 236.316406 292.777344 256.308594 292.777344 Z M 179.164062 264.632812 L 194.820312 264.632812 C 199.375 264.632812 203.121094 260.882812 203.121094 256.328125 C 203.121094 251.773438 199.375 248.027344 194.820312 248.027344 L 179.164062 248.027344 C 174.609375 248.027344 170.859375 251.773438 170.859375 256.328125 C 170.859375 260.882812 174.609375 264.632812 179.164062 264.632812 Z M 179.164062 264.632812 " fill-opacity="1" fill-rule="nonzero"/></g><g clip-path="url(#00b7636992)"><g clip-path="url(#eb7fc32e8a)"><path fill="#ffbd59" d="M 0 0 L 112.5 0 L 112.5 374.851562 L 0 374.851562 Z M 0 0 " fill-opacity="1" fill-rule="nonzero"/></g></g></svg>