<svg xmlns="http://www.w3.org/2000/svg" xmlns:xlink="http://www.w3.org/1999/xlink" width="500" zoomAndPan="magnify" viewBox="0 0 375 374.999991" height="500" preserveAspectRatio="xMidYMid meet" version="1.0"><defs><clipPath id="52b551563b"><path d="M 0 0 L 112.5 0 L 112.5 375 L 0 375 Z M 0 0 " clip-rule="nonzero"/></clipPath><clipPath id="3aa1f8d7ae"><path d="M 56.25 0 L 0 56.25 L 28.125 56.25 L 28.125 375 L 84.375 375 L 84.375 56.25 L 112.5 56.25 Z M 56.25 0 " clip-rule="nonzero"/></clipPath><clipPath id="d3212d0a95"><path d="M 109.496094 77.992188 L 337.496094 77.992188 L 337.496094 337.492188 L 109.496094 337.492188 Z M 109.496094 77.992188 " clip-rule="nonzero"/></clipPath></defs><g clip-path="url(#52b551563b)"><g clip-path="url(#3aa1f8d7ae)"><path fill="#ffbd59" d="M 0 0 L 112.5 0 L 112.5 374.851562 L 0 374.851562 Z M 0 0 " fill-opacity="1" fill-rule="nonzero"/></g></g><path fill="#ffbd59" d="M 213.761719 300.792969 C 220.542969 304.183594 229.386719 306.046875 238.664062 306.046875 C 247.945312 306.046875 256.789062 304.183594 263.570312 300.792969 C 272.023438 296.566406 276.675781 290.332031 276.675781 283.238281 C 276.675781 276.152344 272.023438 269.917969 263.570312 265.691406 C 256.789062 262.300781 247.945312 260.429688 238.664062 260.429688 C 229.386719 260.429688 220.542969 262.300781 213.761719 265.691406 C 205.308594 269.917969 200.652344 276.152344 200.652344 283.238281 C 200.652344 290.332031 205.308594 296.566406 213.761719 300.792969 Z M 220.5625 279.292969 C 225.203125 276.96875 231.800781 275.636719 238.664062 275.636719 C 245.53125 275.636719 252.128906 276.96875 256.769531 279.292969 C 260.65625 281.230469 261.472656 282.976562 261.472656 283.238281 C 261.472656 283.503906 260.65625 285.25 256.769531 287.191406 C 252.128906 289.515625 245.53125 290.839844 238.664062 290.839844 C 231.800781 290.839844 225.203125 289.515625 220.5625 287.191406 C 216.679688 285.25 215.859375 283.503906 215.859375 283.238281 C 215.859375 282.976562 216.679688 281.230469 220.5625 279.292969 Z M 220.5625 279.292969 " fill-opacity="1" fill-rule="nonzero"/><g clip-path="url(#d3212d0a95)"><path fill="#ffbd59" d="M 168.742188 123.589844 C 166.699219 124.679688 164.730469 125.8125 162.859375 127 C 148.011719 136.433594 139.835938 148.71875 139.835938 161.601562 C 139.835938 172.394531 145.382812 182.582031 155.914062 191.207031 C 156.660156 194.078125 157.871094 196.890625 159.527344 199.589844 C 157.132812 203.472656 155.671875 207.582031 155.207031 211.84375 C 155.207031 211.875 155.199219 211.90625 155.199219 211.933594 C 154.5625 217.9375 155.902344 223.816406 159.097656 229.300781 L 159.109375 229.292969 C 159.246094 229.527344 159.386719 229.761719 159.53125 229.996094 C 156.578125 234.777344 155.039062 239.902344 155.039062 245.226562 C 155.039062 247.972656 155.457031 250.679688 156.277344 253.332031 C 145.570312 261.957031 139.835938 272.25 139.835938 283.238281 C 139.835938 298.476562 150.789062 312.511719 170.675781 322.757812 C 189.085938 332.246094 213.230469 337.472656 238.664062 337.472656 C 264.101562 337.472656 288.25 332.246094 306.65625 322.757812 C 326.542969 312.511719 337.496094 298.476562 337.496094 283.238281 C 337.496094 272.25 331.757812 261.957031 321.054688 253.332031 C 321.875 250.679688 322.292969 247.972656 322.292969 245.226562 C 322.292969 239.902344 320.753906 234.777344 317.800781 229.996094 C 317.941406 229.761719 318.085938 229.527344 318.222656 229.292969 L 318.234375 229.296875 C 321.703125 223.34375 322.886719 217.0625 322.015625 210.941406 C 322 210.84375 321.980469 210.75 321.96875 210.65625 C 321.378906 206.820312 319.976562 203.113281 317.804688 199.589844 C 319.460938 196.890625 320.671875 194.078125 321.414062 191.207031 C 331.949219 182.582031 337.496094 172.394531 337.496094 161.601562 C 337.496094 147.941406 328.40625 135.09375 311.902344 125.433594 C 297.660156 117.09375 278.378906 111.410156 257.351562 109.308594 C 248.660156 90.480469 230.324219 77.976562 209.242188 77.976562 L 109.425781 77.976562 L 109.425781 123.589844 Z M 158.242188 171.542969 C 156.328125 168.585938 155.039062 165.242188 155.039062 161.601562 C 155.039062 154.109375 160.714844 146.375 171.015625 139.832031 C 181.90625 132.910156 197.21875 127.796875 214.34375 125.3125 C 215.722656 126.460938 216.710938 128.109375 217.035156 130.03125 C 217.675781 133.824219 218.421875 136.839844 219.417969 139.960938 C 189.308594 143.648438 166.367188 155.726562 158.242188 171.542969 Z M 306.609375 218.148438 C 303.453125 215.777344 299.855469 213.566406 295.824219 211.554688 C 280.429688 203.855469 260.128906 199.613281 238.664062 199.613281 C 217.203125 199.613281 196.90625 203.855469 181.507812 211.554688 C 177.476562 213.566406 173.878906 215.777344 170.726562 218.148438 C 170.347656 216.8125 170.1875 215.441406 170.265625 214.148438 C 170.265625 214.140625 170.265625 214.125 170.269531 214.117188 C 171.164062 199.917969 199 184.40625 238.664062 184.40625 C 250.746094 184.40625 261.726562 185.851562 271.1875 188.25 C 271.582031 188.363281 271.976562 188.484375 272.375 188.589844 C 283.84375 191.640625 300.539062 198.535156 305.699219 209.179688 C 307.128906 212.125 307.484375 215.078125 306.609375 218.148438 Z M 307.058594 244.433594 C 306.894531 244.351562 306.738281 244.269531 306.574219 244.1875 C 288.308594 235.054688 264.191406 230.023438 238.664062 230.023438 C 213.140625 230.023438 189.023438 235.054688 170.757812 244.1875 C 170.597656 244.269531 170.4375 244.351562 170.277344 244.433594 C 171.285156 230.257812 199.085938 214.816406 238.664062 214.816406 C 278.246094 214.816406 306.046875 230.257812 307.058594 244.433594 Z M 181.507812 181.140625 C 177.476562 183.15625 173.878906 185.367188 170.726562 187.738281 C 170.40625 186.625 170.246094 185.515625 170.246094 184.40625 C 170.246094 172.0625 191.464844 157.550781 226.0625 154.550781 C 229.199219 159.734375 233.042969 164.574219 237.535156 168.945312 C 237.628906 169.039062 237.726562 169.125 237.824219 169.214844 C 216.671875 169.328125 196.703125 173.546875 181.507812 181.140625 Z M 322.292969 283.238281 C 322.292969 292.363281 314.054688 301.84375 299.691406 309.246094 C 283.394531 317.640625 261.726562 322.265625 238.664062 322.265625 C 215.609375 322.265625 193.933594 317.640625 177.640625 309.246094 C 163.277344 301.84375 155.039062 292.363281 155.039062 283.238281 C 155.039062 274.21875 163.25 264.941406 177.558594 257.789062 C 193.753906 249.6875 215.457031 245.226562 238.664062 245.226562 C 261.875 245.226562 283.578125 249.6875 299.773438 257.789062 C 314.085938 264.941406 322.292969 274.21875 322.292969 283.238281 Z M 322.292969 161.601562 C 322.292969 165.234375 321.015625 168.566406 319.109375 171.515625 C 313.128906 159.789062 298.960938 150.007812 278.746094 144.171875 C 266.664062 140.679688 263.402344 134.328125 262.0625 125.214844 C 262.0625 125.203125 262.058594 125.191406 262.058594 125.179688 C 296.46875 129.992188 322.292969 145.246094 322.292969 161.601562 Z M 124.628906 93.179688 L 209.242188 93.128906 C 228.210938 93.128906 244.101562 107.585938 247.019531 127.425781 C 249.472656 144.105469 258.214844 154.066406 274.527344 158.777344 C 294.308594 164.492188 307.085938 174.550781 307.085938 184.40625 C 307.085938 185.515625 306.929688 186.625 306.613281 187.742188 C 297.886719 181.183594 286.820312 176.695312 276.273438 173.894531 C 254.628906 168.125 236.027344 151.148438 232.027344 127.496094 C 230.152344 116.425781 220.734375 108.382812 209.632812 108.382812 L 124.628906 108.4375 Z M 124.628906 93.179688 " fill-opacity="1" fill-rule="nonzero"/></g></svg>