<svg xmlns="http://www.w3.org/2000/svg" xmlns:xlink="http://www.w3.org/1999/xlink" width="500" zoomAndPan="magnify" viewBox="0 0 375 374.999991" height="500" preserveAspectRatio="xMidYMid meet" version="1.0"><defs><g/><clipPath id="499c3ea9d8"><path d="M 174.699219 76.089844 L 374.949219 76.089844 L 374.949219 276.339844 L 174.699219 276.339844 Z M 174.699219 76.089844 " clip-rule="nonzero"/></clipPath></defs><g fill="#00bf63" fill-opacity="1"><g transform="translate(-7.132127, 319.174849)"><g><path d="M 62.703125 0 L 4.890625 0 L 89.453125 -146.875 L 8.984375 -285.546875 L 68.953125 -285.546875 L 128.125 -183.203125 L 133.015625 -183.203125 L 193.171875 -285.546875 L 250.203125 -285.546875 L 169.734375 -146.875 L 254.296875 0 L 194.53125 0 L 131.0625 -110.15625 L 126.171875 -110.15625 Z M 62.703125 0 "/></g></g></g><g clip-path="url(#499c3ea9d8)"><path fill="#00bf63" d="M 362.476562 163.71875 L 287.367188 163.71875 L 287.367188 88.605469 C 287.367188 85.285156 286.046875 82.101562 283.699219 79.753906 C 281.351562 77.40625 278.167969 76.089844 274.847656 76.089844 C 271.527344 76.089844 268.34375 77.40625 265.996094 79.753906 C 263.648438 82.101562 262.328125 85.285156 262.328125 88.605469 L 262.328125 163.71875 L 187.21875 163.71875 C 183.898438 163.71875 180.714844 165.039062 178.367188 167.386719 C 176.019531 169.730469 174.699219 172.917969 174.699219 176.238281 C 174.699219 179.558594 176.019531 182.742188 178.367188 185.089844 C 180.714844 187.4375 183.898438 188.753906 187.21875 188.753906 L 262.328125 188.753906 L 262.328125 263.867188 C 262.328125 267.1875 263.648438 270.371094 265.996094 272.71875 C 268.34375 275.066406 271.527344 276.386719 274.847656 276.386719 C 278.167969 276.386719 281.351562 275.066406 283.699219 272.71875 C 286.046875 270.371094 287.367188 267.1875 287.367188 263.867188 L 287.367188 188.753906 L 362.476562 188.753906 C 365.796875 188.753906 368.984375 187.4375 371.328125 185.089844 C 373.675781 182.742188 374.996094 179.558594 374.996094 176.238281 C 374.996094 172.917969 373.675781 169.730469 371.328125 167.386719 C 368.984375 165.039062 365.796875 163.71875 362.476562 163.71875 Z M 362.476562 163.71875 " fill-opacity="1" fill-rule="nonzero"/></g></svg>