<svg xmlns="http://www.w3.org/2000/svg" xmlns:xlink="http://www.w3.org/1999/xlink" width="500" zoomAndPan="magnify" viewBox="0 0 375 374.999991" height="500" preserveAspectRatio="xMidYMid meet" version="1.0"><defs><g/><clipPath id="f30c79de47"><path d="M 0 0 L 156.246094 0 L 156.246094 375 L 0 375 Z M 0 0 " clip-rule="nonzero"/></clipPath><clipPath id="116d92702f"><path d="M 78.125 0 L 0 78.125 L 39.0625 78.125 L 39.0625 375 L 117.183594 375 L 117.183594 78.125 L 156.246094 78.125 Z M 78.125 0 " clip-rule="nonzero"/></clipPath></defs><g clip-path="url(#f30c79de47)"><g clip-path="url(#116d92702f)"><path fill="#00bf63" d="M 0 0 L 156.246094 0 L 156.246094 374.746094 L 0 374.746094 Z M 0 0 " fill-opacity="1" fill-rule="nonzero"/></g></g><g fill="#00bf63" fill-opacity="1"><g transform="translate(115.861286, 375.105782)"><g><path d="M 62.703125 0 L 4.890625 0 L 89.453125 -146.875 L 8.984375 -285.546875 L 68.953125 -285.546875 L 128.125 -183.203125 L 133.015625 -183.203125 L 193.171875 -285.546875 L 250.203125 -285.546875 L 169.734375 -146.875 L 254.296875 0 L 194.53125 0 L 131.0625 -110.15625 L 126.171875 -110.15625 Z M 62.703125 0 "/></g></g></g></svg>