<svg xmlns="http://www.w3.org/2000/svg" xmlns:xlink="http://www.w3.org/1999/xlink" width="500" zoomAndPan="magnify" viewBox="0 0 375 374.999991" height="500" preserveAspectRatio="xMidYMid meet" version="1.0"><defs><g/><clipPath id="ae3f97926b"><path d="M 0 0 L 156.246094 0 L 156.246094 375 L 0 375 Z M 0 0 " clip-rule="nonzero"/></clipPath><clipPath id="5d8194c6ef"><path d="M 78.121094 375 L 156.246094 296.875 L 117.183594 296.875 L 117.183594 0 L 39.0625 0 L 39.0625 296.875 L 0 296.875 Z M 78.121094 375 " clip-rule="nonzero"/></clipPath></defs><g clip-path="url(#ae3f97926b)"><g clip-path="url(#5d8194c6ef)"><path fill="#ffbd59" d="M 156.246094 375 L 0 375 L 0 0.253906 L 156.246094 0.253906 Z M 156.246094 375 " fill-opacity="1" fill-rule="nonzero"/></g></g><g fill="#ffbd59" fill-opacity="1"><g transform="translate(125.295054, 284.640317)"><g><path d="M 62.703125 0 L 4.890625 0 L 89.453125 -146.875 L 8.984375 -285.546875 L 68.953125 -285.546875 L 128.125 -183.203125 L 133.015625 -183.203125 L 193.171875 -285.546875 L 250.203125 -285.546875 L 169.734375 -146.875 L 254.296875 0 L 194.53125 0 L 131.0625 -110.15625 L 126.171875 -110.15625 Z M 62.703125 0 "/></g></g></g></svg>