<svg xmlns="http://www.w3.org/2000/svg" xmlns:xlink="http://www.w3.org/1999/xlink" width="500" zoomAndPan="magnify" viewBox="0 0 375 374.999991" height="500" preserveAspectRatio="xMidYMid meet" version="1.0"><defs><g/><clipPath id="61bfb760e4"><path d="M 188 157.195312 L 374 157.195312 L 374 196 L 188 196 Z M 188 157.195312 " clip-rule="nonzero"/></clipPath></defs><g fill="#ffbd59" fill-opacity="1"><g transform="translate(-6.837074, 318.799477)"><g><path d="M 62.703125 0 L 4.890625 0 L 89.453125 -146.875 L 8.984375 -285.546875 L 68.953125 -285.546875 L 128.125 -183.203125 L 133.015625 -183.203125 L 193.171875 -285.546875 L 250.203125 -285.546875 L 169.734375 -146.875 L 254.296875 0 L 194.53125 0 L 131.0625 -110.15625 L 126.171875 -110.15625 Z M 62.703125 0 "/></g></g></g><g clip-path="url(#61bfb760e4)"><path fill="#ffbd59" d="M 204.449219 157.484375 C 206.074219 157.28125 207.679688 157.210938 209.257812 157.285156 C 209.332031 157.285156 209.402344 157.289062 209.476562 157.292969 C 212.726562 157.480469 215.613281 157.601562 218.136719 157.652344 C 223.578125 157.765625 229.683594 157.851562 236.449219 157.90625 L 236.355469 157.90625 C 255.472656 157.96875 277.035156 158.003906 301.046875 158.011719 L 301.09375 158.011719 C 307.28125 158.03125 313.066406 158.078125 318.453125 158.15625 C 336.355469 158.40625 349.257812 158.828125 357.164062 159.414062 C 367.074219 160.152344 374.507812 168.78125 373.769531 178.691406 C 373.035156 188.597656 364.40625 196.03125 354.496094 195.296875 C 347.308594 194.761719 335.125 194.375 317.945312 194.128906 L 317.949219 194.128906 C 312.691406 194.058594 307.039062 194.011719 300.984375 193.992188 L 301.035156 193.992188 C 276.984375 193.984375 255.386719 193.949219 236.238281 193.886719 C 236.207031 193.886719 236.175781 193.886719 236.144531 193.886719 C 229.234375 193.828125 222.980469 193.742188 217.386719 193.625 L 217.382812 193.625 C 214.425781 193.5625 211.105469 193.425781 207.425781 193.214844 L 207.644531 193.226562 C 208.117188 193.25 208.554688 193.234375 208.964844 193.179688 C 199.105469 194.429688 190.105469 187.449219 188.859375 177.589844 C 187.609375 167.734375 194.589844 158.734375 204.449219 157.484375 Z M 204.449219 157.484375 " fill-opacity="1" fill-rule="nonzero"/></g></svg>