<svg xmlns="http://www.w3.org/2000/svg" xmlns:xlink="http://www.w3.org/1999/xlink" width="500" zoomAndPan="magnify" viewBox="0 0 375 374.999991" height="500" preserveAspectRatio="xMidYMid meet" version="1.0"><defs><g/><clipPath id="25fbac767c"><path d="M 174.699219 114.753906 L 374.949219 114.753906 L 374.949219 315.003906 L 174.699219 315.003906 Z M 174.699219 114.753906 " clip-rule="nonzero"/></clipPath></defs><g fill="#00bf63" fill-opacity="1"><g transform="translate(0.0000045, 314.670347)"><g><path d="M 156.453125 0 L 100 0 L 100 -112.109375 L 1.375 -285.546875 L 61.921875 -285.546875 L 127.15625 -173.25 L 132.03125 -173.25 L 195.90625 -285.546875 L 255.078125 -285.546875 L 156.453125 -112.109375 Z M 156.453125 0 "/></g></g></g><g clip-path="url(#25fbac767c)"><path fill="#00bf63" d="M 362.476562 202.382812 L 287.367188 202.382812 L 287.367188 127.269531 C 287.367188 123.949219 286.046875 120.765625 283.699219 118.417969 C 281.351562 116.070312 278.167969 114.753906 274.847656 114.753906 C 271.527344 114.753906 268.34375 116.070312 265.996094 118.417969 C 263.648438 120.765625 262.328125 123.949219 262.328125 127.269531 L 262.328125 202.382812 L 187.21875 202.382812 C 183.898438 202.382812 180.714844 203.703125 178.367188 206.046875 C 176.019531 208.394531 174.699219 211.582031 174.699219 214.902344 C 174.699219 218.21875 176.019531 221.40625 178.367188 223.753906 C 180.714844 226.101562 183.898438 227.417969 187.21875 227.417969 L 262.328125 227.417969 L 262.328125 302.53125 C 262.328125 305.851562 263.648438 309.035156 265.996094 311.382812 C 268.34375 313.730469 271.527344 315.050781 274.847656 315.050781 C 278.167969 315.050781 281.351562 313.730469 283.699219 311.382812 C 286.046875 309.035156 287.367188 305.851562 287.367188 302.53125 L 287.367188 227.417969 L 362.476562 227.417969 C 365.796875 227.417969 368.984375 226.101562 371.328125 223.753906 C 373.675781 221.40625 374.996094 218.21875 374.996094 214.902344 C 374.996094 211.582031 373.675781 208.394531 371.328125 206.046875 C 368.984375 203.703125 365.796875 202.382812 362.476562 202.382812 Z M 362.476562 202.382812 " fill-opacity="1" fill-rule="nonzero"/></g></svg>