<svg xmlns="http://www.w3.org/2000/svg" xmlns:xlink="http://www.w3.org/1999/xlink" width="500" zoomAndPan="magnify" viewBox="0 0 375 374.999991" height="500" preserveAspectRatio="xMidYMid meet" version="1.0"><defs><g/><clipPath id="d7b72897d5"><path d="M 0 0 L 156.246094 0 L 156.246094 375 L 0 375 Z M 0 0 " clip-rule="nonzero"/></clipPath><clipPath id="ea948e921e"><path d="M 78.125 0 L 0 78.125 L 39.0625 78.125 L 39.0625 375 L 117.183594 375 L 117.183594 78.125 L 156.246094 78.125 Z M 78.125 0 " clip-rule="nonzero"/></clipPath></defs><g clip-path="url(#d7b72897d5)"><g clip-path="url(#ea948e921e)"><path fill="#00bf63" d="M 0 0 L 156.246094 0 L 156.246094 374.746094 L 0 374.746094 Z M 0 0 " fill-opacity="1" fill-rule="nonzero"/></g></g><g fill="#00bf63" fill-opacity="1"><g transform="translate(119.990416, 375.105782)"><g><path d="M 156.453125 0 L 100 0 L 100 -112.109375 L 1.375 -285.546875 L 61.921875 -285.546875 L 127.15625 -173.25 L 132.03125 -173.25 L 195.90625 -285.546875 L 255.078125 -285.546875 L 156.453125 -112.109375 Z M 156.453125 0 "/></g></g></g></svg>