<svg xmlns="http://www.w3.org/2000/svg" xmlns:xlink="http://www.w3.org/1999/xlink" width="500" zoomAndPan="magnify" viewBox="0 0 375 374.999991" height="500" preserveAspectRatio="xMidYMid meet" version="1.0"><defs><g/><clipPath id="de4af86ee1"><path d="M 0 0 L 156.246094 0 L 156.246094 375 L 0 375 Z M 0 0 " clip-rule="nonzero"/></clipPath><clipPath id="f8cfb70c87"><path d="M 78.121094 375 L 156.246094 296.875 L 117.183594 296.875 L 117.183594 0 L 39.0625 0 L 39.0625 296.875 L 0 296.875 Z M 78.121094 375 " clip-rule="nonzero"/></clipPath></defs><g clip-path="url(#de4af86ee1)"><g clip-path="url(#f8cfb70c87)"><path fill="#ffbd59" d="M 156.246094 375 L 0 375 L 0 0.253906 L 156.246094 0.253906 Z M 156.246094 375 " fill-opacity="1" fill-rule="nonzero"/></g></g><g fill="#ffbd59" fill-opacity="1"><g transform="translate(125.295054, 284.640317)"><g><path d="M 156.453125 0 L 100 0 L 100 -112.109375 L 1.375 -285.546875 L 61.921875 -285.546875 L 127.15625 -173.25 L 132.03125 -173.25 L 195.90625 -285.546875 L 255.078125 -285.546875 L 156.453125 -112.109375 Z M 156.453125 0 "/></g></g></g></svg>