<svg xmlns="http://www.w3.org/2000/svg" xmlns:xlink="http://www.w3.org/1999/xlink" width="500" zoomAndPan="magnify" viewBox="0 0 375 374.999991" height="500" preserveAspectRatio="xMidYMid meet" version="1.0"><defs><g/><clipPath id="54a1f406a9"><path d="M 179 191.355469 L 365 191.355469 L 365 230 L 179 230 Z M 179 191.355469 " clip-rule="nonzero"/></clipPath></defs><g fill="#ffbd59" fill-opacity="1"><g transform="translate(0.0000045, 318.048728)"><g><path d="M 156.453125 0 L 100 0 L 100 -112.109375 L 1.375 -285.546875 L 61.921875 -285.546875 L 127.15625 -173.25 L 132.03125 -173.25 L 195.90625 -285.546875 L 255.078125 -285.546875 L 156.453125 -112.109375 Z M 156.453125 0 "/></g></g></g><g clip-path="url(#54a1f406a9)"><path fill="#ffbd59" d="M 195.5625 191.644531 C 197.191406 191.441406 198.792969 191.371094 200.375 191.441406 C 200.445312 191.445312 200.519531 191.449219 200.59375 191.453125 C 203.84375 191.640625 206.730469 191.757812 209.253906 191.8125 L 209.25 191.8125 C 214.695312 191.925781 220.800781 192.011719 227.566406 192.066406 L 227.472656 192.066406 C 246.589844 192.128906 268.152344 192.164062 292.160156 192.171875 L 292.210938 192.171875 C 298.394531 192.191406 304.183594 192.238281 309.570312 192.3125 C 327.472656 192.566406 340.375 192.988281 348.28125 193.574219 C 358.1875 194.3125 365.625 202.941406 364.886719 212.847656 C 364.152344 222.757812 355.519531 230.191406 345.613281 229.457031 C 338.425781 228.921875 326.242188 228.53125 309.0625 228.289062 C 303.808594 228.214844 298.152344 228.171875 292.101562 228.152344 L 292.148438 228.152344 C 268.101562 228.144531 246.5 228.109375 227.355469 228.046875 C 227.324219 228.046875 227.292969 228.046875 227.261719 228.046875 C 220.351562 227.988281 214.097656 227.898438 208.503906 227.785156 L 208.5 227.785156 C 205.542969 227.722656 202.222656 227.585938 198.539062 227.375 L 198.761719 227.386719 C 199.230469 227.40625 199.671875 227.390625 200.078125 227.339844 C 190.222656 228.585938 181.222656 221.609375 179.972656 211.75 C 178.726562 201.894531 185.707031 192.890625 195.5625 191.644531 Z M 195.5625 191.644531 " fill-opacity="1" fill-rule="nonzero"/></g></svg>