<svg xmlns="http://www.w3.org/2000/svg" xmlns:xlink="http://www.w3.org/1999/xlink" width="500" zoomAndPan="magnify" viewBox="0 0 375 374.999991" height="500" preserveAspectRatio="xMidYMid meet" version="1.0"><defs><g/><clipPath id="e131f29156"><path d="M 0 0 L 156.246094 0 L 156.246094 375 L 0 375 Z M 0 0 " clip-rule="nonzero"/></clipPath><clipPath id="c452adce2a"><path d="M 78.125 0 L 0 78.125 L 39.0625 78.125 L 39.0625 375 L 117.183594 375 L 117.183594 78.125 L 156.246094 78.125 Z M 78.125 0 " clip-rule="nonzero"/></clipPath></defs><g clip-path="url(#e131f29156)"><g clip-path="url(#c452adce2a)"><path fill="#00bf63" d="M 0 0 L 156.246094 0 L 156.246094 374.746094 L 0 374.746094 Z M 0 0 " fill-opacity="1" fill-rule="nonzero"/></g></g><g fill="#00bf63" fill-opacity="1"><g transform="translate(137.633052, 375.105782)"><g><path d="M 221.296875 0 L 11.71875 0 L 11.71875 -49.8125 L 154.890625 -234.1875 L 153.515625 -238.28125 L 17.390625 -238.28125 L 17.390625 -285.546875 L 219.921875 -285.546875 L 219.921875 -235.75 L 76.765625 -51.375 L 78.125 -47.265625 L 221.296875 -47.265625 Z M 221.296875 0 "/></g></g></g></svg>