<svg xmlns="http://www.w3.org/2000/svg" xmlns:xlink="http://www.w3.org/1999/xlink" width="500" zoomAndPan="magnify" viewBox="0 0 375 374.999991" height="500" preserveAspectRatio="xMidYMid meet" version="1.0"><defs><g/><clipPath id="da792fb790"><path d="M 174.699219 87.351562 L 374.949219 87.351562 L 374.949219 287.601562 L 174.699219 287.601562 Z M 174.699219 87.351562 " clip-rule="nonzero"/></clipPath></defs><g fill="#00bf63" fill-opacity="1"><g transform="translate(-11.015583, 325.066974)"><g><path d="M 215.53125 0 L 11.40625 0 L 11.40625 -48.515625 L 150.859375 -228.09375 L 149.515625 -232.078125 L 16.9375 -232.078125 L 16.9375 -278.125 L 214.203125 -278.125 L 214.203125 -229.609375 L 74.765625 -50.03125 L 76.09375 -46.03125 L 215.53125 -46.03125 Z M 215.53125 0 "/></g></g></g><g clip-path="url(#da792fb790)"><path fill="#00bf63" d="M 362.476562 174.980469 L 287.367188 174.980469 L 287.367188 99.867188 C 287.367188 96.546875 286.046875 93.363281 283.699219 91.015625 C 281.351562 88.667969 278.167969 87.351562 274.847656 87.351562 C 271.527344 87.351562 268.34375 88.667969 265.996094 91.015625 C 263.648438 93.363281 262.328125 96.546875 262.328125 99.867188 L 262.328125 174.980469 L 187.21875 174.980469 C 183.898438 174.980469 180.714844 176.300781 178.367188 178.644531 C 176.019531 180.992188 174.699219 184.179688 174.699219 187.5 C 174.699219 190.816406 176.019531 194.003906 178.367188 196.351562 C 180.714844 198.699219 183.898438 200.015625 187.21875 200.015625 L 262.328125 200.015625 L 262.328125 275.128906 C 262.328125 278.449219 263.648438 281.632812 265.996094 283.980469 C 268.34375 286.328125 271.527344 287.648438 274.847656 287.648438 C 278.167969 287.648438 281.351562 286.328125 283.699219 283.980469 C 286.046875 281.632812 287.367188 278.449219 287.367188 275.128906 L 287.367188 200.015625 L 362.476562 200.015625 C 365.796875 200.015625 368.984375 198.699219 371.328125 196.351562 C 373.675781 194.003906 374.996094 190.816406 374.996094 187.5 C 374.996094 184.179688 373.675781 180.992188 371.328125 178.644531 C 368.984375 176.300781 365.796875 174.980469 362.476562 174.980469 Z M 362.476562 174.980469 " fill-opacity="1" fill-rule="nonzero"/></g></svg>