<svg xmlns="http://www.w3.org/2000/svg" xmlns:xlink="http://www.w3.org/1999/xlink" width="500" zoomAndPan="magnify" viewBox="0 0 375 374.999991" height="500" preserveAspectRatio="xMidYMid meet" version="1.0"><defs><g/><clipPath id="81b42127ab"><path d="M 176 168.082031 L 362 168.082031 L 362 207 L 176 207 Z M 176 168.082031 " clip-rule="nonzero"/></clipPath></defs><g clip-path="url(#81b42127ab)"><path fill="#ffbd59" d="M 191.808594 168.371094 C 193.4375 168.167969 195.039062 168.097656 196.621094 168.167969 C 196.695312 168.171875 196.765625 168.175781 196.839844 168.179688 C 200.089844 168.367188 202.976562 168.484375 205.5 168.539062 L 205.496094 168.539062 C 210.941406 168.652344 217.046875 168.738281 223.8125 168.792969 L 223.71875 168.792969 C 242.835938 168.855469 264.398438 168.890625 288.40625 168.898438 L 288.457031 168.898438 C 294.640625 168.917969 300.429688 168.964844 305.816406 169.039062 C 323.71875 169.292969 336.621094 169.714844 344.527344 170.300781 C 354.433594 171.039062 361.871094 179.667969 361.132812 189.574219 C 360.398438 199.484375 351.765625 206.917969 341.859375 206.183594 C 334.671875 205.648438 322.488281 205.257812 305.308594 205.015625 C 300.054688 204.941406 294.398438 204.898438 288.347656 204.878906 L 288.398438 204.878906 C 264.347656 204.871094 242.746094 204.835938 223.601562 204.773438 C 223.570312 204.773438 223.539062 204.773438 223.507812 204.773438 C 216.597656 204.714844 210.34375 204.625 204.75 204.511719 L 204.746094 204.511719 C 201.789062 204.449219 198.46875 204.3125 194.785156 204.101562 L 195.007812 204.113281 C 195.480469 204.132812 195.917969 204.117188 196.324219 204.066406 C 186.46875 205.3125 177.46875 198.335938 176.21875 188.476562 C 174.972656 178.621094 181.953125 169.617188 191.808594 168.371094 Z M 191.808594 168.371094 " fill-opacity="1" fill-rule="nonzero"/></g><g fill="#ffbd59" fill-opacity="1"><g transform="translate(-10.966203, 323.67936)"><g><path d="M 221.296875 0 L 11.71875 0 L 11.71875 -49.8125 L 154.890625 -234.1875 L 153.515625 -238.28125 L 17.390625 -238.28125 L 17.390625 -285.546875 L 219.921875 -285.546875 L 219.921875 -235.75 L 76.765625 -51.375 L 78.125 -47.265625 L 221.296875 -47.265625 Z M 221.296875 0 "/></g></g></g></svg>