<svg xmlns="http://www.w3.org/2000/svg" xmlns:xlink="http://www.w3.org/1999/xlink" width="500" zoomAndPan="magnify" viewBox="0 0 375 374.999991" height="500" preserveAspectRatio="xMidYMid meet" version="1.0"><defs><g/><clipPath id="b405b35c6b"><path d="M 0 0 L 156.246094 0 L 156.246094 375 L 0 375 Z M 0 0 " clip-rule="nonzero"/></clipPath><clipPath id="c32ca5103f"><path d="M 78.121094 375 L 156.246094 296.875 L 117.183594 296.875 L 117.183594 0 L 39.0625 0 L 39.0625 296.875 L 0 296.875 Z M 78.121094 375 " clip-rule="nonzero"/></clipPath></defs><g clip-path="url(#b405b35c6b)"><g clip-path="url(#c32ca5103f)"><path fill="#ffbd59" d="M 156.246094 375 L 0 375 L 0 0.253906 L 156.246094 0.253906 Z M 156.246094 375 " fill-opacity="1" fill-rule="nonzero"/></g></g><g fill="#ffbd59" fill-opacity="1"><g transform="translate(147.442202, 283.889571)"><g><path d="M 221.296875 0 L 11.71875 0 L 11.71875 -49.8125 L 154.890625 -234.1875 L 153.515625 -238.28125 L 17.390625 -238.28125 L 17.390625 -285.546875 L 219.921875 -285.546875 L 219.921875 -235.75 L 76.765625 -51.375 L 78.125 -47.265625 L 221.296875 -47.265625 Z M 221.296875 0 "/></g></g></g></svg>