<svg xmlns="http://www.w3.org/2000/svg" xmlns:xlink="http://www.w3.org/1999/xlink" width="500" zoomAndPan="magnify" viewBox="0 0 375 374.999991" height="500" preserveAspectRatio="xMidYMid meet" version="1.0"><defs><g/><clipPath id="dda723dcc9"><path d="M 1 22.601562 L 375 22.601562 L 375 352.601562 L 1 352.601562 Z M 1 22.601562 " clip-rule="nonzero"/></clipPath></defs><g clip-path="url(#dda723dcc9)"><path fill="#0097b2" d="M 187.613281 23.015625 C 186.035156 23.199219 184.570312 23.914062 183.453125 25.042969 L 3.425781 205.074219 C 0.703125 207.816406 0.730469 212.253906 3.480469 214.972656 C 4.785156 216.261719 6.542969 216.988281 8.378906 216.996094 L 46.410156 216.996094 L 46.410156 345.039062 C 46.417969 348.886719 49.535156 352 53.382812 352.015625 L 323.425781 352.015625 C 327.273438 352 330.386719 348.886719 330.402344 345.039062 L 330.402344 217 L 368.429688 217 C 372.296875 216.984375 375.421875 213.839844 375.40625 209.972656 C 375.398438 208.136719 374.671875 206.378906 373.382812 205.074219 L 329.5 161.191406 L 329.5 101.105469 C 329.488281 97.261719 326.371094 94.144531 322.527344 94.132812 L 292.820312 94.132812 C 288.976562 94.144531 285.863281 97.261719 285.847656 101.105469 L 285.847656 117.53125 L 193.355469 25.042969 C 191.851562 23.53125 189.734375 22.78125 187.613281 23.015625 Z M 187.613281 23.015625 " fill-opacity="1" fill-rule="nonzero"/></g><g fill="#ffffff" fill-opacity="1"><g transform="translate(106.36397, 294.081716)"><g><path d="M 157.1875 -31.921875 L 157.1875 0 L 9.1875 0 L 9.1875 -25.390625 L 102.046875 -137.359375 L 11.125 -137.359375 L 11.125 -169.28125 L 153.5625 -169.28125 L 153.5625 -143.890625 L 60.9375 -31.921875 Z M 157.1875 -31.921875 "/></g></g></g></svg>